{
DisplayStrings = (
Pinterest.
);
classes = (
{
automatic = 1;
code = "A B C D E F G H I J K L M N O P Q R S T U V W X Y Z Agrave Aacute Acircumflex Atilde Adieresis Aring AE Ccedilla Egrave Eacute Ecircumflex Edieresis Igrave Iacute Icircumflex Idieresis Eth Ntilde Ograve Oacute Ocircumflex Otilde Odieresis Oslash Ugrave Uacute Ucircumflex Udieresis Yacute Thorn Zcaron OE Scaron K.alt Ydieresis Lslash";
name = Uppercase;
}
);
copyright = "Copyright (c) 2011-13 by vernon adams. All rights reserved.";
customParameters = (
{
name = glyphOrder;
value = (
    ".notdef",
    space,
    exclam,
    quotedbl,
    numbersign,
    dollar,
    percent,
    ampersand,
    parenleft,
    parenright,
    asterisk,
    plus,
    comma,
    hyphen,
    period,
    slash,
    zero,
    one,
    two,
    three,
    four,
    five,
    six,
    seven,
    eight,
    nine,
    colon,
    semicolon,
    less,
    equal,
    greater,
    question,
    at,
    A,
    B,
    C,
    D,
    E,
    F,
    G,
    H,
    I,
    J,
    K,
    L,
    M,
    N,
    O,
    P,
    Q,
    R,
    S,
    T,
    U,
    V,
    W,
    X,
    Y,
    Z,
    bracketleft,
    backslash,
    bracketright,
    asciicircum,
    underscore,
    grave,
    a,
    b,
    c,
    d,
    e,
    f,
    g,
    h,
    i,
    j,
    k,
    l,
    m,
    n,
    o,
    p,
    q,
    r,
    s,
    t,
    u,
    v,
    w,
    x,
    y,
    z,
    braceleft,
    bar,
    braceright,
    asciitilde,
    exclamdown,
    cent,
    sterling,
    currency,
    yen,
    brokenbar,
    section,
    dieresis,
    copyright,
    ordfeminine,
    guillemotleft,
    logicalnot,
    registered,
    degree,
    plusminus,
    acute,
    paragraph,
    periodcentered,
    cedilla,
    ordmasculine,
    guillemotright,
    onequarter,
    onehalf,
    threequarters,
    questiondown,
    Agrave,
    Aacute,
    Acircumflex,
    Atilde,
    Adieresis,
    Aring,
    AE,
    Ccedilla,
    Egrave,
    Eacute,
    Ecircumflex,
    Edieresis,

glyphs = (
{
glyphname = exclam;
lastChange = "2014-01-06 04:07:50 -0800";
layers = (
{
layerId = "DE4BB00D-BABA-4D36-9D9A-44FD0E91C3DF";
name = Light;
paths = (
{
closed = 1;
nodes = (
"616.094 537.677 OFFCURVE",
"667.051 517.944 OFFCURVE",
"688 572.41 CURVE",
"1077 1550 LINE",
"1143 1722 OFFCURVE",
"1206 1851 OFFCURVE",
"1056 1867 CURVE",
"982 1875 OFFCURVE",
"933 1826 OFFCURVE",
"915 1751 CURVE",
"626.183 580.279 LINE"
);
},
{
closed = 1;
nodes = (
"474 91 OFFCURVE",
"503 57 OFFCURVE",
"578 57 CURVE",
"641 57 OFFCURVE",
"699 113 OFFCURVE",
"699 191 CURVE",
"699 261 OFFCURVE",
"670 294 OFFCURVE",
"597 294 CURVE",
"533 294 OFFCURVE",
"474 239 OFFCURVE",
"474 162 CURVE"
);
}
);
width = 1132;
},
{
layerId = "5ACEE878-7952-4CAC-A6A7-BEDE971843B4";
name = Regular;
paths = (
{
closed = 1;
nodes = (
"642 492 CURVE SMOOTH",
"675 492 OFFCURVE",
"694 504 OFFCURVE",
"716 562 CURVE SMOOTH",
"1095 1540 LINE SMOOTH",
"1160 1709 OFFCURVE",
"1239 1875 OFFCURVE",
"1049 1896 CURVE SMOOTH",
"957 1906 OFFCURVE",
"896 1844 OFFCURVE",
"876 1758 CURVE SMOOTH",
"598 552 LINE",
"596 545 OFFCURVE",
"596 540 OFFCURVE",
"596 537 CURVE SMOOTH",
"596 505 OFFCURVE",
"617 492 OFFCURVE"
);
},
{
closed = 1;
nodes = (
"578 -2 CURVE SMOOTH",
"694 -2 OFFCURVE",
"759 81 OFFCURVE",
"759 191 CURVE SMOOTH",
"759 295 OFFCURVE",
"701 353 OFFCURVE",
"597 353 CURVE SMOOTH",
"480 353 OFFCURVE",
"414 277 OFFCURVE",
"414 162 CURVE SMOOTH",
"414 55 OFFCURVE",
"472 -2 OFFCURVE"
);
}
);
width = 1132;
}
);
unicode = 0021;
},
{
glyphname = quotedbl;
lastChange = "2014-01-04 15:27:21 -0800";
layers = (
{
layerId = "DE4BB00D-BABA-4D36-9D9A-44FD0E91C3DF";
name = Light;
paths = (
{
closed = 1;
nodes = (
"664 1160 CURVE",
"696.664 1160 OFFCURVE",
"723.052 1192.73 OFFCURVE",
"731.434 1234.64 CURVE",
"758.324 1377.05 OFFCURVE",
"777.227 1546.42 OFFCURVE",
"797.263 1750.91 CURVE",
"798 1753.87 OFFCURVE",
"798 1756.36 OFFCURVE",
"798 1762 CURVE",
"798 1807.55 OFFCURVE",
"764.506 1831 OFFCURVE",
"724 1831 CURVE",
"662.052 1831 OFFCURVE",
"601 1792.01 OFFCURVE",
"601 1728 CURVE",
"601 1559.65 OFFCURVE",
"609 1405.65 OFFCURVE",
"609 1233 CURVE",
"609 1188.79 OFFCURVE",
"630.108 1160 OFFCURVE"
);
},
{
closed = 1;
nodes = (
"310 1160 CURVE",
"335.35 1160 OFFCURVE",
"361.668 1193.66 OFFCURVE",
"367.196 1233.12 CURVE",
"385.138 1375.66 OFFCURVE",
"403 1578.1 OFFCURVE",
"403 1747 CURVE",
"403 1803.82 OFFCURVE",
"369.386 1831 OFFCURVE",
"320 1831 CURVE",
"268.946 1831 OFFCURVE",
"217 1793.07 OFFCURVE",
"217 1728 CURVE",
"217 1560.56 OFFCURVE",
"238.835 1385.88 OFFCURVE",
"254.807 1236.1 CURVE",
"260.988 1186.65 OFFCURVE",
"276.232 1160 OFFCURVE"
);
}
);
width = 1184;
},
{
layerId = "5ACEE878-7952-4CAC-A6A7-BEDE971843B4";
name = Regular;
paths = (
{
closed = 1;
nodes = (
"664 1135 CURVE SMOOTH",
"711 1135 OFFCURVE",
"746 1180 OFFCURVE",
"756 1230 CURVE SMOOTH",
"783 1373 OFFCURVE",
"802 1543 OFFCURVE",
"822 1747 CURVE",
"823 1752 OFFCURVE",
"823 1757 OFFCURVE",
"823 1762 CURVE SMOOTH",
"823 1825 OFFCURVE",
"776 1856 OFFCURVE",
"724 1856 CURVE SMOOTH",
"651 1856 OFFCURVE",
"576 1810 OFFCURVE",
"576 1728 CURVE SMOOTH",
"576 1559 OFFCURVE",
"584 1405 OFFCURVE",
"584 1233 CURVE SMOOTH",
"584 1177 OFFCURVE",
"613 1135 OFFCURVE"
);
},
{
closed = 1;
nodes = (
"310 1135 CURVE SMOOTH",
"352 1135 OFFCURVE",
"385 1180 OFFCURVE",
"392 1230 CURVE SMOOTH",
"410 1373 OFFCURVE",
"428 1577 OFFCURVE",
"428 1747 CURVE SMOOTH",
"428 1820 OFFCURVE",
"382 1856 OFFCURVE",
"320 1856 CURVE SMOOTH",
"257 1856 OFFCURVE",
"192 1810 OFFCURVE",
"192 1728 CURVE SMOOTH",
"192 1559 OFFCURVE",
"214 1383 OFFCURVE",
"230 1233 CURVE SMOOTH",
"237 1177 OFFCURVE",
"259 1135 OFFCURVE"
);
}
);
width = 1184;
}
);
unicode = 0022;
},
{
glyphname = numbersign;
lastChange = "2014-01-04 15:27:21 -0800";
layers = (
{
layerId = "DE4BB00D-BABA-4D36-9D9A-44FD0E91C3DF";
name = Light;
paths = (
{
closed = 1;
nodes = (
"235 -33 CURVE",
"295 -33 OFFCURVE",
"322 -5 OFFCURVE",
"345 41 CURVE",
"416 181 OFFCURVE",
"481 319 OFFCURVE",
"546 460 CURVE",
"675 460 OFFCURVE",
"808 462 OFFCURVE",
"931 463 CURVE",
"794 70 OFFCURVE",
"797 81 OFFCURVE",
"797 39 CURVE",
"797 -11 OFFCURVE",
"823 -29 OFFCURVE",
"880 -29 CURVE",
"937 -29 OFFCURVE",
"963 -3 OFFCURVE",
"982 43 CURVE",
"1039 184 OFFCURVE",
"1093 322 OFFCURVE",
"1145 463 CURVE",
"1167 463 LINE",
"1298 463 OFFCURVE",
"1393 493 OFFCURVE",
"1393 603 CURVE",
"1393 629 OFFCURVE",
"1373 640 OFFCURVE",
"1334 643 CURVE",
"1209 643 LINE",
"1251 759 OFFCURVE",
"1290 873 OFFCURVE",
"1327 989 CURVE",
"1514 987 OFFCURVE",
"1609 1011 OFFCURVE",
"1609 1131 CURVE",
"1609 1160 OFFCURVE",
"1594 1169 OFFCURVE",
"1552 1169 CURVE",
"1391 1169 LINE",
"1416 1328 OFFCURVE",
"1520 1486 OFFCURVE",
"1520 1570 CURVE",
"1520 1611 OFFCURVE",
"1511 1631 OFFCURVE",
"1478 1631 CURVE",
"1271 1631 OFFCURVE",
"1250 1342 OFFCURVE",
"1183 1169 CURVE",
"1074 1169 OFFCURVE",
"958 1167 OFFCURVE",
"851 1168 CURVE",
"882 1249 OFFCURVE",
"1017 1536 OFFCURVE",
"1017 1566 CURVE",
"1017 1610 OFFCURVE",
"1012 1627 OFFCURVE",
"956 1627 CURVE",
"892 1627 OFFCURVE",
"825 1565 OFFCURVE",
"798 1497 CURVE",
"649 1168 LINE",
"465 1168 OFFCURVE",
"355 1169 OFFCURVE",
"355 1074 CURVE",
"355 1001 OFFCURVE",
"402 986 OFFCURVE",
"570 989 CURVE",
"415 642 LINE",
"256 643 OFFCURVE",
"167 635 OFFCURVE",
"167 549 CURVE",
"167 487 OFFCURVE",
"282 459 OFFCURVE",
"355 467 CURVE",
"324 401 OFFCURVE",
"213 214 OFFCURVE",
"173 66 CURVE",
"149 -21 OFFCURVE",
"180 -33 OFFCURVE"
);
},
{
closed = 1;
nodes = (
"626 639 CURVE",
"678 759 OFFCURVE",
"726 872 OFFCURVE",
"775 989 CURVE",
"1119 989 LINE",
"1029 736 OFFCURVE",
"1016 698 OFFCURVE",
"996 641 CURVE",
"931 639 OFFCURVE",
"891 639 OFFCURVE"
);
}
);
width = 1248;
},
{
layerId = "5ACEE878-7952-4CAC-A6A7-BEDE971843B4";
name = Regular;
paths = (
{
closed = 1;
nodes = (
"257 -35 CURVE SMOOTH",
"329 -35 OFFCURVE",
"361 1 OFFCURVE",
"387 51 CURVE SMOOTH",
"453 182 OFFCURVE",
"515 313 OFFCURVE",
"576 445 CURVE",
"685 445 OFFCURVE",
"795 446 OFFCURVE",
"900 447 CURVE",
"782 111 OFFCURVE",
"779 109 OFFCURVE",
"779 60 CURVE SMOOTH",
"779 -8 OFFCURVE",
"819 -31 OFFCURVE",
"885 -31 CURVE SMOOTH",
"954 -31 OFFCURVE",
"985.999 3 OFFCURVE",
"1007 55 CURVE SMOOTH",
"1061 186 OFFCURVE",
"1112 316 OFFCURVE",
"1161 448 CURVE",
"1164 448 LINE SMOOTH",
"1298 448 OFFCURVE",
"1410 481 OFFCURVE",
"1410 609 CURVE SMOOTH",
"1410 655 OFFCURVE",
"1373 669 OFFCURVE",
"1328 673 CURVE",
"1241 673 LINE",
"1275 769 OFFCURVE",
"1308 864 OFFCURVE",
"1339 960 CURVE",
"1515 960 OFFCURVE",
"1621 989 OFFCURVE",
"1621 1123 CURVE SMOOTH",
"1621 1170 OFFCURVE",
"1588 1185 OFFCURVE",
"1539 1185 CURVE SMOOTH",
"1413 1185 LINE",
"1444 1325 OFFCURVE",
"1533 1467 OFFCURVE",
"1533 1550 CURVE SMOOTH",
"1533 1596 OFFCURVE",
"1521 1635 OFFCURVE",
"1468 1635 CURVE SMOOTH",
"1250 1635 OFFCURVE",
"1222 1352 OFFCURVE",
"1163 1185 CURVE",
"1074 1185 OFFCURVE",
"981.999 1184 OFFCURVE",
"894 1184 CURVE",
"939 1291 OFFCURVE",
"1044 1513 OFFCURVE",
"1044 1546 CURVE SMOOTH",
"1044 1594 OFFCURVE",
"1036 1631 OFFCURVE",
"986.999 1631 CURVE SMOOTH",
"885 1631 OFFCURVE",
"812 1562 OFFCURVE",
"782 1490 CURVE SMOOTH",
"644 1184 LINE",
"475 1184 OFFCURVE",
"349 1182 OFFCURVE",
"349 1068 CURVE SMOOTH",
"349 982 OFFCURVE",
"404 960 OFFCURVE",
"545 960 CURVE",
"416 672 LINE",
"268 672 OFFCURVE",
"166 662 OFFCURVE",
"166 556 CURVE SMOOTH",
"166 482 OFFCURVE",
"259 450 OFFCURVE",
"332 450 CURVE SMOOTH",
"332 450 OFFCURVE",
"211 234 OFFCURVE",
"173 93 CURVE SMOOTH",
"143 -16 OFFCURVE",
"198 -35 OFFCURVE"
);
},
{
closed = 1;
nodes = (
"676 669 CURVE",
"719 768 OFFCURVE",
"759 863 OFFCURVE",
"800 960 CURVE",
"1083 960 LINE",
"1014 765 OFFCURVE",
"996.999 717 OFFCURVE",
"979.999 670 CURVE",
"929 669 OFFCURVE",
"878 669 OFFCURVE"
);
}
);
width = 1248;
}
);
unicode = 0023;
},
{
glyphname = dollar;
lastChange = "2014-01-04 15:27:21 -0800";
layers = (
{
layerId = "DE4BB00D-BABA-4D36-9D9A-44FD0E91C3DF";
name = Light;
paths = (
{
closed = 1;
nodes = (
"820 -222 CURVE",
"888 -223 OFFCURVE",
"919 -213 OFFCURVE",
"931 -175 CURVE",
"964 4 LINE",
"1265 26 OFFCURVE",
"1505 168 OFFCURVE",
"1505 484 CURVE",
"1505 723 OFFCURVE",
"1298.84 858.188 OFFCURVE",
"1135.41 953.087 CURVE",
"1239 1575 LINE",
"1331 1562 OFFCURVE",
"1482 1513 OFFCURVE",
"1482 1397 CURVE",
"1482 1328 OFFCURVE",
"1522 1275 OFFCURVE",
"1584 1275 CURVE",
"1642 1275 OFFCURVE",
"1672 1328 OFFCURVE",
"1672 1397 CURVE",
"1672 1604 OFFCURVE",
"1451 1699 OFFCURVE",
"1264 1731 CURVE",
"1283 1847 LINE",
"1294 1920 OFFCURVE",
"1302 1982 OFFCURVE",
"1250 1982 CURVE",
"1185 1982 OFFCURVE",
"1139 1944 OFFCURVE",
"1131 1891 CURVE",
"1105 1742 LINE",
"814 1736 OFFCURVE",
"521 1599 OFFCURVE",
"521 1317 CURVE",
"521 1082 OFFCURVE",
"782.932 957.127 OFFCURVE",
"950.838 866.492 CURVE",
"821 160 LINE",
"656 169 OFFCURVE",
"464 220 OFFCURVE",
"464 397 CURVE",
"464 517 OFFCURVE",
"519 600 OFFCURVE",
"640 600 CURVE",
"678 600 OFFCURVE",
"701 623 OFFCURVE",
"701 657 CURVE",
"701 703 OFFCURVE",
"663 730 OFFCURVE",
"610 730 CURVE",
"402 730 OFFCURVE",
"275 598 OFFCURVE",
"275 394 CURVE",
"275 119 OFFCURVE",
"523 20 OFFCURVE",
"793 4 CURVE",
"775 -81 OFFCURVE",
"750 -222 OFFCURVE"
);
},
{
closed = 1;
nodes = (
"982.812 1039.76 CURVE",
"910.562 1091.16 OFFCURVE",
"742 1187 OFFCURVE",
"742 1347 CURVE",
"742 1517 OFFCURVE",
"933 1574 OFFCURVE",
"1076 1582 CURVE",
"1048 1416 OFFCURVE",
"1014 1235 OFFCURVE"
);
},
{
closed = 1;
nodes = (
"995 168 CURVE",
"1106.11 783.584 LINE",
"1169 709 OFFCURVE",
"1315 638 OFFCURVE",
"1315 484 CURVE",
"1315 288 OFFCURVE",
"1146 196 OFFCURVE"
);
}
);
width = 1735;
},
{
layerId = "5ACEE878-7952-4CAC-A6A7-BEDE971843B4";
name = Regular;
paths = (
{
closed = 1;
nodes = (
"862 -225 CURVE SMOOTH",
"919 -225 OFFCURVE",
"948 -204 OFFCURVE",
"962 -158 CURVE",
"991.999 4 LINE",
"1292 31 OFFCURVE",
"1537 182 OFFCURVE",
"1537 507 CURVE SMOOTH",
"1537 754 OFFCURVE",
"1324 873 OFFCURVE",
"1163 966 CURVE",
"1259 1523 LINE",
"1349 1506 OFFCURVE",
"1457 1463 OFFCURVE",
"1457 1374 CURVE SMOOTH",
"1457 1293 OFFCURVE",
"1505 1227 OFFCURVE",
"1584 1227 CURVE SMOOTH",
"1661 1227 OFFCURVE",
"1697 1294 OFFCURVE",
"1697 1374 CURVE SMOOTH",
"1697 1590 OFFCURVE",
"1479 1691 OFFCURVE",
"1293 1728 CURVE",
"1308 1820 LINE SMOOTH",
"1312 1847 OFFCURVE",
"1317 1877 OFFCURVE",
"1317 1906 CURVE SMOOTH",
"1317 1945 OFFCURVE",
"1291 1984 OFFCURVE",
"1250 1984 CURVE SMOOTH",
"1172 1984 OFFCURVE",
"1116 1938 OFFCURVE",
"1106 1872 CURVE SMOOTH",
"1084 1743 LINE",
"792 1731 OFFCURVE",
"496 1587 OFFCURVE",
"496 1294 CURVE SMOOTH",
"496 1049 OFFCURVE",
"756 941 OFFCURVE",
"923 853 CURVE",
"807 210 LINE",
"651 222 OFFCURVE",
"496 270 OFFCURVE",
"496 420 CURVE SMOOTH",
"496 529 OFFCURVE",
"543 598 OFFCURVE",
"647 598 CURVE SMOOTH",
"699 598 OFFCURVE",
"733 632 OFFCURVE",
"733 680 CURVE SMOOTH",
"733 743 OFFCURVE",
"682 778 OFFCURVE",
"617 778 CURVE SMOOTH",
"394 778 OFFCURVE",
"257 635 OFFCURVE",
"257 417 CURVE SMOOTH",
"257 133 OFFCURVE",
"505 26 OFFCURVE",
"770 4 CURVE",
"762 -37 OFFCURVE",
"754 -70 OFFCURVE",
"754 -114 CURVE SMOOTH",
"754 -167 OFFCURVE",
"776 -224 OFFCURVE",
"827 -224 CURVE SMOOTH",
"839 -224 OFFCURVE",
"850 -225 OFFCURVE"
);
},
{
closed = 1;
nodes = (
"965 1081 CURVE",
"884 1132 OFFCURVE",
"767 1198 OFFCURVE",
"767 1324 CURVE SMOOTH",
"767 1464 OFFCURVE",
"911 1517 OFFCURVE",
"1046 1531 CURVE",
"1021 1386 OFFCURVE",
"991.999 1231 OFFCURVE"
);
},
{
closed = 1;
nodes = (
"1033 224 CURVE",
"1124 741 LINE",
"1199 691 OFFCURVE",
"1297 627 OFFCURVE",
"1297 507 CURVE SMOOTH",
"1297 341 OFFCURVE",
"1169 258 OFFCURVE"
);
}
);
width = 1735;
}
);
unicode = 0024;
},
{
glyphname = percent;
lastChange = "2014-01-04 15:27:21 -0800";
layers = (
{
layerId = "DE4BB00D-BABA-4D36-9D9A-44FD0E91C3DF";
name = Light;
paths = (
{
closed = 1;
nodes = (
"455 732 CURVE",
"503 732 OFFCURVE",
"545 740 OFFCURVE",
"586 757 CURVE",
"783 838 OFFCURVE",
"925 1067 OFFCURVE",
"925 1347 CURVE",
"925 1578 OFFCURVE",
"819 1738 OFFCURVE",
"594 1738 CURVE",
"286 1738 OFFCURVE",
"119 1470 OFFCURVE",
"119 1155 CURVE",
"119 923 OFFCURVE",
"231 732 OFFCURVE"
);
},
{
closed = 1;
nodes = (
"761 45 CURVE",
"1285 878 OFFCURVE",
"1638 1612 OFFCURVE",
"1638 1689 CURVE",
"1638 1750 OFFCURVE",
"1575 1798 OFFCURVE",
"1503 1678 CURVE",
"659 274 LINE",
"613 197 OFFCURVE",
"566 122 OFFCURVE",
"588 55 CURVE",
"614 -29 OFFCURVE",
"716 -34 OFFCURVE"
);
},
{
closed = 1;
nodes = (
"473 874 CURVE",
"348 874 OFFCURVE",
"325 1065 OFFCURVE",
"325 1176 CURVE",
"325 1348 OFFCURVE",
"385 1596 OFFCURVE",
"568 1596 CURVE",
"696 1596 OFFCURVE",
"731 1463 OFFCURVE",
"731 1349 CURVE",
"731 1181 OFFCURVE",
"652 874 OFFCURVE"
);
},
{
closed = 1;
nodes = (
"1687 129 CURVE",
"1569 129 OFFCURVE",
"1543 289 OFFCURVE",
"1543 392 CURVE",
"1543 571 OFFCURVE",
"1592 851 OFFCURVE",
"1782 851 CURVE",
"1909 851 OFFCURVE",
"1925 664 OFFCURVE",
"1925 554 CURVE",
"1925 400 OFFCURVE",
"1853 129 OFFCURVE"
);
},
{
closed = 1;
nodes = (
"1669 -13 CURVE",
"1891 -13 OFFCURVE",
"2121 220 OFFCURVE",
"2121 572 CURVE",
"2121 807 OFFCURVE",
"2031 993 OFFCURVE",
"1808 993 CURVE",
"1494 993 OFFCURVE",
"1337 703 OFFCURVE",
"1337 380 CURVE",
"1337 156 OFFCURVE",
"1450 -13 OFFCURVE"
);
}
);
width = 2208;
},
{
layerId = "5ACEE878-7952-4CAC-A6A7-BEDE971843B4";
name = Regular;
paths = (
{
closed = 1;
nodes = (
"827 112 CURVE SMOOTH",
"1599 1557 LINE SMOOTH",
"1618 1591 OFFCURVE",
"1634 1619 OFFCURVE",
"1644 1670 CURVE SMOOTH",
"1659 1747 OFFCURVE",
"1553 1822 OFFCURVE",
"1463 1672 CURVE SMOOTH",
"682 366 LINE SMOOTH",
"636 289 OFFCURVE",
"583 204 OFFCURVE",
"609 127 CURVE SMOOTH",
"642 21 OFFCURVE",
"773 13 OFFCURVE"
);
},
{
closed = 1;
nodes = (
"455 672 CURVE SMOOTH",
"505 672 OFFCURVE",
"552 681 OFFCURVE",
"596 699 CURVE SMOOTH",
"802 784 OFFCURVE",
"950 1023 OFFCURVE",
"950 1312 CURVE SMOOTH",
"950 1554 OFFCURVE",
"837 1728 OFFCURVE",
"594 1728 CURVE SMOOTH",
"268 1728 OFFCURVE",
"93.9999 1446 OFFCURVE",
"93.9999 1120 CURVE SMOOTH",
"93.9999 877 OFFCURVE",
"213 672 OFFCURVE"
);
},
{
closed = 1;
nodes = (
"1669 64 CURVE SMOOTH",
"1717 64 OFFCURVE",
"1762 73 OFFCURVE",
"1804 90 CURVE SMOOTH",
"2001 171 OFFCURVE",
"2146 398 OFFCURVE",
"2146 674 CURVE SMOOTH",
"2146 917 OFFCURVE",
"2049 1120 OFFCURVE",
"1808 1120 CURVE SMOOTH",
"1475 1120 OFFCURVE",
"1312 816 OFFCURVE",
"1312 482 CURVE SMOOTH",
"1312 247 OFFCURVE",
"1433 64 OFFCURVE"
);
},
{
closed = 1;
nodes = (
"473 864 CURVE SMOOTH",
"370 864 OFFCURVE",
"350 1031 OFFCURVE",
"350 1141 CURVE SMOOTH",
"350 1310 OFFCURVE",
"405 1536 OFFCURVE",
"568 1536 CURVE SMOOTH",
"677 1536 OFFCURVE",
"706 1425 OFFCURVE",
"706 1314 CURVE SMOOTH",
"706 1151 OFFCURVE",
"631 864 OFFCURVE"
);
},
{
closed = 1;
nodes = (
"1687 256 CURVE SMOOTH",
"1590 256 OFFCURVE",
"1568 393 OFFCURVE",
"1568 494 CURVE SMOOTH",
"1568 671 OFFCURVE",
"1613 928 OFFCURVE",
"1782 928 CURVE SMOOTH",
"1886 928 OFFCURVE",
"1900 765 OFFCURVE",
"1900 656 CURVE SMOOTH",
"1900 508 OFFCURVE",
"1832 256 OFFCURVE"
);
}
);
width = 2208;
}
);
unicode = 0025;
},
{
glyphname = ampersand;
lastChange = "2014-01-04 15:27:21 -0800";
layers = (
{
layerId = "DE4BB00D-BABA-4D36-9D9A-44FD0E91C3DF";
name = Light;
paths = (
{
closed = 1;
nodes = (
"1370 -238 CURVE",
"1496 -238 OFFCURVE",
"1575 -176 OFFCURVE",
"1575 -157 CURVE",
"1575 -121 OFFCURVE",
"1419 -76 OFFCURVE",
"1348 -21 CURVE",
"1301 17 OFFCURVE",
"1255 60 OFFCURVE",
"1152 159 CURVE",
"1327 251 OFFCURVE",
"1456 377 OFFCURVE",
"1456 538 CURVE",
"1456 588 OFFCURVE",
"1321 664 OFFCURVE",
"1294 611 CURVE",
"1294 453 OFFCURVE",
"1203 373 OFFCURVE",
"1049 309 CURVE",
"953 443 OFFCURVE",
"808.615 695.914 OFFCURVE",
"725.697 873.774 CURVE",
"889.844 971.102 OFFCURVE",
"1090 1147 OFFCURVE",
"1090 1385 CURVE",
"1090 1555 OFFCURVE",
"958 1657 OFFCURVE",
"782 1657 CURVE",
"564 1657 OFFCURVE",
"378 1488 OFFCURVE",
"378 1272 CURVE",
"378 1120 OFFCURVE",
"420 1013 OFFCURVE",
"476 912 CURVE",
"300 820 OFFCURVE",
"89 619 OFFCURVE",
"89 367 CURVE",
"89 138 OFFCURVE",
"308 0 OFFCURVE",
"558 0 CURVE",
"750 0 OFFCURVE",
"896 44 OFFCURVE",
"964 74 CURVE",
"1001 21 OFFCURVE",
"1094 -83 OFFCURVE",
"1198 -186 CURVE",
"1244 -233 OFFCURVE",
"1309 -238 OFFCURVE"
);
},
{
closed = 1;
nodes = (
"566 152 CURVE",
"426 152 OFFCURVE",
"297 256 OFFCURVE",
"297 403 CURVE",
"297 591 OFFCURVE",
"446.229 699.893 OFFCURVE",
"543.7 771.97 CURVE",
"650 536 OFFCURVE",
"743 386 OFFCURVE",
"880 216 CURVE",
"806 186 OFFCURVE",
"696 152 OFFCURVE"
);
},
{
closed = 1;
nodes = (
"684 1001 CURVE",
"620 1097 OFFCURVE",
"605 1194 OFFCURVE",
"605 1286 CURVE",
"605 1403 OFFCURVE",
"662 1495 OFFCURVE",
"794 1495 CURVE",
"888 1495 OFFCURVE",
"941 1463 OFFCURVE",
"941 1362 CURVE",
"941 1175 OFFCURVE",
"771 1049 OFFCURVE"
);
}
);
width = 1523;
},
{
layerId = "5ACEE878-7952-4CAC-A6A7-BEDE971843B4";
name = Regular;
paths = (
{
closed = 1;
nodes = (
"1370 -238 CURVE SMOOTH",
"1510 -238 OFFCURVE",
"1600 -169 OFFCURVE",
"1600 -132 CURVE SMOOTH",
"1600 -72 OFFCURVE",
"1433 -31 OFFCURVE",
"1364 24 CURVE SMOOTH",
"1321 58 OFFCURVE",
"1263 111 OFFCURVE",
"1174 196 CURVE",
"1339 287 OFFCURVE",
"1481 397 OFFCURVE",
"1481 563 CURVE SMOOTH",
"1481 625 OFFCURVE",
"1384 667 OFFCURVE",
"1321 667 CURVE SMOOTH",
"1291 667 OFFCURVE",
"1269 657 OFFCURVE",
"1269 636 CURVE SMOOTH",
"1269 495 OFFCURVE",
"1196 426 OFFCURVE",
"1058 365 CURVE",
"966 495 OFFCURVE",
"838 698 OFFCURVE",
"758 864 CURVE",
"921 963 OFFCURVE",
"1115 1112 OFFCURVE",
"1115 1355 CURVE SMOOTH",
"1115 1541 OFFCURVE",
"969.999 1652 OFFCURVE",
"782 1652 CURVE SMOOTH",
"550 1652 OFFCURVE",
"353 1473 OFFCURVE",
"353 1242 CURVE SMOOTH",
"353 1095 OFFCURVE",
"417 957 OFFCURVE",
"471 857 CURVE",
"295 762 OFFCURVE",
"64 602 OFFCURVE",
"64 345 CURVE SMOOTH",
"64 96.9999 OFFCURVE",
"301 0 OFFCURVE",
"558 0 CURVE SMOOTH",
"729 0 OFFCURVE",
"863 34 OFFCURVE",
"958 78 CURVE",
"958 66 OFFCURVE",
"1025 -24 OFFCURVE",
"1180 -179 CURVE SMOOTH",
"1233 -232 OFFCURVE",
"1308 -238 OFFCURVE"
);
},
{
closed = 1;
nodes = (
"566 202 CURVE SMOOTH",
"433 202 OFFCURVE",
"322 252 OFFCURVE",
"322 381 CURVE SMOOTH",
"322 544 OFFCURVE",
"440 660 OFFCURVE",
"535 734 CURVE",
"631 547 OFFCURVE",
"718 405 OFFCURVE",
"839 252 CURVE",
"768 226 OFFCURVE",
"675 202 OFFCURVE"
);
},
{
closed = 1;
nodes = (
"711 992.999 CURVE",
"659 1080 OFFCURVE",
"630 1176 OFFCURVE",
"630 1256 CURVE SMOOTH",
"630 1361 OFFCURVE",
"680 1440 OFFCURVE",
"794 1440 CURVE SMOOTH",
"878 1440 OFFCURVE",
"928 1414 OFFCURVE",
"928 1332 CURVE SMOOTH",
"928 1172 OFFCURVE",
"801 1075 OFFCURVE"
);
}
);
width = 1523;
}
);
unicode = 0026;
},
{
glyphname = parenleft;
lastChange = "2014-01-04 15:27:21 -0800";
layers = (
{
layerId = "DE4BB00D-BABA-4D36-9D9A-44FD0E91C3DF";
name = Light;
paths = (
{
closed = 1;
nodes = (
"1040 -353 CURVE",
"1109.36 -353 OFFCURVE",
"1237 -345 OFFCURVE",
"1237 -282 CURVE",
"1237 -217 OFFCURVE",
"1149.15 -236 OFFCURVE",
"1029.79 -216 CURVE",
"723.731 -163 OFFCURVE",
"605 97.5807 OFFCURVE",
"605 430 CURVE",
"605 871.085 OFFCURVE",
"825.698 1391.16 OFFCURVE",
"1243.27 1694.2 CURVE",
"1335.33 1761.33 OFFCURVE",
"1381 1815.42 OFFCURVE",
"1381 1854 CURVE",
"1381 1877.38 OFFCURVE",
"1365.94 1892 OFFCURVE",
"1335 1892 CURVE",
"1315.96 1892 OFFCURVE",
"1295.95 1887.2 OFFCURVE",
"1268.35 1875.24 CURVE",
"717.197 1624.72 OFFCURVE",
"399 993.059 OFFCURVE",
"399 410 CURVE",
"399 -40 OFFCURVE",
"626.765 -353 OFFCURVE"
);
}
);
width = 1377;
},
{
layerId = "5ACEE878-7952-4CAC-A6A7-BEDE971843B4";
name = Regular;
paths = (
{
closed = 1;
nodes = (
"1040 -378 CURVE SMOOTH",
"1112 -378 OFFCURVE",
"1262 -371 OFFCURVE",
"1262 -282 CURVE SMOOTH",
"1262 -189 OFFCURVE",
"1147 -210 OFFCURVE",
"1034 -191 CURVE SMOOTH",
"741 -141 OFFCURVE",
"630 103 OFFCURVE",
"630 430 CURVE SMOOTH",
"630 866 OFFCURVE",
"846 1375 OFFCURVE",
"1258 1674 CURVE SMOOTH",
"1354 1744 OFFCURVE",
"1406 1804 OFFCURVE",
"1406 1854 CURVE SMOOTH",
"1406 1892 OFFCURVE",
"1380 1917 OFFCURVE",
"1335 1917 CURVE SMOOTH",
"1313 1917 OFFCURVE",
"1288 1911 OFFCURVE",
"1258 1898 CURVE SMOOTH",
"697 1643 OFFCURVE",
"374 1001 OFFCURVE",
"374 410 CURVE SMOOTH",
"374 -52 OFFCURVE",
"610 -378 OFFCURVE"
);
}
);
width = 1377;
}
);
unicode = 0028;
},
{
glyphname = parenright;
lastChange = "2014-01-04 15:27:21 -0800";
layers = (
{
layerId = "DE4BB00D-BABA-4D36-9D9A-44FD0E91C3DF";
name = Light;
paths = (
{
closed = 1;
nodes = (
"345 -353 CURVE",
"866.518 -353 OFFCURVE",
"1193 141.482 OFFCURVE",
"1193 769 CURVE",
"1193 1236.66 OFFCURVE",
"996.01 1676.58 OFFCURVE",
"600.754 1875.67 CURVE",
"576.565 1887.31 OFFCURVE",
"557.042 1892 OFFCURVE",
"538 1892 CURVE",
"502.271 1892 OFFCURVE",
"478 1870.55 OFFCURVE",
"478 1837 CURVE",
"478 1801.06 OFFCURVE",
"512.175 1751.62 OFFCURVE",
"580.313 1692.94 CURVE",
"855.354 1456.61 OFFCURVE",
"985 1089.28 OFFCURVE",
"985 733 CURVE",
"985 254.275 OFFCURVE",
"789.829 -151 OFFCURVE",
"396.036 -216 CURVE",
"275.997 -236 OFFCURVE",
"167 -215 OFFCURVE",
"167 -297 CURVE",
"167 -346 OFFCURVE",
"279.613 -353 OFFCURVE"
);
}
);
width = 1377;
},
{
layerId = "5ACEE878-7952-4CAC-A6A7-BEDE971843B4";
name = Regular;
paths = (
{
closed = 1;
nodes = (
"345 -378 CURVE SMOOTH",
"884 -378 OFFCURVE",
"1218 130 OFFCURVE",
"1218 769 CURVE SMOOTH",
"1218 1244 OFFCURVE",
"1017 1694 OFFCURVE",
"612 1898 CURVE SMOOTH",
"585 1911 OFFCURVE",
"560 1917 OFFCURVE",
"538 1917 CURVE SMOOTH",
"489 1917 OFFCURVE",
"453 1886 OFFCURVE",
"453 1837 CURVE SMOOTH",
"453 1791 OFFCURVE",
"492 1736 OFFCURVE",
"564 1674 CURVE SMOOTH",
"834 1442 OFFCURVE",
"960 1085 OFFCURVE",
"960 733 CURVE SMOOTH",
"960 262 OFFCURVE",
"771 -129 OFFCURVE",
"392 -191 CURVE SMOOTH",
"278 -210 OFFCURVE",
"142 -187 OFFCURVE",
"142 -297 CURVE SMOOTH",
"142 -372 OFFCURVE",
"277 -378 OFFCURVE"
);
}
);
width = 1377;
}
);
unicode = 0029;
},
{
glyphname = asterisk;
lastChange = "2014-01-04 15:27:21 -0800";
layers = (
{
layerId = "DE4BB00D-BABA-4D36-9D9A-44FD0E91C3DF";
name = Light;
paths = (
{
closed = 1;
nodes = (
"424 884 CURVE",
"478.01 884 OFFCURVE",
"528 911.181 OFFCURVE",
"528.003 957.344 CURVE",
"542 1278 LINE",
"779.142 1059.14 LINE",
"820.532 1017.75 OFFCURVE",
"931 1055.34 OFFCURVE",
"931 1133 CURVE",
"931 1198 OFFCURVE",
"775 1250 OFFCURVE",
"610 1336 CURVE",
"714 1349 OFFCURVE",
"972.999 1374.5 OFFCURVE",
"972.999 1452 CURVE",
"973 1529.19 OFFCURVE",
"891.49 1574.24 OFFCURVE",
"844.805 1548.57 CURVE",
"747.989 1494.11 OFFCURVE",
"657 1452 OFFCURVE",
"563 1404 CURVE",
"606 1501 OFFCURVE",
"632.77 1603.76 OFFCURVE",
"670.026 1714.32 CURVE",
"685.987 1762.21 OFFCURVE",
"662.215 1804 OFFCURVE",
"601 1804 CURVE",
"545.858 1804 OFFCURVE",
"498 1778.65 OFFCURVE",
"498 1731 CURVE",
"498 1618.63 OFFCURVE",
"483 1514 OFFCURVE",
"485 1408 CURVE",
"391 1490 OFFCURVE",
"258.074 1643 OFFCURVE",
"203 1643 CURVE",
"149.71 1643 OFFCURVE",
"94 1600.9 OFFCURVE",
"94 1551 CURVE",
"94 1480.18 OFFCURVE",
"313 1411 OFFCURVE",
"423 1353 CURVE",
"405 1346 OFFCURVE",
"52 1326 OFFCURVE",
"52 1235 CURVE",
"52 1155.85 OFFCURVE",
"141.139 1110.72 OFFCURVE",
"180.821 1137.24 CURVE",
"278.081 1188.86 OFFCURVE",
"373 1234 OFFCURVE",
"463 1287 CURVE",
"440 1195 OFFCURVE",
"351 1065.67 OFFCURVE",
"351 943 CURVE",
"351 903.09 OFFCURVE",
"379.89 884 OFFCURVE"
);
}
);
width = 1024;
},
{
layerId = "5ACEE878-7952-4CAC-A6A7-BEDE971843B4";
name = Regular;
paths = (
{
closed = 1;
nodes = (
"424 864 CURVE SMOOTH",
"485 864 OFFCURVE",
"548 897 OFFCURVE",
"548 957 CURVE SMOOTH",
"548 1052 OFFCURVE",
"550 1154 OFFCURVE",
"553 1248 CURVE",
"618 1180 OFFCURVE",
"695 1110 OFFCURVE",
"765 1045 CURVE",
"780 1030 OFFCURVE",
"800 1022 OFFCURVE",
"823 1022 CURVE SMOOTH",
"885 1022 OFFCURVE",
"951 1072 OFFCURVE",
"951 1133 CURVE SMOOTH",
"951 1170 OFFCURVE",
"927 1193 OFFCURVE",
"897 1208 CURVE SMOOTH",
"816 1248 OFFCURVE",
"725 1289 OFFCURVE",
"642 1326 CURVE",
"738 1339 OFFCURVE",
"992.999 1349 OFFCURVE",
"992.999 1452 CURVE SMOOTH",
"992.999 1515 OFFCURVE",
"936 1576 OFFCURVE",
"873 1576 CURVE SMOOTH",
"856 1576 OFFCURVE",
"846 1572 OFFCURVE",
"835 1566 CURVE SMOOTH",
"755 1521 OFFCURVE",
"667 1472 OFFCURVE",
"586 1429 CURVE",
"622 1516 OFFCURVE",
"658 1616 OFFCURVE",
"689 1708 CURVE SMOOTH",
"693 1720 OFFCURVE",
"694 1732 OFFCURVE",
"694 1745 CURVE SMOOTH",
"694 1797 OFFCURVE",
"651 1824 OFFCURVE",
"601 1824 CURVE SMOOTH",
"539 1824 OFFCURVE",
"478 1793 OFFCURVE",
"478 1731 CURVE SMOOTH",
"478 1635 OFFCURVE",
"473 1532 OFFCURVE",
"473 1437 CURVE",
"405 1502 OFFCURVE",
"329 1574 OFFCURVE",
"260 1640 CURVE SMOOTH",
"245 1655 OFFCURVE",
"226 1663 OFFCURVE",
"203 1663 CURVE SMOOTH",
"141 1663 OFFCURVE",
"74 1613 OFFCURVE",
"74 1551 CURVE SMOOTH",
"74 1522 OFFCURVE",
"91 1496 OFFCURVE",
"128 1477 CURVE SMOOTH",
"208 1436 OFFCURVE",
"298 1397 OFFCURVE",
"381 1360 CURVE",
"286 1344 OFFCURVE",
"32 1340 OFFCURVE",
"32 1235 CURVE SMOOTH",
"32 1172 OFFCURVE",
"90 1110 OFFCURVE",
"153 1110 CURVE SMOOTH",
"167 1110 OFFCURVE",
"180 1113 OFFCURVE",
"191 1120 CURVE",
"272 1163 OFFCURVE",
"359 1210 OFFCURVE",
"438 1255 CURVE",
"402 1168 OFFCURVE",
"331 1050 OFFCURVE",
"331 943 CURVE SMOOTH",
"331 890 OFFCURVE",
"372 864 OFFCURVE"
);
}
);
width = 1024;
}
);
unicode = 002A;
},
{
glyphname = plus;
lastChange = "2014-01-04 15:27:21 -0800";
layers = (
{
layerId = "DE4BB00D-BABA-4D36-9D9A-44FD0E91C3DF";
name = Light;
paths = (
{
closed = 1;
nodes = (
"768 80 CURVE",
"819.393 80 OFFCURVE",
"845 130.649 OFFCURVE",
"845 193 CURVE",
"845 436 LINE",
"1096 436 LINE",
"1152.71 436 OFFCURVE",
"1195 471.46 OFFCURVE",
"1195 525 CURVE",
"1195 564.958 OFFCURVE",
"1165.22 588 OFFCURVE",
"1115 588 CURVE",
"845 588 LINE",
"845 855 LINE",
"845 905.217 OFFCURVE",
"821.958 935 OFFCURVE",
"782 935 CURVE",
"728.46 935 OFFCURVE",
"693 892.714 OFFCURVE",
"693 836 CURVE",
"693 588 LINE",
"453 588 LINE",
"390.649 588 OFFCURVE",
"340 562.393 OFFCURVE",
"340 511 CURVE",
"340 460.525 OFFCURVE",
"387.713 436 OFFCURVE",
"449 436 CURVE",
"693 436 LINE",
"693 189 LINE",
"693 127.713 OFFCURVE",
"717.525 80 OFFCURVE"
);
}
);
width = 1503;
},
{
layerId = "5ACEE878-7952-4CAC-A6A7-BEDE971843B4";
name = Regular;
paths = (
{
closed = 1;
nodes = (
"768 60 CURVE SMOOTH",
"834 60 OFFCURVE",
"865 124 OFFCURVE",
"865 193 CURVE SMOOTH",
"865 416 LINE",
"1096 416 LINE SMOOTH",
"1162 416 OFFCURVE",
"1215 460 OFFCURVE",
"1215 525 CURVE SMOOTH",
"1215 577 OFFCURVE",
"1174 608 OFFCURVE",
"1115 608 CURVE SMOOTH",
"865 608 LINE",
"865 855 LINE SMOOTH",
"865 914 OFFCURVE",
"834 955 OFFCURVE",
"782 955 CURVE SMOOTH",
"717 955 OFFCURVE",
"673 902 OFFCURVE",
"673 836 CURVE SMOOTH",
"673 608 LINE",
"453 608 LINE SMOOTH",
"384 608 OFFCURVE",
"320 577 OFFCURVE",
"320 511 CURVE SMOOTH",
"320 446 OFFCURVE",
"381 416 OFFCURVE",
"449 416 CURVE SMOOTH",
"673 416 LINE",
"673 189 LINE SMOOTH",
"673 121 OFFCURVE",
"703 60 OFFCURVE"
);
}
);
width = 1503;
}
);
unicode = 002B;
},
{
glyphname = comma;
lastChange = "2014-01-04 15:27:21 -0800";
layers = (
{
layerId = "DE4BB00D-BABA-4D36-9D9A-44FD0E91C3DF";
name = Light;
paths = (
{
closed = 1;
nodes = (
"278 -178 CURVE",
"388 -147 OFFCURVE",
"549 45 OFFCURVE",
"549 207 CURVE",
"549 265 OFFCURVE",
"526 315 OFFCURVE",
"460 306 CURVE",
"403 299 OFFCURVE",
"383 273 OFFCURVE",
"378 234 CURVE",
"361 98 OFFCURVE",
"308 -35 OFFCURVE",
"243 -144 CURVE",
"228 -171 OFFCURVE",
"249 -186 OFFCURVE"
);
}
);
width = 849;
},
{
layerId = "5ACEE878-7952-4CAC-A6A7-BEDE971843B4";
name = Regular;
paths = (
{
closed = 1;
nodes = (
"254 -223 CURVE SMOOTH",
"395 -183 OFFCURVE",
"602 -29 OFFCURVE",
"602 183 CURVE SMOOTH",
"602 260 OFFCURVE",
"569 333 OFFCURVE",
"474 321 CURVE SMOOTH",
"395 311 OFFCURVE",
"366 273 OFFCURVE",
"359 218 CURVE SMOOTH",
"339 53 OFFCURVE",
"275 -22 OFFCURVE",
"194 -159 CURVE SMOOTH",
"166 -206 OFFCURVE",
"209 -236 OFFCURVE"
);
}
);
width = 849;
}
);
unicode = 002C;
},
{
glyphname = hyphen;
lastChange = "2014-01-04 15:27:21 -0800";
layers = (
{
layerId = "DE4BB00D-BABA-4D36-9D9A-44FD0E91C3DF";
name = Light;
paths = (
{
closed = 1;
nodes = (
"360 504 CURVE",
"360.173 504 OFFCURVE",
"360.573 504.093 OFFCURVE",
"361.228 504.223 CURVE",
"803.884 546.958 LINE",
"862.469 551.33 OFFCURVE",
"896 591.511 OFFCURVE",
"896 628 CURVE",
"896 661 OFFCURVE",
"872 689 OFFCURVE",
"798.77 689.02 CURVE",
"370.671 667.015 LINE",
"313.516 664.456 OFFCURVE",
"288 625.531 OFFCURVE",
"288 585 CURVE",
"288 543.51 OFFCURVE",
"314.249 504 OFFCURVE"
);
}
);
width = 974;
},
{
layerId = "5ACEE878-7952-4CAC-A6A7-BEDE971843B4";
name = Regular;
paths = (
{
closed = 1;
nodes = (
"440 409 CURVE SMOOTH",
"562 467 OFFCURVE",
"646 519 OFFCURVE",
"935 573 CURVE SMOOTH",
"1001 585 OFFCURVE",
"1021 604 OFFCURVE",
"1021 648 CURVE SMOOTH",
"1021 710 OFFCURVE",
"974 724 OFFCURVE",
"928 724 CURVE",
"345 682 OFFCURVE",
"311 552 OFFCURVE",
"332 469 CURVE SMOOTH",
"344 422 OFFCURVE",
"389 385 OFFCURVE"
);
}
);
width = 1074;
}
);
unicode = 002D;
},
{
glyphname = period;
lastChange = "2014-01-04 15:27:21 -0800";
layers = (
{
layerId = "DE4BB00D-BABA-4D36-9D9A-44FD0E91C3DF";
name = Light;
paths = (
{
closed = 1;
nodes = (
"502 0 CURVE",
"593 0 OFFCURVE",
"643 55 OFFCURVE",
"643 144 CURVE",
"643 223 OFFCURVE",
"601 260 OFFCURVE",
"519 260 CURVE",
"430 260 OFFCURVE",
"382 206 OFFCURVE",
"382 118 CURVE",
"382 37 OFFCURVE",
"422 0 OFFCURVE"
);
}
);
width = 882;
},
{
layerId = "5ACEE878-7952-4CAC-A6A7-BEDE971843B4";
name = Regular;
paths = (
{
closed = 1;
nodes = (
"510 0.999999 CURVE SMOOTH",
"631 0.999999 OFFCURVE",
"701 79 OFFCURVE",
"701 196 CURVE SMOOTH",
"701 304 OFFCURVE",
"639 360 OFFCURVE",
"529 360 CURVE SMOOTH",
"409 360 OFFCURVE",
"342 283 OFFCURVE",
"342 166 CURVE SMOOTH",
"342 57 OFFCURVE",
"402 0.999999 OFFCURVE"
);
}
);
width = 882;
}
);
unicode = 002E;
},
{
glyphname = slash;
lastChange = "2014-01-04 15:27:21 -0800";
layers = (
{
layerId = "DE4BB00D-BABA-4D36-9D9A-44FD0E91C3DF";
name = Light;
paths = (
{
closed = 1;
nodes = (
"341 2 CURVE",
"418.932 2 OFFCURVE",
"455.809 27.5661 OFFCURVE",
"482.756 79.7743 CURVE",
"734.397 578.977 OFFCURVE",
"932.366 1130.89 OFFCURVE",
"1163.88 1635.89 CURVE",
"1181.1 1675.72 OFFCURVE",
"1231 1747.57 OFFCURVE",
"1231 1783 CURVE",
"1231 1812.72 OFFCURVE",
"1212.01 1821 OFFCURVE",
"1184 1821 CURVE",
"1073.46 1821 OFFCURVE",
"995.469 1758.07 OFFCURVE",
"959.856 1681.5 CURVE",
"751.947 1224.7 OFFCURVE",
"539.021 740.869 OFFCURVE",
"335.952 280.715 CURVE",
"296.313 192.047 OFFCURVE",
"257 140.226 OFFCURVE",
"257 55 CURVE",
"257 9.44385 OFFCURVE",
"276.644 2 OFFCURVE"
);
}
);
width = 1248;
},
{
layerId = "5ACEE878-7952-4CAC-A6A7-BEDE971843B4";
name = Regular;
paths = (
{
closed = 1;
nodes = (
"341 -33 CURVE SMOOTH",
"432 -33 OFFCURVE",
"482 2 OFFCURVE",
"514 64 CURVE SMOOTH",
"766 563 OFFCURVE",
"966 1119 OFFCURVE",
"1196 1622 CURVE SMOOTH",
"1212 1659 OFFCURVE",
"1248 1714 OFFCURVE",
"1248 1760 CURVE SMOOTH",
"1248 1814 OFFCURVE",
"1240 1856 OFFCURVE",
"1184 1856 CURVE SMOOTH",
"1059 1856 OFFCURVE",
"967.999 1782 OFFCURVE",
"928 1696 CURVE SMOOTH",
"720 1239 OFFCURVE",
"507 755 OFFCURVE",
"304 295 CURVE SMOOTH",
"266 210 OFFCURVE",
"222 152 OFFCURVE",
"222 55 CURVE SMOOTH",
"222 -18 OFFCURVE",
"269 -33 OFFCURVE"
);
}
);
width = 1248;
}
);
unicode = 002F;
},
{
glyphname = zero;
lastChange = "2014-01-04 15:27:21 -0800";
layers = (
{
layerId = "DE4BB00D-BABA-4D36-9D9A-44FD0E91C3DF";
name = Light;
paths = (
{
closed = 1;
nodes = (
"515 76 CURVE",
"340 76 OFFCURVE",
"322 383.972 OFFCURVE",
"322 505 CURVE",
"322 737.003 OFFCURVE",
"438 1354 OFFCURVE",
"736 1354 CURVE",
"926 1354 OFFCURVE",
"912 1059.7 OFFCURVE",
"912 939 CURVE",
"912 712.773 OFFCURVE",
"813 76 OFFCURVE"
);
},
{
closed = 1;
nodes = (
"492 -12 CURVE",
"889 -12 OFFCURVE",
"1110 486.562 OFFCURVE",
"1110 902 CURVE",
"1110 1187.68 OFFCURVE",
"1022 1452 OFFCURVE",
"742 1452 CURVE",
"347 1452 OFFCURVE",
"104 964.124 OFFCURVE",
"104 552 CURVE",
"104 251.032 OFFCURVE",
"222 -12 OFFCURVE"
);
}
);
width = 1203;
},
{
layerId = "5ACEE878-7952-4CAC-A6A7-BEDE971843B4";
name = Regular;
paths = (
{
closed = 1;
nodes = (
"515 189 CURVE SMOOTH",
"396 189 OFFCURVE",
"382 386 OFFCURVE",
"382 505 CURVE SMOOTH",
"382 724 OFFCURVE",
"458 1230 OFFCURVE",
"697 1230 CURVE SMOOTH",
"831 1230 OFFCURVE",
"852 1058 OFFCURVE",
"852 939 CURVE SMOOTH",
"852 726 OFFCURVE",
"755 189 OFFCURVE"
);
},
{
closed = 1;
nodes = (
"492 -19 CURVE SMOOTH",
"935 -19 OFFCURVE",
"1170 465 OFFCURVE",
"1170 902 CURVE SMOOTH",
"1170 1210 OFFCURVE",
"1028 1448 OFFCURVE",
"703 1448 CURVE SMOOTH",
"263 1448 OFFCURVE",
"44 985.999 OFFCURVE",
"44 552 CURVE SMOOTH",
"44 252 OFFCURVE",
"176 -19 OFFCURVE"
);
}
);
width = 1203;
}
);
unicode = 0030;
},
{
glyphname = one;
lastChange = "2014-01-04 15:27:21 -0800";
layers = (
{
layerId = "DE4BB00D-BABA-4D36-9D9A-44FD0E91C3DF";
name = Light;
paths = (
{
closed = 1;
nodes = (
"264 0 CURVE",
"316 0 OFFCURVE",
"336 17 OFFCURVE",
"339 32 CURVE",
"429 499 OFFCURVE",
"592 1281 OFFCURVE",
"592 1372 CURVE",
"592 1428 OFFCURVE",
"549 1438 OFFCURVE",
"488 1438 CURVE",
"377 1438 OFFCURVE",
"287 1322 OFFCURVE",
"217 1261 CURVE",
"200 1242 OFFCURVE",
"176 1227 OFFCURVE",
"176 1208 CURVE",
"176 1190 OFFCURVE",
"188 1171 OFFCURVE",
"201 1171 CURVE",
"241 1171 OFFCURVE",
"382 1264 OFFCURVE",
"398 1281 CURVE",
"310 810 OFFCURVE",
"294 707 OFFCURVE",
"152 66 CURVE",
"140 8 OFFCURVE",
"215 0 OFFCURVE"
);
}
);
width = 682;
},
{
layerId = "5ACEE878-7952-4CAC-A6A7-BEDE971843B4";
name = Regular;
paths = (
{
closed = 1;
nodes = (
"317 0 CURVE SMOOTH",
"358 0 OFFCURVE",
"396 24 OFFCURVE",
"403 56 CURVE SMOOTH",
"484 476 OFFCURVE",
"583 891 OFFCURVE",
"647 1316 CURVE SMOOTH",
"649 1327 OFFCURVE",
"649 1337 OFFCURVE",
"649 1346 CURVE SMOOTH",
"649 1429 OFFCURVE",
"581 1464 OFFCURVE",
"515 1442 CURVE SMOOTH",
"377 1395 OFFCURVE",
"288 1346 OFFCURVE",
"64 1258 CURVE SMOOTH",
"43 1250 OFFCURVE",
"14 1240 OFFCURVE",
"14 1192 CURVE SMOOTH",
"14 1133 OFFCURVE",
"56 1077 OFFCURVE",
"119 1105 CURVE SMOOTH",
"170 1128 OFFCURVE",
"365 1209 OFFCURVE",
"365 1209 CURVE",
"288 829 OFFCURVE",
"198 414 OFFCURVE",
"130 107 CURVE",
"122 93.9999 OFFCURVE",
"121 87 OFFCURVE",
"121 71 CURVE SMOOTH",
"121 8 OFFCURVE",
"235 0 OFFCURVE"
);
}
);
width = 682;
}
);
unicode = 0031;
},
{
glyphname = two;
lastChange = "2014-01-04 15:27:21 -0800";
layers = (
{
layerId = "DE4BB00D-BABA-4D36-9D9A-44FD0E91C3DF";
name = Light;
paths = (
{
closed = 1;
nodes = (
"282 0 CURVE",
"404 0 OFFCURVE",
"493 68 OFFCURVE",
"576 139 CURVE",
"651 81 OFFCURVE",
"733 0 OFFCURVE",
"843 0 CURVE",
"951 0 OFFCURVE",
"987 96 OFFCURVE",
"987 190 CURVE",
"987 218 OFFCURVE",
"983 223 OFFCURVE",
"982 223 CURVE",
"968 223 OFFCURVE",
"951 168 OFFCURVE",
"882 168 CURVE",
"792 168 OFFCURVE",
"726 199 OFFCURVE",
"668 237 CURVE",
"780 380 OFFCURVE",
"964 673 OFFCURVE",
"964 925 CURVE",
"964 1185 OFFCURVE",
"783 1333 OFFCURVE",
"547 1333 CURVE",
"340 1333 OFFCURVE",
"123 1197 OFFCURVE",
"123 990 CURVE",
"123 874 OFFCURVE",
"199 807 OFFCURVE",
"273 807 CURVE SMOOTH",
"426 807 OFFCURVE",
"292 841 OFFCURVE",
"292 1001 CURVE",
"292 1120 OFFCURVE",
"403 1187 OFFCURVE",
"522 1187 CURVE",
"692 1187 OFFCURVE",
"751 1066 OFFCURVE",
"751 921 CURVE",
"751 733 OFFCURVE",
"632 433 OFFCURVE",
"540 353 CURVE",
"451 411 OFFCURVE",
"360 472 OFFCURVE",
"223 472 CURVE",
"94 472 OFFCURVE",
"13 373 OFFCURVE",
"13 245 CURVE",
"13 101 OFFCURVE",
"137 0 OFFCURVE"
);
},
{
closed = 1;
nodes = (
"255 134 CURVE",
"172 134 OFFCURVE",
"142 182 OFFCURVE",
"142 238 CURVE",
"142 286 OFFCURVE",
"174 334 OFFCURVE",
"240 334 CURVE",
"350 334 OFFCURVE",
"393 308 OFFCURVE",
"459 268 CURVE",
"409 195 OFFCURVE",
"313 134 OFFCURVE"
);
}
);
width = 1101;
},
{
layerId = "5ACEE878-7952-4CAC-A6A7-BEDE971843B4";
name = Regular;
paths = (
{
closed = 1;
nodes = (
"295 0.999999 CURVE SMOOTH",
"417 0.999999 OFFCURVE",
"511 65 OFFCURVE",
"590 131 CURVE",
"659 76 OFFCURVE",
"744 0.999999 OFFCURVE",
"856 0.999999 CURVE SMOOTH",
"987.999 0.999999 OFFCURVE",
"1030 120 OFFCURVE",
"1030 221 CURVE SMOOTH",
"1030 257 OFFCURVE",
"1022 284 OFFCURVE",
"994.999 284 CURVE SMOOTH",
"959 284 OFFCURVE",
"942 229 OFFCURVE",
"895 229 CURVE SMOOTH",
"825 229 OFFCURVE",
"774 248 OFFCURVE",
"725 276 CURVE",
"835 422 OFFCURVE",
"968.999 649 OFFCURVE",
"968.999 895 CURVE SMOOTH",
"968.999 1172 OFFCURVE",
"787 1333 OFFCURVE",
"536 1333 CURVE SMOOTH",
"316 1333 OFFCURVE",
"82 1187 OFFCURVE",
"82 960 CURVE SMOOTH",
"82 832 OFFCURVE",
"126 747 OFFCURVE",
"242 747 CURVE SMOOTH",
"302 747 OFFCURVE",
"368 792 OFFCURVE",
"368 840 CURVE SMOOTH",
"368 896 OFFCURVE",
"320 892 OFFCURVE",
"320 967.999 CURVE SMOOTH",
"320 1068 OFFCURVE",
"406 1135 OFFCURVE",
"511 1135 CURVE SMOOTH",
"658 1135 OFFCURVE",
"710 1025 OFFCURVE",
"710 891 CURVE SMOOTH",
"710 720 OFFCURVE",
"631 511 OFFCURVE",
"549 422 CURVE",
"465 475 OFFCURVE",
"370 520 OFFCURVE",
"236 520 CURVE SMOOTH",
"90 520 OFFCURVE",
"-4 420 OFFCURVE",
"-4 276 CURVE SMOOTH",
"-4 114 OFFCURVE",
"136 0.999999 OFFCURVE"
);
},
{
closed = 1;
nodes = (
"268 181 CURVE SMOOTH",
"204 181 OFFCURVE",
"170 227 OFFCURVE",
"170 269 CURVE SMOOTH",
"170 303 OFFCURVE",
"193 334 OFFCURVE",
"240 334 CURVE SMOOTH",
"307 334 OFFCURVE",
"406 301 OFFCURVE",
"425 290 CURVE",
"378 221 OFFCURVE",
"317 181 OFFCURVE"
);
}
);
width = 1101;
}
);
unicode = 0032;
},
{
glyphname = three;
lastChange = "2014-01-04 15:27:21 -0800";
layers = (
{
layerId = "DE4BB00D-BABA-4D36-9D9A-44FD0E91C3DF";
name = Light;
paths = (
{
closed = 1;
nodes = (
"480 -4 CURVE",
"818 -4 OFFCURVE",
"1038 150 OFFCURVE",
"1038 436 CURVE",
"1038 632 OFFCURVE",
"960 773 OFFCURVE",
"731.42 854.351 CURVE",
"912.463 888.542 OFFCURVE",
"1047 1008 OFFCURVE",
"1047 1197 CURVE",
"1047 1389 OFFCURVE",
"849 1466 OFFCURVE",
"682 1466 CURVE",
"465 1466 OFFCURVE",
"253 1378 OFFCURVE",
"253 1279 CURVE",
"253 1250 OFFCURVE",
"279 1210 OFFCURVE",
"306 1210 CURVE",
"340 1210 OFFCURVE",
"444 1321 OFFCURVE",
"585 1321 CURVE",
"738 1321 OFFCURVE",
"804 1249 OFFCURVE",
"804 1173 CURVE",
"804 1037 OFFCURVE",
"614.251 884 OFFCURVE",
"444 884 CURVE",
"379.967 884 OFFCURVE",
"355 848.854 OFFCURVE",
"355 812 CURVE",
"355 797.879 OFFCURVE",
"372.18 785 OFFCURVE",
"402 785 CURVE",
"441.534 785 OFFCURVE",
"480.534 781 OFFCURVE",
"510 781 CURVE",
"708.677 781 OFFCURVE",
"815 602 OFFCURVE",
"815 440 CURVE",
"815 264 OFFCURVE",
"645 121 OFFCURVE",
"459 121 CURVE",
"357 121 OFFCURVE",
"222 171 OFFCURVE",
"222 253 CURVE",
"222 304 OFFCURVE",
"256 347 OFFCURVE",
"256 376 CURVE",
"256 434 OFFCURVE",
"214 485 OFFCURVE",
"127 485 CURVE",
"58 485 OFFCURVE",
"9 409 OFFCURVE",
"9 305 CURVE",
"9 141 OFFCURVE",
"203 -4 OFFCURVE"
);
}
);
width = 1129;
},
{
layerId = "5ACEE878-7952-4CAC-A6A7-BEDE971843B4";
name = Regular;
paths = (
{
closed = 1;
nodes = (
"500 -18 CURVE SMOOTH",
"861 -18 OFFCURVE",
"1088 163 OFFCURVE",
"1088 452 CURVE SMOOTH",
"1088 641 OFFCURVE",
"961 793 OFFCURVE",
"758 845 CURVE",
"946 905 OFFCURVE",
"1064 1028 OFFCURVE",
"1064 1165 CURVE SMOOTH",
"1064 1351 OFFCURVE",
"925 1465 OFFCURVE",
"701 1465 CURVE SMOOTH",
"574 1465 OFFCURVE",
"219 1425 OFFCURVE",
"219 1213 CURVE SMOOTH",
"219 1173 OFFCURVE",
"248 1148 OFFCURVE",
"293 1148 CURVE SMOOTH",
"345 1148 OFFCURVE",
"441 1259 OFFCURVE",
"572 1259 CURVE SMOOTH",
"670 1259 OFFCURVE",
"732 1205 OFFCURVE",
"732 1119 CURVE SMOOTH",
"732 975 OFFCURVE",
"621 884 OFFCURVE",
"444 884 CURVE SMOOTH",
"371 884 OFFCURVE",
"325 856 OFFCURVE",
"325 812 CURVE SMOOTH",
"325 777 OFFCURVE",
"355 755 OFFCURVE",
"402 755 CURVE SMOOTH",
"620 755 OFFCURVE",
"757 640 OFFCURVE",
"757 456 CURVE SMOOTH",
"757 265 OFFCURVE",
"651 142 OFFCURVE",
"481 137 CURVE SMOOTH",
"325 132 OFFCURVE",
"227 201 OFFCURVE",
"227 317 CURVE SMOOTH",
"227 370 OFFCURVE",
"256 418 OFFCURVE",
"256 463 CURVE SMOOTH",
"256 507 OFFCURVE",
"224 534 OFFCURVE",
"173 534 CURVE SMOOTH",
"66 534 OFFCURVE",
"-1 452 OFFCURVE",
"-1 321 CURVE SMOOTH",
"-1 113 OFFCURVE",
"192 -18 OFFCURVE"
);
}
);
width = 1129;
}
);
unicode = 0033;
},
{
glyphname = four;
lastChange = "2014-01-04 15:27:21 -0800";
layers = (
{
layerId = "DE4BB00D-BABA-4D36-9D9A-44FD0E91C3DF";
name = Light;
paths = (
{
closed = 1;
nodes = (
"597 -4 CURVE",
"650 -4 OFFCURVE",
"676 -4 OFFCURVE",
"686 3 CURVE",
"703 18 OFFCURVE",
"663 54 OFFCURVE",
"663 141 CURVE",
"668 231 OFFCURVE",
"673 243 OFFCURVE",
"678 266 CURVE",
"743 269 OFFCURVE",
"806 267 OFFCURVE",
"861 257 CURVE",
"902 248 OFFCURVE",
"911 310 OFFCURVE",
"911 359 CURVE",
"911 382 OFFCURVE",
"813 396 OFFCURVE",
"718 387 CURVE",
"738 482 OFFCURVE",
"806 575.43 OFFCURVE",
"806 674 CURVE",
"806 693.974 OFFCURVE",
"797.046 700 OFFCURVE",
"756 700 CURVE",
"699.144 700 OFFCURVE",
"652.902 668.457 OFFCURVE",
"640.873 624.856 CURVE",
"616.617 538.854 OFFCURVE",
"583 471 OFFCURVE",
"557 384 CURVE",
"505 384 OFFCURVE",
"445 381 OFFCURVE",
"366.322 366.112 CURVE",
"464 559 OFFCURVE",
"539 763 OFFCURVE",
"558 953 CURVE",
"558 993 OFFCURVE",
"551 1022 OFFCURVE",
"499 1022 CURVE",
"435.138 1022 OFFCURVE",
"348.376 1011.88 OFFCURVE",
"342.277 985.45 CURVE",
"257 486 OFFCURVE",
"116 278.723 OFFCURVE",
"116 237 CURVE",
"120 192 OFFCURVE",
"296 261 OFFCURVE",
"528 261 CURVE",
"511 188 OFFCURVE",
"496 159 OFFCURVE",
"496 82 CURVE",
"496 13 OFFCURVE",
"521 -4 OFFCURVE"
);
}
);
width = 927;
},
{
layerId = "5ACEE878-7952-4CAC-A6A7-BEDE971843B4";
name = Regular;
paths = (
{
closed = 1;
nodes = (
"597 -45 CURVE SMOOTH",
"652 -45 OFFCURVE",
"714 -38 OFFCURVE",
"770 -38 CURVE SMOOTH",
"781 -38 OFFCURVE",
"785 -37 OFFCURVE",
"785 -28 CURVE SMOOTH",
"785 28 OFFCURVE",
"693 65 OFFCURVE",
"693 130 CURVE SMOOTH",
"693 149 LINE",
"696 190 OFFCURVE",
"706 231 OFFCURVE",
"715 269 CURVE",
"771 267 OFFCURVE",
"826 264 OFFCURVE",
"881 264 CURVE SMOOTH",
"928 264 OFFCURVE",
"941 341 OFFCURVE",
"941 397 CURVE SMOOTH",
"941 418 OFFCURVE",
"936 437 OFFCURVE",
"917 437 CURVE SMOOTH",
"865 437 OFFCURVE",
"812 423 OFFCURVE",
"759 414 CURVE",
"785 493 OFFCURVE",
"836 583 OFFCURVE",
"836 674 CURVE SMOOTH",
"836 718 OFFCURVE",
"807 730 OFFCURVE",
"756 730 CURVE SMOOTH",
"686 730 OFFCURVE",
"628 691 OFFCURVE",
"612 633 CURVE SMOOTH",
"590 555 OFFCURVE",
"560 472 OFFCURVE",
"535 391 CURVE",
"522 391 LINE SMOOTH",
"483 391 OFFCURVE",
"454 392 OFFCURVE",
"411 394 CURVE",
"497 587 OFFCURVE",
"622 779 OFFCURVE",
"622 1019 CURVE SMOOTH",
"622 1050 OFFCURVE",
"535 1052 OFFCURVE",
"499 1052 CURVE SMOOTH",
"430 1052 OFFCURVE",
"325 1044 OFFCURVE",
"313 991.999 CURVE SMOOTH",
"262 764 OFFCURVE",
"218 565 OFFCURVE",
"144 372 CURVE",
"119 335 OFFCURVE",
"86 287 OFFCURVE",
"86 237 CURVE SMOOTH",
"86 212 OFFCURVE",
"95.9999 192 OFFCURVE",
"120 192 CURVE SMOOTH",
"259 192 OFFCURVE",
"347 273 OFFCURVE",
"501 273 CURVE",
"485 210 OFFCURVE",
"466 140 OFFCURVE",
"466 71 CURVE SMOOTH",
"466 -18 OFFCURVE",
"508 -45 OFFCURVE"
);
}
);
width = 927;
}
);
unicode = 0034;
},
{
glyphname = five;
lastChange = "2014-01-04 15:27:21 -0800";
layers = (
{
layerId = "DE4BB00D-BABA-4D36-9D9A-44FD0E91C3DF";
name = Light;
paths = (
{
closed = 1;
nodes = (
"489 0 CURVE",
"757 0 OFFCURVE",
"999 171 OFFCURVE",
"999 460 CURVE",
"999 859 OFFCURVE",
"683 865 OFFCURVE",
"394 837 CURVE",
"363 961 OFFCURVE",
"361 1119 OFFCURVE",
"373 1222 CURVE",
"561 1230 OFFCURVE",
"702 1179 OFFCURVE",
"764 1174 CURVE",
"929 1168 OFFCURVE",
"1063 1181 OFFCURVE",
"1063 1290 CURVE",
"1063 1392 OFFCURVE",
"1025 1415 OFFCURVE",
"1014 1403 CURVE",
"967 1356 OFFCURVE",
"876 1342 OFFCURVE",
"801 1342 CURVE",
"618 1342 OFFCURVE",
"532 1390 OFFCURVE",
"338 1390 CURVE",
"260 1390 OFFCURVE",
"251 1174 OFFCURVE",
"246 840 CURVE",
"246 736 OFFCURVE",
"254 728 OFFCURVE",
"346.687 719.773 CURVE",
"566.779 692.514 OFFCURVE",
"806 715 OFFCURVE",
"806 437 CURVE",
"806 206 OFFCURVE",
"588 104 OFFCURVE",
"482 104 CURVE",
"363 104 OFFCURVE",
"270 146 OFFCURVE",
"270 268 CURVE",
"270 429 OFFCURVE",
"339 388 OFFCURVE",
"339 429 CURVE",
"339 465 OFFCURVE",
"271 479 OFFCURVE",
"239 479 CURVE",
"138 479 OFFCURVE",
"100 438 OFFCURVE",
"100 331 CURVE",
"100 111 OFFCURVE",
"303 0 OFFCURVE"
);
}
);
width = 1157;
},
{
layerId = "5ACEE878-7952-4CAC-A6A7-BEDE971843B4";
name = Regular;
paths = (
{
closed = 1;
nodes = (
"489 0 CURVE SMOOTH",
"769 0 OFFCURVE",
"1029 155 OFFCURVE",
"1029 465 CURVE SMOOTH",
"1029 881 OFFCURVE",
"687 895 OFFCURVE",
"403 869 CURVE",
"380 968 OFFCURVE",
"373 1042 OFFCURVE",
"380 1125 CURVE",
"594 1129 OFFCURVE",
"580 1101 OFFCURVE",
"756 1087 CURVE",
"930 1080 OFFCURVE",
"1087 1127 OFFCURVE",
"1087 1263 CURVE SMOOTH",
"1087 1375 OFFCURVE",
"1018 1419 OFFCURVE",
"1003 1401 CURVE",
"962 1361 OFFCURVE",
"866 1345 OFFCURVE",
"795 1345 CURVE SMOOTH",
"622 1345 OFFCURVE",
"558 1393 OFFCURVE",
"354 1393 CURVE SMOOTH",
"240 1393 OFFCURVE",
"237 1153 OFFCURVE",
"238 840 CURVE",
"238 720 OFFCURVE",
"258 700 OFFCURVE",
"343 690 CURVE SMOOTH",
"561 663 OFFCURVE",
"713 622 OFFCURVE",
"713 399 CURVE SMOOTH",
"713 243 OFFCURVE",
"576 164 OFFCURVE",
"482 164 CURVE SMOOTH",
"374 164 OFFCURVE",
"300 199 OFFCURVE",
"300 298 CURVE SMOOTH",
"300 413 OFFCURVE",
"369 414 OFFCURVE",
"369 459 CURVE SMOOTH",
"369 522 OFFCURVE",
"276 539 OFFCURVE",
"239 539 CURVE SMOOTH",
"121 539 OFFCURVE",
"70 484 OFFCURVE",
"70 361 CURVE SMOOTH",
"70 119 OFFCURVE",
"291 0 OFFCURVE"
);
}
);
width = 1157;
}
);
unicode = 0035;
},
{
glyphname = six;
lastChange = "2014-01-04 15:27:21 -0800";
layers = (
{
layerId = "DE4BB00D-BABA-4D36-9D9A-44FD0E91C3DF";
name = Light;
paths = (
{
closed = 1;
nodes = (
"551 -30 CURVE",
"845 -30 OFFCURVE",
"1083 183 OFFCURVE",
"1083 478 CURVE",
"1083 703 OFFCURVE",
"944 879 OFFCURVE",
"757 879 CURVE",
"623 879 OFFCURVE",
"481 842 OFFCURVE",
"390 767 CURVE",
"476 976 OFFCURVE",
"706 1224 OFFCURVE",
"968 1377 CURVE",
"1003 1399 OFFCURVE",
"1023 1424 OFFCURVE",
"1023 1460 CURVE",
"1023 1492 OFFCURVE",
"995 1515 OFFCURVE",
"946 1515 CURVE",
"918 1515 OFFCURVE",
"900 1507 OFFCURVE",
"870 1493 CURVE",
"524 1325 OFFCURVE",
"112 958 OFFCURVE",
"112 455 CURVE",
"112 153 OFFCURVE",
"280 -30 OFFCURVE"
);
},
{
closed = 1;
nodes = (
"556 97 CURVE",
"391 97 OFFCURVE",
"306 262 OFFCURVE",
"306 406 CURVE",
"306 595 OFFCURVE",
"379 747 OFFCURVE",
"623 747 CURVE",
"770.727 747 OFFCURVE",
"848 638 OFFCURVE",
"848 497 CURVE",
"848 322 OFFCURVE",
"745 97 OFFCURVE"
);
}
);
width = 1166;
},
{
layerId = "5ACEE878-7952-4CAC-A6A7-BEDE971843B4";
name = Regular;
paths = (
{
closed = 1;
nodes = (
"551 -31 CURVE SMOOTH",
"860 -31 OFFCURVE",
"1113 184 OFFCURVE",
"1113 497 CURVE SMOOTH",
"1113 738 OFFCURVE",
"957 895 OFFCURVE",
"769 895 CURVE SMOOTH",
"627 895 OFFCURVE",
"533 842 OFFCURVE",
"456 786 CURVE",
"573 1019 OFFCURVE",
"735 1197 OFFCURVE",
"958 1328 CURVE SMOOTH",
"998.999 1353 OFFCURVE",
"1028 1387 OFFCURVE",
"1028 1436 CURVE SMOOTH",
"1028 1487 OFFCURVE",
"983.999 1521 OFFCURVE",
"921 1521 CURVE SMOOTH",
"887 1521 OFFCURVE",
"862 1510 OFFCURVE",
"832 1496 CURVE SMOOTH",
"481 1326 OFFCURVE",
"82 992.999 OFFCURVE",
"82 474 CURVE SMOOTH",
"82 156 OFFCURVE",
"263 -31 OFFCURVE"
);
},
{
closed = 1;
nodes = (
"556 156 CURVE SMOOTH",
"414 156 OFFCURVE",
"366 288 OFFCURVE",
"366 425 CURVE SMOOTH",
"366 602 OFFCURVE",
"431 717 OFFCURVE",
"623 717 CURVE SMOOTH",
"753 717 OFFCURVE",
"818 642 OFFCURVE",
"818 516 CURVE SMOOTH",
"818 352 OFFCURVE",
"722 156 OFFCURVE"
);
}
);
width = 1166;
}
);
unicode = 0036;
},
{
glyphname = seven;
lastChange = "2014-01-04 15:27:21 -0800";
layers = (
{
layerId = "DE4BB00D-BABA-4D36-9D9A-44FD0E91C3DF";
name = Light;
paths = (
{
closed = 1;
nodes = (
"220 -52 CURVE",
"293 -52 OFFCURVE",
"350 -29 OFFCURVE",
"371 34 CURVE",
"509 455 OFFCURVE",
"694 845 OFFCURVE",
"903 1177 CURVE",
"928 1221 OFFCURVE",
"995 1228 OFFCURVE",
"995 1282 CURVE",
"995 1324 OFFCURVE",
"985 1343 OFFCURVE",
"959 1343 CURVE",
"938 1343 OFFCURVE",
"846 1333 OFFCURVE",
"802 1333 CURVE",
"582 1333 OFFCURVE",
"473 1379 OFFCURVE",
"287 1379 CURVE",
"230 1379 OFFCURVE",
"191 1293 OFFCURVE",
"191 1185 CURVE",
"191 1126 OFFCURVE",
"212 1084 OFFCURVE",
"229 1084 CURVE",
"273 1084 OFFCURVE",
"236 1219 OFFCURVE",
"350 1219 CURVE",
"738 1219 LINE",
"561 950 OFFCURVE",
"126 247 OFFCURVE",
"126 23 CURVE",
"126 -23 OFFCURVE",
"170 -52 OFFCURVE"
);
}
);
width = 926;
},
{
layerId = "5ACEE878-7952-4CAC-A6A7-BEDE971843B4";
name = Regular;
paths = (
{
closed = 1;
nodes = (
"231 -56 CURVE SMOOTH",
"311 -56 OFFCURVE",
"384 -29 OFFCURVE",
"410 50 CURVE SMOOTH",
"548 470 OFFCURVE",
"705 800 OFFCURVE",
"913 1131 CURVE",
"929 1159 OFFCURVE",
"1010 1181 OFFCURVE",
"1010 1252 CURVE SMOOTH",
"1010 1304 OFFCURVE",
"993.999 1343 OFFCURVE",
"944 1343 CURVE SMOOTH",
"921 1343 OFFCURVE",
"829 1333 OFFCURVE",
"787 1333 CURVE SMOOTH",
"573 1333 OFFCURVE",
"464 1379 OFFCURVE",
"272 1379 CURVE SMOOTH",
"191 1379 OFFCURVE",
"146 1273 OFFCURVE",
"146 1155 CURVE SMOOTH",
"146 1083 OFFCURVE",
"172 1024 OFFCURVE",
"214 1024 CURVE SMOOTH",
"291 1024 OFFCURVE",
"262 1159 OFFCURVE",
"335 1159 CURVE SMOOTH",
"667 1159 LINE",
"477 866 OFFCURVE",
"107 271 OFFCURVE",
"107 49 CURVE SMOOTH",
"107 -18 OFFCURVE",
"168 -56 OFFCURVE"
);
}
);
width = 926;
}
);
unicode = 0037;
},
{
glyphname = eight;
lastChange = "2014-01-04 15:27:21 -0800";
layers = (
{
layerId = "DE4BB00D-BABA-4D36-9D9A-44FD0E91C3DF";
name = Light;
paths = (
{
closed = 1;
nodes = (
"447 -16 CURVE",
"669 -16 OFFCURVE",
"844 112 OFFCURVE",
"844 318 CURVE",
"844 526 OFFCURVE",
"686.092 643.34 OFFCURVE",
"570.084 741.528 CURVE",
"753.975 829.443 OFFCURVE",
"936 948 OFFCURVE",
"936 1208 CURVE",
"936 1374 OFFCURVE",
"788 1448 OFFCURVE",
"637 1448 CURVE",
"424 1448 OFFCURVE",
"222 1327 OFFCURVE",
"222 1099 CURVE",
"222 951 OFFCURVE",
"293.665 834.003 OFFCURVE",
"404.296 776.761 CURVE",
"250.077 672.864 OFFCURVE",
"81 552 OFFCURVE",
"81 291 CURVE",
"81 83 OFFCURVE",
"231 -16 OFFCURVE"
);
},
{
closed = 1;
nodes = (
"400 131 CURVE",
"312 131 OFFCURVE",
"260 229 OFFCURVE",
"260 314 CURVE",
"260 501 OFFCURVE",
"393.323 590.773 OFFCURVE",
"496.729 643.849 CURVE",
"543.521 586.909 OFFCURVE",
"609 498 OFFCURVE",
"609 376 CURVE",
"609 247 OFFCURVE",
"532 131 OFFCURVE"
);
},
{
closed = 1;
nodes = (
"506.509 836.027 CURVE",
"448.35 882.674 OFFCURVE",
"403 994 OFFCURVE",
"403 1097 CURVE",
"403 1229 OFFCURVE",
"482 1330 OFFCURVE",
"590 1330 CURVE",
"675 1330 OFFCURVE",
"748 1257 OFFCURVE",
"748 1141 CURVE",
"748 1015 OFFCURVE",
"589.135 874.321 OFFCURVE"
);
}
);
width = 967;
},
{
layerId = "5ACEE878-7952-4CAC-A6A7-BEDE971843B4";
name = Regular;
paths = (
{
closed = 1;
nodes = (
"447 -16 CURVE SMOOTH",
"682 -16 OFFCURVE",
"874 106 OFFCURVE",
"874 332 CURVE SMOOTH",
"874 534 OFFCURVE",
"735 645 OFFCURVE",
"625 735 CURVE",
"796 821 OFFCURVE",
"953 934 OFFCURVE",
"953 1192 CURVE SMOOTH",
"953 1382 OFFCURVE",
"785 1450 OFFCURVE",
"624 1450 CURVE SMOOTH",
"399 1450 OFFCURVE",
"179 1333 OFFCURVE",
"179 1083 CURVE SMOOTH",
"179 942 OFFCURVE",
"251 839 OFFCURVE",
"348 775 CURVE",
"205 678 OFFCURVE",
"51 559 OFFCURVE",
"51 305 CURVE SMOOTH",
"51 75 OFFCURVE",
"219 -16 OFFCURVE"
);
},
{
closed = 1;
nodes = (
"400 191 CURVE SMOOTH",
"332 191 OFFCURVE",
"290 256 OFFCURVE",
"290 328 CURVE SMOOTH",
"290 486 OFFCURVE",
"391 554 OFFCURVE",
"489 606 CURVE",
"533 552 OFFCURVE",
"579 489 OFFCURVE",
"579 390 CURVE SMOOTH",
"579 275 OFFCURVE",
"513 191 OFFCURVE"
);
},
{
closed = 1;
nodes = (
"511 872 CURVE",
"462 919 OFFCURVE",
"420 994.999 OFFCURVE",
"420 1081 CURVE SMOOTH",
"420 1198 OFFCURVE",
"486 1272 OFFCURVE",
"577 1272 CURVE SMOOTH",
"647 1272 OFFCURVE",
"705 1223 OFFCURVE",
"705 1125 CURVE SMOOTH",
"705 1021 OFFCURVE",
"592 917 OFFCURVE"
);
}
);
width = 967;
}
);
unicode = 0038;
},
{
glyphname = nine;
lastChange = "2014-01-04 15:27:21 -0800";
layers = (
{
layerId = "DE4BB00D-BABA-4D36-9D9A-44FD0E91C3DF";
name = Light;
paths = (
{
closed = 1;
nodes = (
"273 -126 CURVE",
"301 -126 OFFCURVE",
"320 -117 OFFCURVE",
"349 -104 CURVE",
"695 64 OFFCURVE",
"1097 429 OFFCURVE",
"1097 932 CURVE",
"1097 1233 OFFCURVE",
"929 1421 OFFCURVE",
"658 1421 CURVE",
"364 1421 OFFCURVE",
"126 1204 OFFCURVE",
"126 909 CURVE",
"126 684 OFFCURVE",
"293 504 OFFCURVE",
"464 504 CURVE",
"564 504 OFFCURVE",
"734 511 OFFCURVE",
"865 637 CURVE",
"745 371 OFFCURVE",
"513 165 OFFCURVE",
"252 12 CURVE",
"217 -10 OFFCURVE",
"196 -35 OFFCURVE",
"196 -71 CURVE",
"196 -103 OFFCURVE",
"225 -126 OFFCURVE"
);
},
{
closed = 1;
nodes = (
"559 625 CURVE",
"411 625 OFFCURVE",
"361 748 OFFCURVE",
"361 890 CURVE",
"361 1065 OFFCURVE",
"464 1294 OFFCURVE",
"653 1294 CURVE",
"818 1294 OFFCURVE",
"907 1167 OFFCURVE",
"907 970 CURVE",
"907 781 OFFCURVE",
"806 614 OFFCURVE"
);
}
);
width = 1209;
},
{
layerId = "5ACEE878-7952-4CAC-A6A7-BEDE971843B4";
name = Regular;
paths = (
{
closed = 1;
nodes = (
"288 -131 CURVE SMOOTH",
"322 -131 OFFCURVE",
"347 -120 OFFCURVE",
"377 -106 CURVE SMOOTH",
"728 64 OFFCURVE",
"1127 397 OFFCURVE",
"1127 916 CURVE SMOOTH",
"1127 1234 OFFCURVE",
"946 1421 OFFCURVE",
"658 1421 CURVE SMOOTH",
"349 1421 OFFCURVE",
"95.9999 1206 OFFCURVE",
"95.9999 893 CURVE SMOOTH",
"95.9999 652 OFFCURVE",
"252 495 OFFCURVE",
"440 495 CURVE SMOOTH",
"582 495 OFFCURVE",
"676 548 OFFCURVE",
"753 604 CURVE",
"636 371 OFFCURVE",
"474 193 OFFCURVE",
"251 62 CURVE SMOOTH",
"210 37 OFFCURVE",
"181 3 OFFCURVE",
"181 -46 CURVE SMOOTH",
"181 -97 OFFCURVE",
"225 -131 OFFCURVE"
);
},
{
closed = 1;
nodes = (
"586 673 CURVE SMOOTH",
"456 673 OFFCURVE",
"391 748 OFFCURVE",
"391 874 CURVE SMOOTH",
"391 1038 OFFCURVE",
"487 1234 OFFCURVE",
"653 1234 CURVE SMOOTH",
"795 1234 OFFCURVE",
"843 1102 OFFCURVE",
"843 965 CURVE SMOOTH",
"843 788 OFFCURVE",
"778 673 OFFCURVE"
);
}
);
width = 1209;
}
);
unicode = 0039;
},
{
glyphname = colon;
lastChange = "2014-01-04 15:27:21 -0800";
layers = (
{
layerId = "DE4BB00D-BABA-4D36-9D9A-44FD0E91C3DF";
name = Light;
paths = (
{
closed = 1;
nodes = (
"484 0 CURVE",
"586 0 OFFCURVE",
"642 62 OFFCURVE",
"642 161 CURVE",
"642 250 OFFCURVE",
"595 293 OFFCURVE",
"503 293 CURVE",
"404 293 OFFCURVE",
"350 232 OFFCURVE",
"350 132 CURVE",
"350 42 OFFCURVE",
"394 0 OFFCURVE"
);
},
{
closed = 1;
nodes = (
"544 668 CURVE",
"646 668 OFFCURVE",
"702 730 OFFCURVE",
"702 829 CURVE",
"702 918 OFFCURVE",
"655 961 OFFCURVE",
"563 961 CURVE",
"464 961 OFFCURVE",
"410 900 OFFCURVE",
"410 800 CURVE",
"410 710 OFFCURVE",
"454 668 OFFCURVE"
);
}
);
width = 704;
},
{
layerId = "5ACEE878-7952-4CAC-A6A7-BEDE971843B4";
name = Regular;
paths = (
{
closed = 1;
nodes = (
"484 0 CURVE SMOOTH",
"603 0 OFFCURVE",
"672 76 OFFCURVE",
"672 191 CURVE SMOOTH",
"672 297 OFFCURVE",
"611 353 OFFCURVE",
"503 353 CURVE SMOOTH",
"386 353 OFFCURVE",
"320 277 OFFCURVE",
"320 162 CURVE SMOOTH",
"320 55 OFFCURVE",
"378 0 OFFCURVE"
);
},
{
closed = 1;
nodes = (
"544 672 CURVE SMOOTH",
"663 672 OFFCURVE",
"732 748 OFFCURVE",
"732 863 CURVE SMOOTH",
"732 968.999 OFFCURVE",
"671 1025 OFFCURVE",
"563 1025 CURVE SMOOTH",
"446 1025 OFFCURVE",
"380 949 OFFCURVE",
"380 834 CURVE SMOOTH",
"380 727 OFFCURVE",
"438 672 OFFCURVE"
);
}
);
width = 704;
}
);
unicode = 003A;
},
{
glyphname = semicolon;
lastChange = "2014-01-04 15:27:21 -0800";
layers = (
{
layerId = "DE4BB00D-BABA-4D36-9D9A-44FD0E91C3DF";
name = Light;
paths = (
{
closed = 1;
nodes = (
"368 -161 CURVE",
"456.787 -161 OFFCURVE",
"641 152.913 OFFCURVE",
"641 205 CURVE",
"641 259.358 OFFCURVE",
"581 291 OFFCURVE",
"514 291 CURVE",
"457.914 291 OFFCURVE",
"421.737 267.297 OFFCURVE",
"404.692 225.462 CURVE",
"374.839 153.814 OFFCURVE",
"317 4.39614 OFFCURVE",
"317 -109 CURVE",
"317 -141 OFFCURVE",
"337.152 -161 OFFCURVE"
);
},
{
closed = 1;
nodes = (
"544 702 CURVE",
"645.719 702 OFFCURVE",
"702 763.585 OFFCURVE",
"702 863 CURVE",
"702 951.817 OFFCURVE",
"655.319 995 OFFCURVE",
"563 995 CURVE",
"463.679 995 OFFCURVE",
"410 933.793 OFFCURVE",
"410 834 CURVE",
"410 743.894 OFFCURVE",
"453.961 702 OFFCURVE"
);
}
);
width = 768;
},
{
layerId = "5ACEE878-7952-4CAC-A6A7-BEDE971843B4";
name = Regular;
paths = (
{
closed = 1;
nodes = (
"368 -191 CURVE SMOOTH",
"470 -191 OFFCURVE",
"514 -75 OFFCURVE",
"558 -8 CURVE SMOOTH",
"580 26 OFFCURVE",
"582 26 OFFCURVE",
"604 60 CURVE SMOOTH",
"631 102 OFFCURVE",
"671 143 OFFCURVE",
"671 205 CURVE SMOOTH",
"671 282 OFFCURVE",
"592 321 OFFCURVE",
"514 321 CURVE SMOOTH",
"445 321 OFFCURVE",
"392 291 OFFCURVE",
"377 237 CURVE SMOOTH",
"347 128 OFFCURVE",
"287 9.99999 OFFCURVE",
"287 -109 CURVE SMOOTH",
"287 -158 OFFCURVE",
"321 -191 OFFCURVE"
);
},
{
closed = 1;
nodes = (
"544 672 CURVE SMOOTH",
"663 672 OFFCURVE",
"732 748 OFFCURVE",
"732 863 CURVE SMOOTH",
"732 968.999 OFFCURVE",
"671 1025 OFFCURVE",
"563 1025 CURVE SMOOTH",
"446 1025 OFFCURVE",
"380 949 OFFCURVE",
"380 834 CURVE SMOOTH",
"380 727 OFFCURVE",
"438 672 OFFCURVE"
);
}
);
width = 768;
}
);
unicode = 003B;
},
{
glyphname = less;
lastChange = "2014-01-04 15:27:21 -0800";
layers = (
{
layerId = "DE4BB00D-BABA-4D36-9D9A-44FD0E91C3DF";
name = Light;
paths = (
{
closed = 1;
nodes = (
"936 156 CURVE",
"980.002 156 OFFCURVE",
"1009 174.351 OFFCURVE",
"1009 205 CURVE",
"1009 277.142 OFFCURVE",
"987.291 325.774 OFFCURVE",
"902.82 343.644 CURVE",
"674.465 391.718 OFFCURVE",
"168.09 589.203 OFFCURVE",
"228.39 622.884 CURVE",
"198.35 681.665 OFFCURVE",
"976.208 877.025 OFFCURVE",
"1046.51 900.46 CURVE",
"1099.52 918.129 OFFCURVE",
"1104 924.028 OFFCURVE",
"1104 962 CURVE",
"1104 1047.19 OFFCURVE",
"1055.69 1108.34 OFFCURVE",
"989.979 1089.66 CURVE",
"421.171 854.227 OFFCURVE",
"95.8798 720.906 OFFCURVE",
"87.8972 623.518 CURVE",
"69.3262 399.782 OFFCURVE",
"771.929 156 OFFCURVE"
);
}
);
width = 1184;
},
{
layerId = "5ACEE878-7952-4CAC-A6A7-BEDE971843B4";
name = Regular;
paths = (
{
closed = 1;
nodes = (
"936 126 CURVE SMOOTH",
"991.999 126 OFFCURVE",
"1039 153 OFFCURVE",
"1039 205 CURVE SMOOTH",
"1039 287 OFFCURVE",
"968.999 351 OFFCURVE",
"909 373 CURVE SMOOTH",
"254 613 LINE",
"1056 872 LINE SMOOTH",
"1100 885 OFFCURVE",
"1134 907 OFFCURVE",
"1134 962 CURVE SMOOTH",
"1134 1040 OFFCURVE",
"1104 1125 OFFCURVE",
"1024 1125 CURVE SMOOTH",
"1009 1125 OFFCURVE",
"994.999 1123 OFFCURVE",
"979.999 1118 CURVE SMOOTH",
"785 1055 OFFCURVE",
"576 960 OFFCURVE",
"394 880 CURVE SMOOTH",
"274 827 OFFCURVE",
"58 798 OFFCURVE",
"58 626 CURVE SMOOTH",
"58 388 OFFCURVE",
"300 340 OFFCURVE",
"493 275 CURVE SMOOTH",
"629 229 OFFCURVE",
"771 126 OFFCURVE"
);
}
);
width = 1184;
}
);
unicode = 003C;
},
{
glyphname = equal;
lastChange = "2014-01-04 15:27:21 -0800";
layers = (
{
layerId = "DE4BB00D-BABA-4D36-9D9A-44FD0E91C3DF";
name = Light;
paths = (
{
closed = 1;
nodes = (
"518 317 CURVE",
"1312 317 LINE",
"1502.6 317 OFFCURVE",
"1591 346.32 OFFCURVE",
"1591 450 CURVE",
"1591 473.703 OFFCURVE",
"1577.51 482 OFFCURVE",
"1539 482 CURVE",
"1208 482 LINE",
"1092.84 482 OFFCURVE",
"859.165 468.963 OFFCURVE",
"589.662 481.03 CURVE",
"481.632 485.853 OFFCURVE",
"379 475.369 OFFCURVE",
"379 415 CURVE",
"379 342.621 OFFCURVE",
"421.794 317 OFFCURVE"
);
},
{
closed = 1;
nodes = (
"535 744 CURVE",
"1427 758 LINE",
"1555 760 OFFCURVE",
"1644 788 OFFCURVE",
"1644 861 CURVE",
"1644 918 OFFCURVE",
"1628 931 OFFCURVE",
"1602 937 CURVE",
"1436 975 OFFCURVE",
"1257 914 OFFCURVE",
"904 922 CURVE",
"643 929 LINE",
"535 932 OFFCURVE",
"432 917 OFFCURVE",
"432 836 CURVE",
"432 780 OFFCURVE",
"477 743 OFFCURVE"
);
}
);
width = 1707;
},
{
layerId = "5ACEE878-7952-4CAC-A6A7-BEDE971843B4";
name = Regular;
paths = (
{
closed = 1;
nodes = (
"518 287 CURVE SMOOTH",
"1312 287 LINE SMOOTH",
"1511 287 OFFCURVE",
"1621 320 OFFCURVE",
"1621 450 CURVE SMOOTH",
"1621 497 OFFCURVE",
"1588 512 OFFCURVE",
"1539 512 CURVE SMOOTH",
"1208 512 LINE SMOOTH",
"1092 512 OFFCURVE",
"859 499 OFFCURVE",
"591 511 CURVE SMOOTH",
"479 516 OFFCURVE",
"349 505 OFFCURVE",
"349 415 CURVE SMOOTH",
"349 321 OFFCURVE",
"410 287 OFFCURVE"
);
},
{
closed = 1;
nodes = (
"518 687 CURVE SMOOTH",
"1410 701 LINE SMOOTH",
"1546 703 OFFCURVE",
"1656 734 OFFCURVE",
"1656 834 CURVE SMOOTH",
"1656 911 OFFCURVE",
"1626 931 OFFCURVE",
"1591 939 CURVE SMOOTH",
"1417 979 OFFCURVE",
"1235 917 OFFCURVE",
"887 925 CURVE SMOOTH",
"626 932 LINE SMOOTH",
"514 935 OFFCURVE",
"384 919 OFFCURVE",
"384 809 CURVE SMOOTH",
"384 735 OFFCURVE",
"445 686 OFFCURVE"
);
}
);
width = 1707;
}
);
unicode = 003D;
},
{
glyphname = greater;
lastChange = "2014-01-04 15:27:21 -0800";
layers = (
{
layerId = "DE4BB00D-BABA-4D36-9D9A-44FD0E91C3DF";
name = Light;
paths = (
{
closed = 1;
nodes = (
"266 136 CURVE",
"377.844 136 OFFCURVE",
"481.525 196.877 OFFCURVE",
"578.358 237.649 CURVE",
"788.255 326.184 OFFCURVE",
"1104 441.158 OFFCURVE",
"1104 626 CURVE",
"1104 759 OFFCURVE",
"884 811 OFFCURVE",
"598.613 929.245 CURVE",
"494.305 972.194 OFFCURVE",
"360.47 1055 OFFCURVE",
"248 1055 CURVE",
"193.221 1055 OFFCURVE",
"168 990.863 OFFCURVE",
"168 922 CURVE",
"168 884.772 OFFCURVE",
"176.68 877.323 OFFCURVE",
"225.796 860.356 CURVE",
"284.119 840.208 OFFCURVE",
"923.803 683.135 OFFCURVE",
"977.942 616.508 CURVE",
"980.535 493.057 OFFCURVE",
"359.769 352.882 OFFCURVE",
"248.549 323.965 CURVE",
"193.684 309.715 OFFCURVE",
"193 259.795 OFFCURVE",
"193 185 CURVE",
"193 153.676 OFFCURVE",
"221.738 136 OFFCURVE"
);
}
);
width = 1184;
},
{
layerId = "5ACEE878-7952-4CAC-A6A7-BEDE971843B4";
name = Regular;
paths = (
{
closed = 1;
nodes = (
"266 106 CURVE SMOOTH",
"386 106 OFFCURVE",
"495 170 OFFCURVE",
"590 210 CURVE SMOOTH",
"801 299 OFFCURVE",
"1134 340 OFFCURVE",
"1134 626 CURVE SMOOTH",
"1134 791 OFFCURVE",
"951 808 OFFCURVE",
"836 863 CURVE SMOOTH",
"768 895 OFFCURVE",
"688 925 OFFCURVE",
"610 957 CURVE SMOOTH",
"508 998.999 OFFCURVE",
"369 1085 OFFCURVE",
"248 1085 CURVE SMOOTH",
"168 1085 OFFCURVE",
"138 999.999 OFFCURVE",
"138 922 CURVE SMOOTH",
"138 867 OFFCURVE",
"172 846 OFFCURVE",
"216 832 CURVE SMOOTH",
"938 613 LINE",
"253 353 LINE SMOOTH",
"201 333 OFFCURVE",
"163 260 OFFCURVE",
"163 185 CURVE SMOOTH",
"163 132 OFFCURVE",
"210 106 OFFCURVE"
);
}
);
width = 1184;
}
);
unicode = 003E;
},
{
glyphname = question;
lastChange = "2014-01-04 15:27:21 -0800";
layers = (
{
layerId = "DE4BB00D-BABA-4D36-9D9A-44FD0E91C3DF";
name = Light;
paths = (
{
closed = 1;
nodes = (
"602 472 CURVE",
"638 472 OFFCURVE",
"659 507 OFFCURVE",
"677 551 CURVE",
"776 799 OFFCURVE",
"1131 842 OFFCURVE",
"1131 1264 CURVE",
"1131 1456.89 OFFCURVE",
"977 1602 OFFCURVE",
"783 1602 CURVE",
"652 1602 OFFCURVE",
"449 1526 OFFCURVE",
"439 1370 CURVE",
"439 1318.2 OFFCURVE",
"469.111 1270 OFFCURVE",
"511 1270 CURVE",
"599.236 1270 OFFCURVE",
"627 1457 OFFCURVE",
"782 1457 CURVE",
"894 1457 OFFCURVE",
"972 1374 OFFCURVE",
"972 1257 CURVE",
"972 983 OFFCURVE",
"544 899 OFFCURVE",
"544 506 CURVE",
"544 484 OFFCURVE",
"566 472 OFFCURVE"
);
},
{
closed = 1;
nodes = (
"558 0 CURVE",
"660 0 OFFCURVE",
"716 62 OFFCURVE",
"716 161 CURVE",
"716 250 OFFCURVE",
"669 293 OFFCURVE",
"577 293 CURVE",
"478 293 OFFCURVE",
"424 232 OFFCURVE",
"424 132 CURVE",
"424 42 OFFCURVE",
"468 0 OFFCURVE"
);
}
);
width = 1292;
},
{
layerId = "5ACEE878-7952-4CAC-A6A7-BEDE971843B4";
name = Regular;
paths = (
{
closed = 1;
nodes = (
"541 700 CURVE SMOOTH",
"538 630 OFFCURVE",
"648 624 OFFCURVE",
"662 714 CURVE SMOOTH",
"696 928 OFFCURVE",
"1193 1024 OFFCURVE",
"1208 1444 CURVE SMOOTH",
"1224 1913 OFFCURVE",
"461 2076 OFFCURVE",
"277 1510 CURVE SMOOTH",
"250 1428 OFFCURVE",
"389 1362 OFFCURVE",
"417 1420 CURVE SMOOTH",
"574 1742 OFFCURVE",
"973 1707 OFFCURVE",
"963 1425 CURVE SMOOTH",
"961 1376 OFFCURVE",
"951 1333 OFFCURVE",
"930 1296 CURVE SMOOTH",
"817 1097 OFFCURVE",
"551 1004 OFFCURVE"
);
},
{
closed = 1;
nodes = (
"558 0 CURVE SMOOTH",
"677 0 OFFCURVE",
"746 76 OFFCURVE",
"746 191 CURVE SMOOTH",
"746 297 OFFCURVE",
"685 353 OFFCURVE",
"577 353 CURVE SMOOTH",
"460 353 OFFCURVE",
"394 277 OFFCURVE",
"394 162 CURVE SMOOTH",
"394 55 OFFCURVE",
"452 0 OFFCURVE"
);
}
);
width = 1292;
}
);
unicode = 003F;
},
{
glyphname = at;
lastChange = "2014-01-04 15:27:21 -0800";
layers = (
{
layerId = "DE4BB00D-BABA-4D36-9D9A-44FD0E91C3DF";
name = Light;
paths = (
{
closed = 1;
nodes = (
"890 -360 CURVE",
"1159 -360 OFFCURVE",
"1399 -327 OFFCURVE",
"1602 -252 CURVE",
"1692 -217 OFFCURVE",
"1831 -187 OFFCURVE",
"1831 -94 CURVE",
"1831 -35 OFFCURVE",
"1806 -19 OFFCURVE",
"1765 -38 CURVE",
"1559 -133 OFFCURVE",
"1231 -180 OFFCURVE",
"921 -180 CURVE",
"580 -180 OFFCURVE",
"318 -95 OFFCURVE",
"318 252 CURVE",
"318 684 OFFCURVE",
"701 1432 OFFCURVE",
"1351 1432 CURVE",
"1730 1432 OFFCURVE",
"1942 1227 OFFCURVE",
"1942 840 CURVE",
"1942 621 OFFCURVE",
"1832 250 OFFCURVE",
"1594 250 CURVE",
"1543 250 OFFCURVE",
"1531 299 OFFCURVE",
"1531 334 CURVE",
"1531 457 OFFCURVE",
"1693 768 OFFCURVE",
"1693 1031 CURVE",
"1693 1227 OFFCURVE",
"1596 1148 OFFCURVE",
"1534 1173 CURVE",
"1541 1262 LINE",
"1540 1234 OFFCURVE",
"1540 1221 OFFCURVE",
"1540 1213 CURVE",
"1540 1222 OFFCURVE",
"1318 1231 OFFCURVE",
"1216 1193 CURVE",
"922 1086 OFFCURVE",
"636 766 OFFCURVE",
"636 373 CURVE",
"636 174 OFFCURVE",
"753 47 OFFCURVE",
"945 47 CURVE",
"1145 47 OFFCURVE",
"1270 203 OFFCURVE",
"1343 352 CURVE",
"1401 333 LINE",
"1380 223 OFFCURVE",
"1371 69 OFFCURVE",
"1486 69 CURVE",
"1770 69 OFFCURVE",
"2138 401 OFFCURVE",
"2138 880 CURVE",
"2138 1337 OFFCURVE",
"1811 1567 OFFCURVE",
"1351 1567 CURVE",
"748 1567 OFFCURVE",
"112 956 OFFCURVE",
"112 205 CURVE",
"112 -207 OFFCURVE",
"452 -360 OFFCURVE"
);
},
{
closed = 1;
nodes = (
"1024 186 CURVE",
"829 186 OFFCURVE",
"849 395 OFFCURVE",
"880 518 CURVE",
"984 919 OFFCURVE",
"1236 1161 OFFCURVE",
"1536 1064 CURVE",
"1392 570 LINE",
"1348 419 OFFCURVE",
"1228 186 OFFCURVE"
);
}
);
width = 2241;
},
{
layerId = "5ACEE878-7952-4CAC-A6A7-BEDE971843B4";
name = Regular;
paths = (
{
closed = 1;
nodes = (
"896 -362 CURVE SMOOTH",
"1159 -362 OFFCURVE",
"1398 -330 OFFCURVE",
"1598 -256 CURVE SMOOTH",
"1683 -224 OFFCURVE",
"1839 -189 OFFCURVE",
"1839 -75 CURVE SMOOTH",
"1839 4 OFFCURVE",
"1794 35 OFFCURVE",
"1733 7 CURVE SMOOTH",
"1537 -83 OFFCURVE",
"1290 -128 OFFCURVE",
"991.999 -128 CURVE SMOOTH",
"668 -128 OFFCURVE",
"400 -51 OFFCURVE",
"400 261 CURVE SMOOTH",
"400 669 OFFCURVE",
"737 1376 OFFCURVE",
"1344 1376 CURVE SMOOTH",
"1696 1376 OFFCURVE",
"1888 1190 OFFCURVE",
"1888 832 CURVE SMOOTH",
"1888 628 OFFCURVE",
"1784 289 OFFCURVE",
"1580 289 CURVE SMOOTH",
"1555 289 OFFCURVE",
"1548 313 OFFCURVE",
"1548 340 CURVE SMOOTH",
"1548 452 OFFCURVE",
"1706 754 OFFCURVE",
"1706 1018 CURVE SMOOTH",
"1706 1209 OFFCURVE",
"1604 1179 OFFCURVE",
"1556 1179 CURVE",
"1557 1184 OFFCURVE",
"1557 1189 OFFCURVE",
"1557 1194 CURVE SMOOTH",
"1557 1256 OFFCURVE",
"1341 1253 OFFCURVE",
"1202 1202 CURVE SMOOTH",
"907 1094 OFFCURVE",
"620 776 OFFCURVE",
"620 378 CURVE SMOOTH",
"620 170 OFFCURVE",
"746 32 OFFCURVE",
"950 32 CURVE SMOOTH",
"1161 32 OFFCURVE",
"1290 196 OFFCURVE",
"1363 345 CURVE",
"1342 235 OFFCURVE",
"1330 54 OFFCURVE",
"1475 54 CURVE SMOOTH",
"1767 54 OFFCURVE",
"2138 389 OFFCURVE",
"2138 870 CURVE SMOOTH",
"2138 1333 OFFCURVE",
"1804 1568 OFFCURVE",
"1344 1568 CURVE SMOOTH",
"743 1568 OFFCURVE",
"112 961 OFFCURVE",
"112 215 CURVE SMOOTH",
"112 -208 OFFCURVE",
"461 -362 OFFCURVE"
);
},
{
closed = 1;
nodes = (
"1027 227 CURVE SMOOTH",
"871 227 OFFCURVE",
"886 395 OFFCURVE",
"916 512 CURVE SMOOTH",
"1010 875 OFFCURVE",
"1229 1093 OFFCURVE",
"1486 1029 CURVE",
"1355 578 LINE SMOOTH",
"1313 434 OFFCURVE",
"1206 227 OFFCURVE"
);
}
);
width = 2241;
}
);
unicode = 0040;
},
{
glyphname = A;
lastChange = "2014-01-05 17:31:42 -0800";
layers = (
{
anchors = (
{
name = bot;
position = "{947.825, 0}";
},
{
name = ogonek;
position = "{0, 0}";
},
{
name = top;
position = "{1569, 1940}";
}
);
background = {
paths = (
{
closed = 1;
nodes = (
"812 -135 CURVE SMOOTH",
"1065 -135 OFFCURVE",
"1259 -23 OFFCURVE",
"1381 215 CURVE",
"1381 215 OFFCURVE",
"1375 113 OFFCURVE",
"1375 90 CURVE SMOOTH",
"1375 -79 OFFCURVE",
"1487 -133 OFFCURVE",
"1606 -133 CURVE SMOOTH",
"1839 -133 OFFCURVE",
"2003 21 OFFCURVE",
"2064 98 CURVE",
"2070 106 OFFCURVE",
"2073 115 OFFCURVE",
"2073 125 CURVE SMOOTH",
"2073 156 OFFCURVE",
"2047 191 OFFCURVE",
"2024 191 CURVE SMOOTH",
"2018 191 OFFCURVE",
"2012 189 OFFCURVE",
"2007 184 CURVE SMOOTH",
"1947 128 OFFCURVE",
"1771 2 OFFCURVE",
"1644 2 CURVE SMOOTH",
"1563 2 OFFCURVE",
"1536 38 OFFCURVE",
"1536 111 CURVE SMOOTH",
"1536 190 OFFCURVE",
"1569 313 OFFCURVE",
"1606 481 CURVE SMOOTH",
"1809 1406 LINE SMOOTH",
"1810 1410 OFFCURVE",
"1810 1413 OFFCURVE",
"1810 1417 CURVE SMOOTH",
"1810 1459 OFFCURVE",
"1756 1488 OFFCURVE",
"1712 1488 CURVE SMOOTH",
"1684 1488 OFFCURVE",
"1660 1476 OFFCURVE",
"1654 1450 CURVE SMOOTH",
"1467 625 LINE SMOOTH",
"1394 303 OFFCURVE",
"1175 9 OFFCURVE",
"849 9 CURVE SMOOTH",
"508 9 OFFCURVE",
"384 287 OFFCURVE",
"384 579 CURVE SMOOTH",
"384 1323 OFFCURVE",
"987 1791 OFFCURVE",
"1527 1791 CURVE SMOOTH",
"1839 1791 OFFCURVE",
"2056 1588 OFFCURVE",
"2072 1575 CURVE SMOOTH",
"2094 1557 OFFCURVE",
"2114 1550 OFFCURVE",
"2133 1550 CURVE SMOOTH",
"2166 1550 OFFCURVE",
"2190 1574 OFFCURVE",
"2190 1605 CURVE SMOOTH",
"2190 1624 OFFCURVE",
"2182 1643 OFFCURVE",
"2161 1666 CURVE SMOOTH",
"1972 1863 OFFCURVE",
"1699 1940 OFFCURVE",
"1517 1940 CURVE SMOOTH",
"825 1940 OFFCURVE",
"190 1352 OFFCURVE",
"190 577 CURVE SMOOTH",
"190 253 OFFCURVE",
"333 -135 OFFCURVE"
);
}
);
};
layerId = "DE4BB00D-BABA-4D36-9D9A-44FD0E91C3DF";
name = Light;
paths = (
{
closed = 1;
nodes = (
"812 -135 CURVE SMOOTH",
"1065 -135 OFFCURVE",
"1259 -23 OFFCURVE",
"1381 215 CURVE",
"1381 215 OFFCURVE",
"1375 113 OFFCURVE",
"1375 90 CURVE SMOOTH",
"1375 -79 OFFCURVE",
"1487 -133 OFFCURVE",
"1606 -133 CURVE SMOOTH",
"1739 -133 OFFCURVE",
"1876 -17 OFFCURVE",
"1937 60 CURVE SMOOTH",
"1943 68 OFFCURVE",
"1946 77 OFFCURVE",
"1946 87 CURVE SMOOTH",
"1946 118 OFFCURVE",
"1916 161 OFFCURVE",
"1893 161 CURVE SMOOTH",
"1887 161 OFFCURVE",
"1881 159 OFFCURVE",
"1876 154 CURVE SMOOTH",
"1814 87 OFFCURVE",
"1741 2 OFFCURVE",
"1644 2 CURVE SMOOTH",
"1563 2 OFFCURVE",
"1536 38 OFFCURVE",
"1536 111 CURVE SMOOTH",
"1536 190 OFFCURVE",
"1569 313 OFFCURVE",
"1606 481 CURVE SMOOTH",
"1809 1406 LINE SMOOTH",
"1810 1410 OFFCURVE",
"1810 1413 OFFCURVE",
"1810 1417 CURVE SMOOTH",
"1810 1459 OFFCURVE",
"1756 1488 OFFCURVE",
"1712 1488 CURVE SMOOTH",
"1684 1488 OFFCURVE",
"1660 1476 OFFCURVE",
"1654 1450 CURVE SMOOTH",
"1467 625 LINE SMOOTH",
"1394 303 OFFCURVE",
"1175 9 OFFCURVE",
"849 9 CURVE SMOOTH",
"508 9 OFFCURVE",
"384 287 OFFCURVE",
"384 579 CURVE SMOOTH",
"384 1323 OFFCURVE",
"987 1791 OFFCURVE",
"1527 1791 CURVE SMOOTH",
"1839 1791 OFFCURVE",
"2056 1588 OFFCURVE",
"2072 1575 CURVE SMOOTH",
"2094 1557 OFFCURVE",
"2114 1550 OFFCURVE",
"2133 1550 CURVE SMOOTH",
"2166 1550 OFFCURVE",
"2190 1574 OFFCURVE",
"2190 1605 CURVE SMOOTH",
"2190 1624 OFFCURVE",
"2182 1643 OFFCURVE",
"2161 1666 CURVE SMOOTH",
"1972 1863 OFFCURVE",
"1699 1940 OFFCURVE",
"1517 1940 CURVE SMOOTH",
"825 1940 OFFCURVE",
"190 1352 OFFCURVE",
"190 577 CURVE SMOOTH",
"190 253 OFFCURVE",
"333 -135 OFFCURVE"
);
}
);
width = 1895.65;
},
{
anchors = (
{
name = bot;
position = "{985, 0}";
},
{
name = ogonek;
position = "{1593, 0}";
},
{
name = top;
position = "{985, 2030}";
}
);
background = {
paths = (
{
closed = 1;
nodes = (
"812 -175 CURVE SMOOTH",
"1070 -175 OFFCURVE",
"1315 51 OFFCURVE",
"1389 253 CURVE",
"1389 253 OFFCURVE",
"1385 97 OFFCURVE",
"1385 70 CURVE SMOOTH",
"1385 -53 OFFCURVE",
"1449 -163 OFFCURVE",
"1573 -163 CURVE SMOOTH",
"1710 -163 OFFCURVE",
"1878 -78 OFFCURVE",
"1964 23 CURVE SMOOTH",
"1977 39 OFFCURVE",
"1983 58 OFFCURVE",
"1983 77 CURVE SMOOTH",
"1983 132 OFFCURVE",
"1947 184 OFFCURVE",
"1903 184 CURVE SMOOTH",
"1894 184 OFFCURVE",
"1885 183 OFFCURVE",
"1872 172 CURVE SMOOTH",
"1811 118 OFFCURVE",
"1697 46 OFFCURVE",
"1646 46 CURVE SMOOTH",
"1615 46 OFFCURVE",
"1598 78 OFFCURVE",
"1598 152 CURVE SMOOTH",
"1598 220 OFFCURVE",
"1613 324 OFFCURVE",
"1645 472 CURVE SMOOTH",
"1848 1398 LINE",
"1850 1405 OFFCURVE",
"1850 1412 OFFCURVE",
"1850 1418 CURVE SMOOTH",
"1850 1484 OFFCURVE",
"1776 1528 OFFCURVE",
"1711 1528 CURVE SMOOTH",
"1661 1526 OFFCURVE",
"1625 1506 OFFCURVE",
"1615 1459 CURVE SMOOTH",
"1428 634 LINE SMOOTH",
"1358 324 OFFCURVE",
"1151 49 OFFCURVE",
"849 49 CURVE SMOOTH",
"567 49 OFFCURVE",
"435 219 OFFCURVE",
"435 580 CURVE SMOOTH",
"435 1198 OFFCURVE",
"949 1768 OFFCURVE",
"1505 1768 CURVE SMOOTH",
"1665 1768 OFFCURVE",
"1844 1693 OFFCURVE",
"2065 1535 CURVE",
"2088 1517 OFFCURVE",
"2112 1509 OFFCURVE",
"2134 1509 CURVE SMOOTH",
"2186 1509 OFFCURVE",
"2229 1553 OFFCURVE",
"2229 1607 CURVE SMOOTH",
"2229 1632 OFFCURVE",
"2220 1663 OFFCURVE",
"2190 1694 CURVE SMOOTH",
"1970 1922 OFFCURVE",
"1754 2030 OFFCURVE",
"1517 2030 CURVE SMOOTH",
"789 2030 OFFCURVE",
"133 1333 OFFCURVE",
"150 577 CURVE SMOOTH",
"162 66 OFFCURVE",
"374 -175 OFFCURVE"
);
}
);
};
layerId = "5ACEE878-7952-4CAC-A6A7-BEDE971843B4";
name = Regular;
paths = (
{
closed = 1;
nodes = (
"812 -175 CURVE SMOOTH",
"1070 -175 OFFCURVE",
"1315 51 OFFCURVE",
"1389 253 CURVE",
"1389 253 OFFCURVE",
"1385 97 OFFCURVE",
"1385 70 CURVE SMOOTH",
"1385 -53 OFFCURVE",
"1449 -163 OFFCURVE",
"1573 -163 CURVE SMOOTH",
"1710 -163 OFFCURVE",
"1878 -78 OFFCURVE",
"1964 23 CURVE SMOOTH",
"1977 39 OFFCURVE",
"1983 58 OFFCURVE",
"1983 77 CURVE SMOOTH",
"1983 132 OFFCURVE",
"1947 184 OFFCURVE",
"1903 184 CURVE SMOOTH",
"1894 184 OFFCURVE",
"1885 183 OFFCURVE",
"1872 172 CURVE SMOOTH",
"1811 118 OFFCURVE",
"1697 46 OFFCURVE",
"1646 46 CURVE SMOOTH",
"1615 46 OFFCURVE",
"1598 78 OFFCURVE",
"1598 152 CURVE SMOOTH",
"1598 220 OFFCURVE",
"1613 324 OFFCURVE",
"1645 472 CURVE SMOOTH",
"1848 1398 LINE",
"1850 1405 OFFCURVE",
"1850 1412 OFFCURVE",
"1850 1418 CURVE SMOOTH",
"1850 1484 OFFCURVE",
"1776 1528 OFFCURVE",
"1711 1528 CURVE SMOOTH",
"1661 1526 OFFCURVE",
"1625 1506 OFFCURVE",
"1615 1459 CURVE SMOOTH",
"1428 634 LINE SMOOTH",
"1358 324 OFFCURVE",
"1151 49 OFFCURVE",
"849 49 CURVE SMOOTH",
"567 49 OFFCURVE",
"435 219 OFFCURVE",
"435 580 CURVE SMOOTH",
"435 1598 OFFCURVE",
"1374 2104 OFFCURVE",
"2066 1609 CURVE",
"2089 1591 OFFCURVE",
"2113 1583 OFFCURVE",
"2135 1583 CURVE SMOOTH",
"2187 1583 OFFCURVE",
"2230 1627 OFFCURVE",
"2230 1681 CURVE SMOOTH",
"2230 1706 OFFCURVE",
"2222 1739 OFFCURVE",
"2191 1768 CURVE SMOOTH",
"1479 2434 OFFCURVE",
"122 1815 OFFCURVE",
"150 577 CURVE SMOOTH",
"162 66 OFFCURVE",
"374 -175 OFFCURVE"
);
}
);
width = 1970;
}
);
unicode = 0041;
userData = {
com.typemytype.robofont.layerData = {
};
};
},
{
glyphname = B;
lastChange = "2014-01-06 04:04:26 -0800";
layers = (
{
anchors = (
{
name = top;
position = "{814, 1940}";
}
);
background = {
paths = (
{
closed = 1;
nodes = (
"559 -176 CURVE",
"1030 -176 OFFCURVE",
"1544 162 OFFCURVE",
"1544 510 CURVE",
"1544 693 OFFCURVE",
"1430 843 OFFCURVE",
"1232 897 CURVE",
"1647 971 OFFCURVE",
"1740 1292 OFFCURVE",
"1740 1420 CURVE",
"1740 1705 OFFCURVE",
"1473 1979 OFFCURVE",
"945 1979 CURVE",
"519 1979 OFFCURVE",
"276 1822 OFFCURVE",
"105 1655 CURVE",
"49 1600 OFFCURVE",
"133 1478 OFFCURVE",
"240 1573 CURVE",
"411 1724 OFFCURVE",
"607 1835 OFFCURVE",
"955 1835 CURVE",
"1333 1835 OFFCURVE",
"1537 1643 OFFCURVE",
"1537 1440 CURVE",
"1537 1281 OFFCURVE",
"1377 992 OFFCURVE",
"937 997 CURVE",
"851 998 LINE",
"793 999 OFFCURVE",
"769 971 OFFCURVE",
"769 938 CURVE",
"768 777 OFFCURVE",
"1356 890 OFFCURVE",
"1356 495 CURVE",
"1356 232 OFFCURVE",
"979 -56 OFFCURVE",
"552 -56 CURVE",
"437 -56 OFFCURVE",
"437 2 OFFCURVE",
"437 62 CURVE",
"437 460 OFFCURVE",
"511 1210 OFFCURVE",
"683 1475 CURVE",
"660 1504 OFFCURVE",
"636 1516 OFFCURVE",
"609 1516 CURVE",
"296 1516 OFFCURVE",
"229 349 OFFCURVE",
"229 -36 CURVE",
"229 -120 OFFCURVE",
"347 -176 OFFCURVE"
);
}
);
};
layerId = "DE4BB00D-BABA-4D36-9D9A-44FD0E91C3DF";
name = Light;
paths = (
{
closed = 1;
nodes = (
"522 -176 CURVE SMOOTH",
"993 -176 OFFCURVE",
"1544 162 OFFCURVE",
"1544 510 CURVE SMOOTH",
"1544 693 OFFCURVE",
"1440 843 OFFCURVE",
"1132 907 CURVE",
"1617 971 OFFCURVE",
"1740 1212 OFFCURVE",
"1740 1420 CURVE SMOOTH",
"1740 1705 OFFCURVE",
"1436 1979 OFFCURVE",
"908 1979 CURVE SMOOTH",
"482 1979 OFFCURVE",
"239 1822 OFFCURVE",
"68 1655 CURVE SMOOTH",
"12 1600 OFFCURVE",
"96 1478 OFFCURVE",
"203 1573 CURVE SMOOTH",
"374 1724 OFFCURVE",
"570 1835 OFFCURVE",
"918 1835 CURVE SMOOTH",
"1296 1835 OFFCURVE",
"1537 1643 OFFCURVE",
"1537 1440 CURVE SMOOTH",
"1537 1281 OFFCURVE",
"1340 992 OFFCURVE",
"900 997 CURVE SMOOTH",
"814 998 LINE SMOOTH",
"756 999 OFFCURVE",
"732 971 OFFCURVE",
"732 938 CURVE SMOOTH",
"731 777 OFFCURVE",
"1356 890 OFFCURVE",
"1356 495 CURVE SMOOTH",
"1356 232 OFFCURVE",
"942 -56 OFFCURVE",
"515 -56 CURVE SMOOTH",
"400 -56 OFFCURVE",
"400 2 OFFCURVE",
"400 62 CURVE SMOOTH",
"400 460 OFFCURVE",
"474 1210 OFFCURVE",
"646 1475 CURVE",
"623 1504 OFFCURVE",
"599 1516 OFFCURVE",
"572 1516 CURVE SMOOTH",
"259 1516 OFFCURVE",
"192 349 OFFCURVE",
"192 -36 CURVE SMOOTH",
"192 -120 OFFCURVE",
"310 -176 OFFCURVE"
);
}
);
width = 1628;
},
{
anchors = (
{
name = top;
position = "{821, 2030}";
}
);
layerId = "5ACEE878-7952-4CAC-A6A7-BEDE971843B4";
name = Regular;
paths = (
{
closed = 1;
nodes = (
"4 -205 OFFCURVE",
"158 -271 OFFCURVE",
"401 -271 CURVE SMOOTH",
"928 -271 OFFCURVE",
"1475 92.1516 OFFCURVE",
"1475 473 CURVE SMOOTH",
"1475 680.973 OFFCURVE",
"1270 831 OFFCURVE",
"1053 853 CURVE",
"1052.65 859.957 LINE",
"1457.09 895.819 OFFCURVE",
"1643.99 1144.48 OFFCURVE",
"1669.04 1329.48 CURVE SMOOTH",
"1709.78 1632.14 OFFCURVE",
"1411 1946 OFFCURVE",
"818 1946 CURVE SMOOTH",
"341 1946 OFFCURVE",
"69 1774 OFFCURVE",
"-118 1600 CURVE SMOOTH",
"-204 1519 OFFCURVE",
"-74 1337 OFFCURVE",
"82 1470 CURVE SMOOTH",
"265 1627 OFFCURVE",
"465 1735 OFFCURVE",
"829 1735 CURVE SMOOTH",
"1212 1735 OFFCURVE",
"1360 1549.46 OFFCURVE",
"1360 1355 CURVE SMOOTH",
"1360 1201.73 OFFCURVE",
"1253 944 OFFCURVE",
"809 950 CURVE SMOOTH",
"717 951 LINE SMOOTH",
"644 952 OFFCURVE",
"588 936 OFFCURVE",
"588 876 CURVE SMOOTH",
"587 717 OFFCURVE",
"1193 843.828 OFFCURVE",
"1193 457 CURVE SMOOTH",
"1193 203.35 OFFCURVE",
"832 -85 OFFCURVE",
"393 -85 CURVE SMOOTH",
"306 -85 OFFCURVE",
"308 -57 OFFCURVE",
"308 7 CURVE SMOOTH",
"308 429 OFFCURVE",
"390 1138 OFFCURVE",
"579 1391 CURVE",
"547 1439 OFFCURVE",
"506 1464 OFFCURVE",
"455 1464 CURVE SMOOTH",
"69 1464 OFFCURVE",
"4 314 OFFCURVE",
"4 -95 CURVE SMOOTH"
);
}
);
width = 1642;
}
);
unicode = 0042;
userData = {
com.typemytype.robofont.layerData = {
};
};
},
{
glyphname = C;
lastChange = "2014-01-04 15:27:21 -0800";
layers = (
{
anchors = (
{
name = bot;
position = "{824, 0}";
},
{
name = top;
position = "{824, 1940}";
}
);
layerId = "DE4BB00D-BABA-4D36-9D9A-44FD0E91C3DF";
name = Light;
paths = (
{
closed = 1;
nodes = (
"775 -272 CURVE SMOOTH",
"1188 -272 OFFCURVE",
"1539 -36 OFFCURVE",
"1690 268 CURVE SMOOTH",
"1698 284 OFFCURVE",
"1697 307 OFFCURVE",
"1676 323 CURVE SMOOTH",
"1669 328 OFFCURVE",
"1659 333 OFFCURVE",
"1649 333 CURVE SMOOTH",
"1641 333 OFFCURVE",
"1633 328 OFFCURVE",
"1630 325 CURVE",
"1428 79 OFFCURVE",
"1209 -128 OFFCURVE",
"838 -128 CURVE SMOOTH",
"493 -128 OFFCURVE",
"319 84 OFFCURVE",
"322 502 CURVE SMOOTH",
"322 1015 OFFCURVE",
"678 1704 OFFCURVE",
"1197 1704 CURVE SMOOTH",
"1364 1704 OFFCURVE",
"1451 1595 OFFCURVE",
"1451 1431 CURVE SMOOTH",
"1451 1200 OFFCURVE",
"1274 953 OFFCURVE",
"1045 953 CURVE SMOOTH",
"969 953 OFFCURVE",
"903 950 OFFCURVE",
"903 888 CURVE SMOOTH",
"903 831 OFFCURVE",
"948 826 OFFCURVE",
"1049 826 CURVE SMOOTH",
"1331.62 826 OFFCURVE",
"1595 1156 OFFCURVE",
"1595 1450 CURVE SMOOTH",
"1595 1682 OFFCURVE",
"1447 1839 OFFCURVE",
"1222 1839 CURVE SMOOTH",
"592 1839 OFFCURVE",
"145 1118 OFFCURVE",
"134 481 CURVE SMOOTH",
"125 -71 OFFCURVE",
"426 -272 OFFCURVE"
);
}
);
width = 1648;
},
{
anchors = (
{
name = bot;
position = "{824, 0}";
},
{
name = top;
position = "{824, 2030}";
}
);
layerId = "5ACEE878-7952-4CAC-A6A7-BEDE971843B4";
name = Regular;
paths = (
{
closed = 1;
nodes = (
"775 -275 CURVE SMOOTH",
"1153 -275 OFFCURVE",
"1593 -14 OFFCURVE",
"1707 331 CURVE SMOOTH",
"1709 337 OFFCURVE",
"1710 342 OFFCURVE",
"1710 347 CURVE SMOOTH",
"1710 383 OFFCURVE",
"1668 405 OFFCURVE",
"1639 405 CURVE SMOOTH",
"1626 405 OFFCURVE",
"1614 402 OFFCURVE",
"1604 393 CURVE",
"1391 185 OFFCURVE",
"1191 -51 OFFCURVE",
"838 -51 CURVE SMOOTH",
"588 -51 OFFCURVE",
"429 142 OFFCURVE",
"432 502 CURVE SMOOTH",
"436 952 OFFCURVE",
"739 1618 OFFCURVE",
"1176 1618 CURVE SMOOTH",
"1320 1618 OFFCURVE",
"1400 1536 OFFCURVE",
"1400 1394 CURVE SMOOTH",
"1400 1184 OFFCURVE",
"1238 996.999 OFFCURVE",
"1033 996.999 CURVE SMOOTH",
"932 996.999 OFFCURVE",
"863 985.999 OFFCURVE",
"863 907 CURVE SMOOTH",
"863 795 OFFCURVE",
"923 786 OFFCURVE",
"1049 786 CURVE SMOOTH",
"1356 786 OFFCURVE",
"1624 1099 OFFCURVE",
"1624 1413 CURVE SMOOTH",
"1624 1667 OFFCURVE",
"1459 1842 OFFCURVE",
"1211 1842 CURVE SMOOTH",
"603 1842 OFFCURVE",
"155 1136 OFFCURVE",
"144 482 CURVE SMOOTH",
"135 -61 OFFCURVE",
"458 -275 OFFCURVE"
);
}
);
width = 1648;
}
);
unicode = 0043;
userData = {
com.typemytype.robofont.layerData = {
};
};
},
{
glyphname = D;
lastChange = "2014-01-05 23:05:34 -0800";
layers = (
{
anchors = (
{
name = bot;
position = "{817, 0}";
},
{
name = top;
position = "{817, 1940}";
}
);
layerId = "DE4BB00D-BABA-4D36-9D9A-44FD0E91C3DF";
name = Light;
paths = (
{
closed = 1;
nodes = (
"504 -113 CURVE SMOOTH",
"1089 -92 OFFCURVE",
"1596 351 OFFCURVE",
"1611 1018 CURVE SMOOTH",
"1622 1523 OFFCURVE",
"1197 1800 OFFCURVE",
"706 1800 CURVE SMOOTH",
"445 1800 OFFCURVE",
"228 1715 OFFCURVE",
"78 1548 CURVE SMOOTH",
"28 1493 OFFCURVE",
"-25 1409 OFFCURVE",
"-28 1328 CURVE SMOOTH",
"-31 1298 OFFCURVE",
"-11 1268 OFFCURVE",
"12 1268 CURVE SMOOTH",
"73 1268 OFFCURVE",
"66 1338 OFFCURVE",
"190 1462 CURVE SMOOTH",
"338 1611 OFFCURVE",
"532 1651 OFFCURVE",
"669 1651 CURVE SMOOTH",
"1164 1651 OFFCURVE",
"1442 1387 OFFCURVE",
"1446 999 CURVE SMOOTH",
"1452 527 OFFCURVE",
"1065 -2 OFFCURVE",
"487 -2 CURVE SMOOTH",
"364 -2 OFFCURVE",
"349 -2 OFFCURVE",
"353 49 CURVE SMOOTH",
"372 406 OFFCURVE",
"497 1189 OFFCURVE",
"672 1431 CURVE",
"651 1460 OFFCURVE",
"628 1472 OFFCURVE",
"601 1472 CURVE SMOOTH",
"572 1472 OFFCURVE",
"538 1461 OFFCURVE",
"499 1435 CURVE",
"290 1145 OFFCURVE",
"205 456 OFFCURVE",
"179 -36 CURVE SMOOTH",
"177 -63 OFFCURVE",
"176 -63 OFFCURVE",
"192 -69 CURVE SMOOTH",
"252 -92 OFFCURVE",
"375 -118 OFFCURVE"
);
}
);
width = 1634;
},
{
anchors = (
{
name = bot;
position = "{755, 0}";
},
{
name = top;
position = "{791, 2030}";
}
);
layerId = "5ACEE878-7952-4CAC-A6A7-BEDE971843B4";
name = Regular;
paths = (
{
closed = 1;
nodes = (
"513 -139 CURVE SMOOTH",
"947 -139 OFFCURVE",
"1556 240 OFFCURVE",
"1570 1038 CURVE SMOOTH",
"1578 1538 OFFCURVE",
"1142 1796 OFFCURVE",
"594 1806 CURVE SMOOTH",
"322 1811 OFFCURVE",
"134 1715 OFFCURVE",
"-16 1540 CURVE SMOOTH",
"-32 1521 OFFCURVE",
"-108 1392 OFFCURVE",
"-110 1299 CURVE SMOOTH",
"-111 1257 OFFCURVE",
"-91 1204 OFFCURVE",
"-37 1204 CURVE SMOOTH",
"27 1204 OFFCURVE",
"105 1345 OFFCURVE",
"158 1400 CURVE SMOOTH",
"292 1540 OFFCURVE",
"468 1580 OFFCURVE",
"601 1577 CURVE SMOOTH",
"998 1567 OFFCURVE",
"1331 1346 OFFCURVE",
"1325 1019 CURVE SMOOTH",
"1318 586 OFFCURVE",
"983 49 OFFCURVE",
"484 49 CURVE SMOOTH",
"395 49 OFFCURVE",
"389 90 OFFCURVE",
"391 179 CURVE SMOOTH",
"397 545 OFFCURVE",
"488 1110 OFFCURVE",
"660 1336 CURVE",
"628 1391 OFFCURVE",
"588 1418 OFFCURVE",
"539 1418 CURVE SMOOTH",
"500 1418 OFFCURVE",
"457 1402 OFFCURVE",
"409 1369 CURVE",
"201 1071 OFFCURVE",
"136 511 OFFCURVE",
"128 14 CURVE SMOOTH",
"127 -28 OFFCURVE",
"135 -41 OFFCURVE",
"165 -55 CURVE SMOOTH",
"257 -98 OFFCURVE",
"377 -139 OFFCURVE"
);
}
);
width = 1574;
}
);
unicode = 0044;
userData = {
com.typemytype.robofont.layerData = {
};
};
},
{
glyphname = E;
lastChange = "2014-01-05 04:23:33 -0800";
layers = (
{
anchors = (
{
name = bot;
position = "{709.5, 0}";
},
{
name = ogonek;
position = "{0, 0}";
},
{
name = top;
position = "{709.5, 1940}";
}
);
background = {
paths = (
{
closed = 1;
nodes = (
"7 -130 OFFCURVE",
"286 -280 OFFCURVE",
"624 -280 CURVE",
"1001 -280 OFFCURVE",
"1446 -94 OFFCURVE",
"1654 226 CURVE",
"1666 245 OFFCURVE",
"1672 265 OFFCURVE",
"1672 282 CURVE",
"1672 322 OFFCURVE",
"1645 345 OFFCURVE",
"1615 345 CURVE",
"1598 345 OFFCURVE",
"1572 335 OFFCURVE",
"1552 304 CURVE",
"1380 50 OFFCURVE",
"982 -120 OFFCURVE",
"666 -120 CURVE",
"414 -120 OFFCURVE",
"211 -13 OFFCURVE",
"211 237 CURVE",
"211 478 OFFCURVE",
"525 756 OFFCURVE",
"888 756 CURVE",
"966 756 OFFCURVE",
"1004 803 OFFCURVE",
"1004 851 CURVE",
"1004 886 OFFCURVE",
"984 916 OFFCURVE",
"947 924 CURVE",
"621 998 OFFCURVE",
"459 1223 OFFCURVE",
"459 1430 CURVE",
"459 1706 OFFCURVE",
"745 1858 OFFCURVE",
"1028 1858 CURVE",
"1193 1858 OFFCURVE",
"1358 1807 OFFCURVE",
"1464 1702 CURVE",
"1424 1623 OFFCURVE",
"1374 1550 OFFCURVE",
"1374 1468 CURVE",
"1374 1423 OFFCURVE",
"1400 1399 OFFCURVE",
"1483 1399 CURVE",
"1546 1399 OFFCURVE",
"1645 1468 OFFCURVE",
"1636 1626 CURVE",
"1616 1865 OFFCURVE",
"1319 1996 OFFCURVE",
"1004 1996 CURVE",
"644 1996 OFFCURVE",
"266 1823 OFFCURVE",
"266 1431 CURVE",
"266 1221 OFFCURVE",
"388 1004 OFFCURVE",
"659 874 CURVE",
"362 836 OFFCURVE",
"7 512 OFFCURVE",
"7 213 CURVE"
);
}
);
};
layerId = "DE4BB00D-BABA-4D36-9D9A-44FD0E91C3DF";
name = Light;
paths = (
{
closed = 1;
nodes = (
"7 -130 OFFCURVE",
"286 -280 OFFCURVE",
"624 -280 CURVE SMOOTH",
"1001 -280 OFFCURVE",
"1446 -94 OFFCURVE",
"1654 226 CURVE SMOOTH",
"1666 245 OFFCURVE",
"1672 265 OFFCURVE",
"1672 282 CURVE SMOOTH",
"1672 322 OFFCURVE",
"1645 345 OFFCURVE",
"1615 345 CURVE SMOOTH",
"1598 345 OFFCURVE",
"1572 335 OFFCURVE",
"1552 304 CURVE SMOOTH",
"1380 50 OFFCURVE",
"982 -120 OFFCURVE",
"666 -120 CURVE SMOOTH",
"414 -120 OFFCURVE",
"211 -13 OFFCURVE",
"211 237 CURVE SMOOTH",
"211 478 OFFCURVE",
"525 756 OFFCURVE",
"888 756 CURVE SMOOTH",
"966 756 OFFCURVE",
"1004 803 OFFCURVE",
"1004 851 CURVE SMOOTH",
"1004 886 OFFCURVE",
"984 916 OFFCURVE",
"947 924 CURVE SMOOTH",
"621 998 OFFCURVE",
"459 1223 OFFCURVE",
"459 1430 CURVE SMOOTH",
"459 1706 OFFCURVE",
"745 1858 OFFCURVE",
"1028 1858 CURVE SMOOTH",
"1193 1858 OFFCURVE",
"1358 1807 OFFCURVE",
"1464 1702 CURVE",
"1424 1623 OFFCURVE",
"1374 1550 OFFCURVE",
"1374 1468 CURVE SMOOTH",
"1374 1423 OFFCURVE",
"1400 1399 OFFCURVE",
"1483 1399 CURVE SMOOTH",
"1546 1399 OFFCURVE",
"1645 1468 OFFCURVE",
"1636 1626 CURVE SMOOTH",
"1616 1865 OFFCURVE",
"1319 1996 OFFCURVE",
"1004 1996 CURVE SMOOTH",
"644 1996 OFFCURVE",
"266 1823 OFFCURVE",
"266 1431 CURVE SMOOTH",
"266 1221 OFFCURVE",
"388 1004 OFFCURVE",
"659 874 CURVE",
"362 836 OFFCURVE",
"7 512 OFFCURVE",
"7 213 CURVE SMOOTH"
);
}
);
width = 1419;
},
{
anchors = (
{
name = bot;
position = "{809, 0}";
},
{
name = ogonek;
position = "{0, 0}";
},
{
name = top;
position = "{809, 2030}";
}
);
layerId = "5ACEE878-7952-4CAC-A6A7-BEDE971843B4";
name = Regular;
paths = (
{
closed = 1;
nodes = (
"119 -131 OFFCURVE",
"318 -303 OFFCURVE",
"740 -303 CURVE SMOOTH",
"1130 -303 OFFCURVE",
"1686 -57 OFFCURVE",
"1900 210 CURVE SMOOTH",
"1919 233 OFFCURVE",
"1927 260 OFFCURVE",
"1927 287 CURVE SMOOTH",
"1927 349 OFFCURVE",
"1885 408 OFFCURVE",
"1831 408 CURVE SMOOTH",
"1806 408 OFFCURVE",
"1778 394 OFFCURVE",
"1749 361 CURVE SMOOTH",
"1566 141 OFFCURVE",
"1086 -62 OFFCURVE",
"749 -62 CURVE SMOOTH",
"466 -62 OFFCURVE",
"417 125 OFFCURVE",
"417 265 CURVE SMOOTH",
"417 533 OFFCURVE",
"716 774 OFFCURVE",
"1057 774 CURVE SMOOTH",
"1166 774 OFFCURVE",
"1219 845 OFFCURVE",
"1219 912 CURVE SMOOTH",
"1219 963 OFFCURVE",
"1188 1012 OFFCURVE",
"1127 1025 CURVE SMOOTH",
"792 1099 OFFCURVE",
"653 1209 OFFCURVE",
"653 1450 CURVE SMOOTH",
"653 1717 OFFCURVE",
"932 1861 OFFCURVE",
"1202 1861 CURVE SMOOTH",
"1347 1861 OFFCURVE",
"1489 1819 OFFCURVE",
"1583 1733 CURVE",
"1503 1545 LINE SMOOTH",
"1489 1512 OFFCURVE",
"1482 1485 OFFCURVE",
"1482 1464 CURVE SMOOTH",
"1482 1425 OFFCURVE",
"1507 1407 OFFCURVE",
"1565 1407 CURVE SMOOTH",
"1628 1407 OFFCURVE",
"1812 1420 OFFCURVE",
"1812 1647 CURVE SMOOTH",
"1812 1925 OFFCURVE",
"1532 2060 OFFCURVE",
"1219 2060 CURVE SMOOTH",
"820 2060 OFFCURVE",
"367 1842 OFFCURVE",
"367 1428 CURVE SMOOTH",
"367 1125 OFFCURVE",
"503 986 OFFCURVE",
"884 935 CURVE",
"486 925 OFFCURVE",
"119 588 OFFCURVE",
"119 233 CURVE SMOOTH"
);
}
);
width = 1618;
}
);
unicode = 0045;
userData = {
com.typemytype.robofont.layerData = {
};
};
},
{
glyphname = F;
lastChange = "2014-01-04 15:27:21 -0800";
layers = (
{
anchors = (
{
name = bot;
position = "{644, 0}";
},
{
name = top;
position = "{644, 1940}";
}
);
layerId = "DE4BB00D-BABA-4D36-9D9A-44FD0E91C3DF";
name = Light;
paths = (
{
closed = 1;
nodes = (
"414 -198 CURVE SMOOTH",
"773 -198 OFFCURVE",
"885 155 OFFCURVE",
"1012 790 CURVE",
"1155 790 OFFCURVE",
"1253 792 OFFCURVE",
"1319 812 CURVE SMOOTH",
"1339 818 OFFCURVE",
"1361 839 OFFCURVE",
"1361 864 CURVE SMOOTH",
"1361 883 OFFCURVE",
"1357 906 OFFCURVE",
"1307 916 CURVE SMOOTH",
"1259 926 OFFCURVE",
"1159 920 OFFCURVE",
"1032 920 CURVE",
"1043 982 OFFCURVE",
"1161 1657 OFFCURVE",
"1202 1859 CURVE",
"1348.49 1880.7 OFFCURVE",
"1665.18 1869.32 OFFCURVE",
"1909 1838 CURVE",
"1987 1832 OFFCURVE",
"2022 1858 OFFCURVE",
"2022 1918 CURVE",
"2018 2010 OFFCURVE",
"1472 2018 OFFCURVE",
"1310 2018 CURVE SMOOTH",
"614 2018 OFFCURVE",
"-298 1687 OFFCURVE",
"231 813 CURVE",
"278 757 OFFCURVE",
"435 726 OFFCURVE",
"360 843 CURVE SMOOTH",
"-79 1527 OFFCURVE",
"517 1779 OFFCURVE",
"1050 1859 CURVE",
"1001 1609 OFFCURVE",
"949 1246 OFFCURVE",
"886 916 CURVE",
"698 911 OFFCURVE",
"632 887 OFFCURVE",
"632 844 CURVE SMOOTH",
"632 810.225 OFFCURVE",
"656.223 796.167 OFFCURVE",
"735.956 789.986 CURVE SMOOTH",
"762.456 787.932 OFFCURVE",
"827 787 OFFCURVE",
"867 786 CURVE",
"830 611 OFFCURVE",
"772 -74 OFFCURVE",
"434 -74 CURVE SMOOTH",
"254 -74 OFFCURVE",
"309 17 OFFCURVE",
"210 17 CURVE SMOOTH",
"173 17 OFFCURVE",
"140 -20 OFFCURVE",
"140 -69 CURVE SMOOTH",
"140 -168 OFFCURVE",
"301 -198 OFFCURVE"
);
}
);
width = 1288;
},
{
anchors = (
{
name = bot;
position = "{688, 0}";
},
{
name = top;
position = "{688, 2030}";
}
);
layerId = "5ACEE878-7952-4CAC-A6A7-BEDE971843B4";
name = Regular;
paths = (
{
closed = 1;
nodes = (
"293 -198 CURVE SMOOTH",
"768 -198 OFFCURVE",
"822 194 OFFCURVE",
"982.999 749 CURVE",
"1099 749 OFFCURVE",
"1230 768 OFFCURVE",
"1344 768 CURVE SMOOTH",
"1385 768 OFFCURVE",
"1408 815 OFFCURVE",
"1408 864 CURVE SMOOTH",
"1408 918 OFFCURVE",
"1400 960 OFFCURVE",
"1344 960 CURVE SMOOTH",
"1023 960 LINE",
"1123 1341 OFFCURVE",
"1165 1592 OFFCURVE",
"1199 1794 CURVE",
"1476 1824 OFFCURVE",
"1707 1788 OFFCURVE",
"2030 1758 CURVE SMOOTH",
"2093 1752 OFFCURVE",
"2125 1816 OFFCURVE",
"2125 1878 CURVE SMOOTH",
"2125 2046 OFFCURVE",
"1466 2018 OFFCURVE",
"1293 2018 CURVE SMOOTH",
"160 2018 OFFCURVE",
"-196 1264 OFFCURVE",
"114 816 CURVE SMOOTH",
"181 719 OFFCURVE",
"449 728 OFFCURVE",
"385 812 CURVE SMOOTH",
"97 1191 OFFCURVE",
"341 1694 OFFCURVE",
"984 1774 CURVE",
"948 1644 OFFCURVE",
"837 1191 OFFCURVE",
"771 942 CURVE",
"703 933 OFFCURVE",
"556 919 OFFCURVE",
"556 832 CURVE SMOOTH",
"556 771 OFFCURVE",
"620 749 OFFCURVE",
"681 749 CURVE SMOOTH",
"724 749 LINE",
"614 309 OFFCURVE",
"572 26 OFFCURVE",
"397 26 CURVE SMOOTH",
"277 26 OFFCURVE",
"202 97 OFFCURVE",
"89 97 CURVE SMOOTH",
"23 97 OFFCURVE",
"-21 18 OFFCURVE",
"-21 -47 CURVE SMOOTH",
"-21 -164 OFFCURVE",
"173 -198 OFFCURVE"
);
}
);
width = 1376;
}
);
unicode = 0046;
userData = {
com.typemytype.robofont.layerData = {
};
};
},
{
glyphname = G;
lastChange = "2014-01-04 15:27:21 -0800";
layers = (
{
anchors = (
{
name = bot;
position = "{1063.5, 0}";
},
{
name = top;
position = "{1063.5, 1940}";
}
);
layerId = "DE4BB00D-BABA-4D36-9D9A-44FD0E91C3DF";
name = Light;
paths = (
{
closed = 1;
nodes = (
"884 -909 CURVE SMOOTH",
"1471 -1129 OFFCURVE",
"1795 -709 OFFCURVE",
"2012 356 CURVE SMOOTH",
"2058 582 OFFCURVE",
"2041 602 OFFCURVE",
"1679 602 CURVE SMOOTH",
"1601 602 OFFCURVE",
"1542 577 OFFCURVE",
"1542 522 CURVE SMOOTH",
"1542 470 OFFCURVE",
"1575 456 OFFCURVE",
"1672 456 CURVE SMOOTH",
"1872 456 OFFCURVE",
"1886 437 OFFCURVE",
"1873 380 CURVE SMOOTH",
"1855 300 LINE",
"1460 -72 OFFCURVE",
"414 -300 OFFCURVE",
"433 588 CURVE SMOOTH",
"459 1782 OFFCURVE",
"1828 2127 OFFCURVE",
"1828 1511 CURVE SMOOTH",
"1828 1405 OFFCURVE",
"1866 1386 OFFCURVE",
"1923 1386 CURVE SMOOTH",
"1987 1386 OFFCURVE",
"2023 1412 OFFCURVE",
"2023 1502 CURVE SMOOTH",
"2023 2402 OFFCURVE",
"244 1985 OFFCURVE",
"244 558 CURVE SMOOTH",
"244 -540 OFFCURVE",
"1571 -141 OFFCURVE",
"1815 115 CURVE",
"1573 -910 OFFCURVE",
"1258 -904 OFFCURVE",
"917 -751 CURVE",
"831 -720 OFFCURVE",
"725 -850 OFFCURVE"
);
}
);
width = 2127;
},
{
anchors = (
{
name = bot;
position = "{1038.5, 0}";
},
{
name = top;
position = "{1038.5, 2030}";
}
);
layerId = "5ACEE878-7952-4CAC-A6A7-BEDE971843B4";
name = Regular;
paths = (
{
closed = 1;
nodes = (
"844 -909 CURVE SMOOTH",
"1463 -1141 OFFCURVE",
"1811 -738 OFFCURVE",
"2011 349 CURVE SMOOTH",
"2056 592 OFFCURVE",
"1993 642 OFFCURVE",
"1639 642 CURVE SMOOTH",
"1549 642 OFFCURVE",
"1462 608 OFFCURVE",
"1462 522 CURVE SMOOTH",
"1462 437 OFFCURVE",
"1524 416 OFFCURVE",
"1632 416 CURVE SMOOTH",
"1768 416 OFFCURVE",
"1791 406 OFFCURVE",
"1776 339 CURVE SMOOTH",
"1757 255 LINE",
"1167 -41 OFFCURVE",
"455 -82 OFFCURVE",
"455 590 CURVE SMOOTH",
"455 1698 OFFCURVE",
"1745 2000 OFFCURVE",
"1745 1511 CURVE SMOOTH",
"1745 1370 OFFCURVE",
"1813 1353 OFFCURVE",
"1882 1353 CURVE SMOOTH",
"1962 1353 OFFCURVE",
"2026 1383 OFFCURVE",
"2026 1502 CURVE SMOOTH",
"2026 2411 OFFCURVE",
"141 1975 OFFCURVE",
"164 558 CURVE SMOOTH",
"181 -492 OFFCURVE",
"1551 -157 OFFCURVE",
"1725 79 CURVE",
"1506 -718 OFFCURVE",
"1282 -776 OFFCURVE",
"905 -641 CURVE SMOOTH",
"778 -595 OFFCURVE",
"627 -829 OFFCURVE"
);
}
);
width = 2077;
}
);
unicode = 0047;
userData = {
com.typemytype.robofont.layerData = {
};
};
},
{
glyphname = H;
lastChange = "2014-01-06 06:23:46 -0800";
layers = (
{
anchors = (
{
name = bot;
position = "{991.5, 0}";
},
{
name = top;
position = "{991.5, 1940}";
}
);
background = {
paths = (
{
closed = 1;
nodes = (
"1969 1684 OFFCURVE",
"1983 1712 OFFCURVE",
"1983 1754 CURVE",
"1984 1801 OFFCURVE",
"1949 1839 OFFCURVE",
"1913 1834 CURVE",
"1509 1834 OFFCURVE",
"854 1882 OFFCURVE",
"499 1882 CURVE SMOOTH",
"-111 1882 OFFCURVE",
"-366 1595 OFFCURVE",
"-366 1274 CURVE SMOOTH",
"-366 1215 OFFCURVE",
"-270 1195 OFFCURVE",
"-256 1246 CURVE SMOOTH",
"-180 1531 OFFCURVE",
"-86 1734 OFFCURVE",
"491 1734 CURVE",
"697 1734 OFFCURVE",
"1268 1684 OFFCURVE",
"1769 1684 CURVE"
);
}
);
};
layerId = "DE4BB00D-BABA-4D36-9D9A-44FD0E91C3DF";
name = Light;
paths = (
{
closed = 1;
nodes = (
"2052 -175 CURVE SMOOTH",
"2088 -143 OFFCURVE",
"1986 -79 OFFCURVE",
"1962 -102 CURVE SMOOTH",
"1825 -234 OFFCURVE",
"1124 -467 OFFCURVE",
"1327 353 CURVE SMOOTH",
"1565 1314 LINE SMOOTH",
"1701 1861 OFFCURVE",
"2209 1860 OFFCURVE",
"2226 1594 CURVE SMOOTH",
"2255 1142 OFFCURVE",
"1135 678 OFFCURVE",
"204 826 CURVE SMOOTH",
"129 838 OFFCURVE",
"84 694 OFFCURVE",
"168 684 CURVE SMOOTH",
"1236 561 OFFCURVE",
"2408 1031 OFFCURVE",
"2376 1599 CURVE SMOOTH",
"2351 2044 OFFCURVE",
"1579 2064 OFFCURVE",
"1403 1314 CURVE SMOOTH",
"1172 330 LINE SMOOTH",
"990 -446 OFFCURVE",
"1700 -483 OFFCURVE"
);
},
{
closed = 1;
nodes = (
"85 -303 CURVE SMOOTH",
"171 -318 OFFCURVE",
"196 -265 OFFCURVE",
"234 -148 CURVE SMOOTH",
"682 1134 LINE SMOOTH",
"815 1556 OFFCURVE",
"742 1794 OFFCURVE",
"465 1880 CURVE SMOOTH",
"110 1990 OFFCURVE",
"-367 1758 OFFCURVE",
"-367 1277 CURVE SMOOTH",
"-367 1199 OFFCURVE",
"-258 1209 OFFCURVE",
"-256 1242 CURVE SMOOTH",
"-242 1516 OFFCURVE",
"23 1851 OFFCURVE",
"395 1755 CURVE SMOOTH",
"620 1697 OFFCURVE",
"667 1540 OFFCURVE",
"484 1046 CURVE SMOOTH",
"75 -97 LINE SMOOTH",
"12 -268 OFFCURVE",
"38 -295 OFFCURVE"
);
}
);
width = 1983;
},
{
anchors = (
{
name = bot;
position = "{1074, 0}";
},
{
name = top;
position = "{1074, 2030}";
}
);
layerId = "5ACEE878-7952-4CAC-A6A7-BEDE971843B4";
name = Regular;
paths = (
{
closed = 1;
nodes = (
"2126 -208 CURVE SMOOTH",
"2205 -153 OFFCURVE",
"2124 3 OFFCURVE",
"2047 -29 CURVE SMOOTH",
"1779 -139 OFFCURVE",
"1270 -436 OFFCURVE",
"1466 380 CURVE SMOOTH",
"1649 1140 LINE SMOOTH",
"1795 1744 OFFCURVE",
"2277 1770 OFFCURVE",
"2234 1457 CURVE SMOOTH",
"2187 1118 OFFCURVE",
"1715 651 OFFCURVE",
"273 828 CURVE SMOOTH",
"156 842 OFFCURVE",
"78 653 OFFCURVE",
"225 634 CURVE SMOOTH",
"1868 427 OFFCURVE",
"2441 1051 OFFCURVE",
"2471 1480 CURVE SMOOTH",
"2504 1946 OFFCURVE",
"1687 2138 OFFCURVE",
"1434 1177 CURVE SMOOTH",
"1215 344 LINE SMOOTH",
"990.999 -509 OFFCURVE",
"1638 -547 OFFCURVE"
);
},
{
closed = 1;
nodes = (
"226 -306 CURVE SMOOTH",
"345 -326 OFFCURVE",
"380 -244 OFFCURVE",
"419 -124 CURVE SMOOTH",
"805 1076 LINE SMOOTH",
"941 1497 OFFCURVE",
"891 1767 OFFCURVE",
"584 1892 CURVE SMOOTH",
"207 2045 OFFCURVE",
"-314 1851 OFFCURVE",
"-397 1281 CURVE SMOOTH",
"-420 1126 OFFCURVE",
"-222 1079 OFFCURVE",
"-185 1277 CURVE SMOOTH",
"-102 1717 OFFCURVE",
"292 1818 OFFCURVE",
"510 1698 CURVE SMOOTH",
"639 1627 OFFCURVE",
"706 1484 OFFCURVE",
"532 1014 CURVE SMOOTH",
"150 -45 LINE SMOOTH",
"72 -257 OFFCURVE",
"157 -294 OFFCURVE"
);
}
);
width = 2148;
}
);
unicode = 0048;
userData = {
com.typemytype.robofont.layerData = {
};
};
},
{
glyphname = I;
lastChange = "2014-01-04 15:27:21 -0800";
layers = (
{
anchors = (
{
name = bot;
position = "{491, 0}";
},
{
name = ogonek;
position = "{0, 0}";
},
{
name = top;
position = "{491, 1940}";
}
);
layerId = "DE4BB00D-BABA-4D36-9D9A-44FD0E91C3DF";
name = Light;
paths = (
{
closed = 1;
nodes = (
"74 -68 CURVE SMOOTH",
"107 -79 OFFCURVE",
"635 -24 OFFCURVE",
"931 -12 CURVE SMOOTH",
"1032 -8 OFFCURVE",
"1037 96 OFFCURVE",
"1005 108 CURVE SMOOTH",
"945 131 OFFCURVE",
"778 106 OFFCURVE",
"570 107 CURVE",
"650 491 OFFCURVE",
"925 1384 OFFCURVE",
"1018 1713 CURVE",
"1120 1725 OFFCURVE",
"1415 1738 OFFCURVE",
"1508 1754 CURVE SMOOTH",
"1557 1762 OFFCURVE",
"1544 1872 OFFCURVE",
"1502 1871 CURVE",
"792 1959 OFFCURVE",
"515 1842 OFFCURVE",
"442 1805 CURVE SMOOTH",
"401 1784 OFFCURVE",
"422 1664 OFFCURVE",
"456 1670 CURVE SMOOTH",
"601 1696 OFFCURVE",
"814 1697 OFFCURVE",
"864 1704 CURVE",
"680 1219 OFFCURVE",
"518 624 OFFCURVE",
"403 102 CURVE",
"351 99 OFFCURVE",
"54 93 OFFCURVE",
"39 38 CURVE SMOOTH",
"23 -18 OFFCURVE",
"45 -58 OFFCURVE"
);
}
);
width = 982;
},
{
anchors = (
{
name = bot;
position = "{491, 0}";
},
{
name = ogonek;
position = "{0, 0}";
},
{
name = top;
position = "{491, 2030}";
}
);
layerId = "5ACEE878-7952-4CAC-A6A7-BEDE971843B4";
name = Regular;
paths = (
{
closed = 1;
nodes = (
"60 -86 CURVE SMOOTH",
"104 -101 OFFCURVE",
"568 -24 OFFCURVE",
"866 -12 CURVE SMOOTH",
"1005 -6 OFFCURVE",
"1010 143 OFFCURVE",
"950 166 CURVE SMOOTH",
"890 189 OFFCURVE",
"651 176 OFFCURVE",
"618 170 CURVE",
"650 515 OFFCURVE",
"982 1649 OFFCURVE",
"1028 1654 CURVE SMOOTH",
"1136 1667 OFFCURVE",
"1395 1662 OFFCURVE",
"1419 1724 CURVE SMOOTH",
"1450 1805 OFFCURVE",
"1464 1944 OFFCURVE",
"1384 1942 CURVE SMOOTH",
"1304 1940 OFFCURVE",
"570 1923 OFFCURVE",
"496 1916 CURVE SMOOTH",
"422 1909 OFFCURVE",
"393 1712 OFFCURVE",
"430 1671 CURVE SMOOTH",
"471 1625 OFFCURVE",
"706 1648 OFFCURVE",
"805 1648 CURVE",
"630 1264 OFFCURVE",
"465 662 OFFCURVE",
"391 161 CURVE",
"299 157 OFFCURVE",
"27 132 OFFCURVE",
"6 56 CURVE SMOOTH",
"-14 -15 OFFCURVE",
"16 -71 OFFCURVE"
);
}
);
width = 982;
}
);
unicode = 0049;
userData = {
com.typemytype.robofont.layerData = {
};
};
},
{
glyphname = J;
lastChange = "2014-01-05 23:10:53 -0800";
layers = (
{
anchors = (
{
name = bot;
position = "{703.5, 0}";
},
{
name = top;
position = "{703.5, 1940}";
}
);
layerId = "DE4BB00D-BABA-4D36-9D9A-44FD0E91C3DF";
name = Light;
paths = (
{
closed = 1;
nodes = (
"203 -210 OFFCURVE",
"275 -462 OFFCURVE",
"534 -432 CURVE SMOOTH",
"959 -382 OFFCURVE",
"1365 931 OFFCURVE",
"1465 1816 CURVE",
"1466 1820 OFFCURVE",
"1466 1824 OFFCURVE",
"1466 1831 CURVE SMOOTH",
"1466 1871 OFFCURVE",
"1453 1883 OFFCURVE",
"1420 1883 CURVE SMOOTH",
"1362 1883 OFFCURVE",
"1352 1876 OFFCURVE",
"1334 1781 CURVE SMOOTH",
"1262 1379 OFFCURVE",
"882 -291 OFFCURVE",
"473 -291 CURVE SMOOTH",
"323 -291 OFFCURVE",
"321 -61 OFFCURVE",
"301 89 CURVE SMOOTH",
"291 165 OFFCURVE",
"176 171 OFFCURVE",
"183 75 CURVE SMOOTH"
);
},
{
closed = 1;
nodes = (
"1957 1684 OFFCURVE",
"1971 1712 OFFCURVE",
"1971 1754 CURVE SMOOTH",
"1972 1801 OFFCURVE",
"1937 1839 OFFCURVE",
"1901 1834 CURVE",
"1497 1834 OFFCURVE",
"1054 1882 OFFCURVE",
"699 1882 CURVE SMOOTH",
"89 1882 OFFCURVE",
"-166 1595 OFFCURVE",
"-166 1274 CURVE SMOOTH",
"-166 1215 OFFCURVE",
"-70 1195 OFFCURVE",
"-56 1246 CURVE SMOOTH",
"20 1531 OFFCURVE",
"114 1734 OFFCURVE",
"691 1734 CURVE SMOOTH",
"897 1734 OFFCURVE",
"1256 1684 OFFCURVE",
"1757 1684 CURVE SMOOTH"
);
}
);
width = 1407;
},
{
anchors = (
{
name = bot;
position = "{741.5, 0}";
},
{
name = top;
position = "{741.5, 2030}";
}
);
layerId = "5ACEE878-7952-4CAC-A6A7-BEDE971843B4";
name = Regular;
paths = (
{
closed = 1;
nodes = (
"189 -187 OFFCURVE",
"289 -509 OFFCURVE",
"598 -509 CURVE SMOOTH",
"1068 -509 OFFCURVE",
"1364 738 OFFCURVE",
"1598 1675 CURVE SMOOTH",
"1611 1727 OFFCURVE",
"1589 1786 OFFCURVE",
"1492 1786 CURVE SMOOTH",
"1418 1786 OFFCURVE",
"1385 1767 OFFCURVE",
"1363 1651 CURVE SMOOTH",
"1293 1262 OFFCURVE",
"913 -259 OFFCURVE",
"560 -259 CURVE SMOOTH",
"403 -259 OFFCURVE",
"373 -16 OFFCURVE",
"355 251 CURVE SMOOTH",
"346 390 OFFCURVE",
"171 401 OFFCURVE",
"176 227 CURVE SMOOTH"
);
},
{
closed = 1;
nodes = (
"1892 1485 OFFCURVE",
"1716 1468 OFFCURVE",
"1904 1512 CURVE SMOOTH",
"1928 1517 OFFCURVE",
"2016 1734 OFFCURVE",
"1871 1734 CURVE SMOOTH",
"844 1734 OFFCURVE",
"-38 2031 OFFCURVE",
"-236 1209 CURVE SMOOTH",
"-263 1095 OFFCURVE",
"-100 1097 OFFCURVE",
"-74 1158 CURVE SMOOTH",
"6 1354 OFFCURVE",
"165 1525 OFFCURVE",
"906 1509 CURVE SMOOTH"
);
}
);
width = 1483;
}
);
unicode = 004A;
userData = {
com.typemytype.robofont.layerData = {
};
};
},
{
glyphname = K;
lastChange = "2014-01-04 15:27:21 -0800";
layers = (
{
anchors = (
{
name = bot;
position = "{821, 0}";
},
{
name = top;
position = "{821, 1940}";
}
);
layerId = "DE4BB00D-BABA-4D36-9D9A-44FD0E91C3DF";
name = Light;
paths = (
{
closed = 1;
nodes = (
"1790 -401 CURVE SMOOTH",
"1882 -401 OFFCURVE",
"2063 -365 OFFCURVE",
"2091 -305 CURVE",
"2110 -258 OFFCURVE",
"2080 -229 OFFCURVE",
"2062 -229 CURVE SMOOTH",
"2013 -229 OFFCURVE",
"1942 -265 OFFCURVE",
"1873 -265 CURVE",
"1485 -283 OFFCURVE",
"1433 -61 OFFCURVE",
"1012 916 CURVE",
"1536 1182 OFFCURVE",
"1889 1553 OFFCURVE",
"1969 1730 CURVE SMOOTH",
"2003 1809 OFFCURVE",
"2004 1870 OFFCURVE",
"1941 1870 CURVE SMOOTH",
"1894 1870 OFFCURVE",
"1869 1806 OFFCURVE",
"1794 1705 CURVE SMOOTH",
"1620 1472 OFFCURVE",
"1332 1226 OFFCURVE",
"923 998 CURVE",
"971 1302 OFFCURVE",
"972 1579 OFFCURVE",
"972 1840 CURVE SMOOTH",
"972 1881 OFFCURVE",
"946 1896 OFFCURVE",
"886 1896 CURVE SMOOTH",
"455 1896 OFFCURVE",
"-105 1699 OFFCURVE",
"-105 1088 CURVE SMOOTH",
"-105 1034 OFFCURVE",
"-67 1005 OFFCURVE",
"-19 1012 CURVE SMOOTH",
"41 1021 OFFCURVE",
"60 1042 OFFCURVE",
"60 1075 CURVE SMOOTH",
"60 1635 OFFCURVE",
"501 1795 OFFCURVE",
"833 1774 CURVE",
"763 270 OFFCURVE",
"509 -170 OFFCURVE",
"185 -170 CURVE SMOOTH",
"114 -170 OFFCURVE",
"34 -137 OFFCURVE",
"-3 -137 CURVE SMOOTH",
"-38 -137 OFFCURVE",
"-80 -183 OFFCURVE",
"-80 -226 CURVE SMOOTH",
"-80 -283 OFFCURVE",
"106 -303 OFFCURVE",
"190 -303 CURVE SMOOTH",
"630 -303 OFFCURVE",
"791 271 OFFCURVE",
"905 885 CURVE",
"1315 -58 OFFCURVE",
"1358 -401 OFFCURVE"
);
}
);
width = 1642;
},
{
anchors = (
{
name = bot;
position = "{895, 0}";
},
{
name = top;
position = "{895, 2030}";
}
);
layerId = "5ACEE878-7952-4CAC-A6A7-BEDE971843B4";
name = Regular;
paths = (
{
closed = 1;
nodes = (
"1755 -405 CURVE SMOOTH",
"1797 -405 OFFCURVE",
"2096 -383 OFFCURVE",
"2096 -278 CURVE SMOOTH",
"2096 -228 OFFCURVE",
"2080 -162 OFFCURVE",
"2027 -162 CURVE SMOOTH",
"1968 -162 OFFCURVE",
"1897 -198 OFFCURVE",
"1838 -198 CURVE SMOOTH",
"1512 -198 OFFCURVE",
"1343 265 OFFCURVE",
"1161 901 CURVE",
"1676 1126 OFFCURVE",
"2090 1594 OFFCURVE",
"2170 1771 CURVE SMOOTH",
"2209 1860 OFFCURVE",
"2215 1967 OFFCURVE",
"2106 1967 CURVE SMOOTH",
"2032 1967 OFFCURVE",
"1998 1883 OFFCURVE",
"1926 1786 CURVE SMOOTH",
"1766 1571 OFFCURVE",
"1309 1210 OFFCURVE",
"949 991.999 CURVE",
"993.999 1195 OFFCURVE",
"1001 1676 OFFCURVE",
"1001 1899 CURVE SMOOTH",
"1001 1969 OFFCURVE",
"947 2004 OFFCURVE",
"875 1995 CURVE SMOOTH",
"33 1895 OFFCURVE",
"-208 1480 OFFCURVE",
"-148 1057 CURVE SMOOTH",
"-137 977 OFFCURVE",
"-74 921 OFFCURVE",
"6 931 CURVE SMOOTH",
"106 943 OFFCURVE",
"144 980 OFFCURVE",
"140 1034 CURVE SMOOTH",
"120 1317 OFFCURVE",
"218 1620 OFFCURVE",
"747 1790 CURVE",
"767 1007 OFFCURVE",
"359 -80 OFFCURVE",
"-131 -170 CURVE SMOOTH",
"-188 -180 OFFCURVE",
"-232 -143 OFFCURVE",
"-279 -143 CURVE SMOOTH",
"-341 -143 OFFCURVE",
"-406 -241 OFFCURVE",
"-406 -303 CURVE SMOOTH",
"-406 -388 OFFCURVE",
"-189 -403 OFFCURVE",
"-96 -403 CURVE SMOOTH",
"347 -403 OFFCURVE",
"646 103 OFFCURVE",
"919 862 CURVE",
"1093 19 OFFCURVE",
"1311 -405 OFFCURVE"
);
}
);
width = 1790;
}
);
unicode = 004B;
userData = {
com.typemytype.robofont.layerData = {
};
};
},
{
glyphname = L;
lastChange = "2014-01-05 18:01:45 -0800";
layers = (
{
anchors = (
{
name = bot;
position = "{910, 111}";
},
{
name = top;
position = "{910, 2051}";
}
);
background = {
paths = (
{
closed = 1;
nodes = (
"1800 -534 OFFCURVE",
"2164 -864 OFFCURVE",
"2477 -583 CURVE",
"2594 -477 OFFCURVE",
"2625 -390 OFFCURVE",
"2637 -355 CURVE",
"2646 -324 OFFCURVE",
"2647 -311 OFFCURVE",
"2636 -300 CURVE",
"2625 -285 OFFCURVE",
"2591 -278 OFFCURVE",
"2577 -287 CURVE",
"2569 -292 OFFCURVE",
"2564 -300 OFFCURVE",
"2557 -311 CURVE",
"2520 -361 OFFCURVE",
"2489 -393 OFFCURVE",
"2445 -435 CURVE",
"2258 -603 OFFCURVE",
"1954 -517 OFFCURVE",
"1050 76 CURVE",
"1034 95 OFFCURVE",
"959 8 OFFCURVE",
"984 -15 CURVE"
);
},
{
closed = 1;
nodes = (
"2003 29 CURVE",
"2043 56 OFFCURVE",
"1994 151 OFFCURVE",
"1962 138 CURVE",
"1655 -24 OFFCURVE",
"1114 -295 OFFCURVE",
"1327 593 CURVE",
"1555 1494 LINE SMOOTH",
"1693 2039 OFFCURVE",
"2219 2120 OFFCURVE",
"2216 1774 CURVE SMOOTH",
"2212 1323 OFFCURVE",
"1475 1008 OFFCURVE",
"644 1156 CURVE",
"569 1168 OFFCURVE",
"523 1026 OFFCURVE",
"608 1014 CURVE",
"1576 891 OFFCURVE",
"2372 1211 OFFCURVE",
"2366 1779 CURVE SMOOTH",
"2361 2304 OFFCURVE",
"1571 2242 OFFCURVE",
"1393 1494 CURVE SMOOTH",
"1172 570 LINE",
"962 -230 OFFCURVE",
"1531 -299 OFFCURVE"
);
},
{
closed = 1;
nodes = (
"85 -63 CURVE",
"171 -78 OFFCURVE",
"196 -25 OFFCURVE",
"234 92 CURVE",
"682 1374 LINE",
"815 1796 OFFCURVE",
"784 2111 OFFCURVE",
"495 2138 CURVE",
"227 2173 OFFCURVE",
"67 2007 OFFCURVE",
"-12 1894 CURVE",
"-74 1804 OFFCURVE",
"30 1705 OFFCURVE",
"127 1819 CURVE",
"171 1869 OFFCURVE",
"300 1995 OFFCURVE",
"395 1995 CURVE",
"623 1995 OFFCURVE",
"667 1780 OFFCURVE",
"484 1286 CURVE",
"75 143 LINE",
"12 -28 OFFCURVE",
"38 -55 OFFCURVE"
);
}
);
};
layerId = "DE4BB00D-BABA-4D36-9D9A-44FD0E91C3DF";
name = Light;
paths = (
{
closed = 1;
nodes = (
"589 -219 CURVE SMOOTH",
"1307 -219 OFFCURVE",
"1377 464 OFFCURVE",
"1377 1145 CURVE SMOOTH",
"1377 1725 OFFCURVE",
"1587 1937 OFFCURVE",
"1925 1976 CURVE SMOOTH",
"2115 1998 OFFCURVE",
"2215 1893 OFFCURVE",
"2215 1744 CURVE SMOOTH",
"2214 1487 OFFCURVE",
"1810 1141 OFFCURVE",
"827 1375 CURVE SMOOTH",
"762 1390 OFFCURVE",
"725 1270 OFFCURVE",
"772 1259 CURVE SMOOTH",
"1893 988 OFFCURVE",
"2365 1410 OFFCURVE",
"2366 1750 CURVE SMOOTH",
"2366 1967 OFFCURVE",
"2197 2141 OFFCURVE",
"1937 2122 CURVE SMOOTH",
"1414 2084 OFFCURVE",
"1208 1680 OFFCURVE",
"1219 1206 CURVE SMOOTH",
"1233 601 OFFCURVE",
"1239 -98 OFFCURVE",
"599 -98 CURVE SMOOTH",
"286 -98 OFFCURVE",
"241 237 OFFCURVE",
"484 238 CURVE SMOOTH",
"1215 238 OFFCURVE",
"2180 -1074 OFFCURVE",
"2631 -221 CURVE SMOOTH",
"2672 -143 OFFCURVE",
"2599 -76 OFFCURVE",
"2539 -168 CURVE SMOOTH",
"2155 -758 OFFCURVE",
"1197 387 OFFCURVE",
"481 387 CURVE SMOOTH",
"60 387 OFFCURVE",
"72 -219 OFFCURVE"
);
}
);
width = 1820;
},
{
anchors = (
{
name = bot;
position = "{910, 0}";
},
{
name = top;
position = "{910, 2030}";
}
);
background = {
paths = (
{
closed = 0;
nodes = (
"1233 870 LINE",
"1320 231 OFFCURVE",
"1737 -602 OFFCURVE",
"2163 -602 CURVE SMOOTH",
"2386 -602 OFFCURVE",
"2544 -431 OFFCURVE",
"2606 -333 CURVE SMOOTH",
"2647 -268 OFFCURVE",
"2531 -164 OFFCURVE",
"2476 -223 CURVE SMOOTH",
"2358 -350 OFFCURVE",
"2268 -359 OFFCURVE",
"2183 -348 CURVE SMOOTH",
"1958 -319 OFFCURVE",
"1614 181 OFFCURVE",
"1440 895 CURVE"
);
}
);
};
layerId = "5ACEE878-7952-4CAC-A6A7-BEDE971843B4";
name = Regular;
paths = (
{
closed = 1;
nodes = (
"553 -304 CURVE SMOOTH",
"1263 -304 OFFCURVE",
"1441 387 OFFCURVE",
"1411 1038 CURVE SMOOTH",
"1411 1561 OFFCURVE",
"1442 1726 OFFCURVE",
"1687 1799 CURVE SMOOTH",
"2377 2005 OFFCURVE",
"2520 900 OFFCURVE",
"835 1295 CURVE SMOOTH",
"721 1322 OFFCURVE",
"665 1135 OFFCURVE",
"766 1112 CURVE SMOOTH",
"2864 634 OFFCURVE",
"2688 2171 OFFCURVE",
"1719 2032 CURVE SMOOTH",
"1404 1987 OFFCURVE",
"1158 1803 OFFCURVE",
"1158 1213 CURVE SMOOTH",
"1158 597 OFFCURVE",
"1191 -119 OFFCURVE",
"553 -119 CURVE SMOOTH",
"339 -119 OFFCURVE",
"333 135 OFFCURVE",
"487 136 CURVE SMOOTH",
"1018 141 OFFCURVE",
"2099 -1102 OFFCURVE",
"2597 -349 CURVE SMOOTH",
"2646 -274 OFFCURVE",
"2515 -171 OFFCURVE",
"2460 -237 CURVE SMOOTH",
"2025 -764 OFFCURVE",
"1109 346 OFFCURVE",
"481 346 CURVE SMOOTH",
"40 346 OFFCURVE",
"37 -304 OFFCURVE"
);
}
);
width = 1820;
}
);
unicode = 004C;
userData = {
com.typemytype.robofont.layerData = {
};
};
},
{
glyphname = M;
lastChange = "2014-01-06 06:04:28 -0800";
layers = (
{
anchors = (
{
name = bot;
position = "{1141.13, 0}";
},
{
name = top;
position = "{1141.13, 1940}";
}
);
layerId = "DE4BB00D-BABA-4D36-9D9A-44FD0E91C3DF";
name = Light;
paths = (
{
closed = 1;
nodes = (
"357 -118 OFFCURVE",
"367 -85 OFFCURVE",
"403 11 CURVE SMOOTH",
"689 779 OFFCURVE",
"953 1546 OFFCURVE",
"1185 1560 CURVE SMOOTH",
"1390 1572 OFFCURVE",
"1335 1144 OFFCURVE",
"1208 706 CURVE SMOOTH",
"988 -53 LINE",
"988 -53 OFFCURVE",
"1067 -92 OFFCURVE",
"1110 -92 CURVE SMOOTH",
"1142 -92 OFFCURVE",
"1178 -70 OFFCURVE",
"1187 -18 CURVE",
"1417 747 OFFCURVE",
"1631 1488 OFFCURVE",
"1903 1488 CURVE SMOOTH",
"2004 1488 OFFCURVE",
"2054 1409 OFFCURVE",
"2040 1320 CURVE SMOOTH",
"1980 953 OFFCURVE",
"1764 585 OFFCURVE",
"1764 229 CURVE SMOOTH",
"1764 75 OFFCURVE",
"1839 -77 OFFCURVE",
"2038 -97 CURVE SMOOTH",
"2273 -121 OFFCURVE",
"2453 12 OFFCURVE",
"2521 131 CURVE SMOOTH",
"2549 180 OFFCURVE",
"2481 285 OFFCURVE",
"2427 220 CURVE SMOOTH",
"2354 133 OFFCURVE",
"2221 26 OFFCURVE",
"2064 47 CURVE SMOOTH",
"1951 62 OFFCURVE",
"1923 156 OFFCURVE",
"1931 259 CURVE SMOOTH",
"1963 665 OFFCURVE",
"2185 967 OFFCURVE",
"2215 1352 CURVE SMOOTH",
"2232 1565 OFFCURVE",
"2085 1664 OFFCURVE",
"1970 1664 CURVE SMOOTH",
"1742 1668 OFFCURVE",
"1564 1490 OFFCURVE",
"1416 1088 CURVE",
"1503 1461 OFFCURVE",
"1474 1730 OFFCURVE",
"1239 1730 CURVE SMOOTH",
"903 1723 OFFCURVE",
"733 1272 OFFCURVE",
"605 920 CURVE",
"683 1194 OFFCURVE",
"752 1703 OFFCURVE",
"468 1703 CURVE SMOOTH",
"238 1703 OFFCURVE",
"19 1479 OFFCURVE",
"19 1219 CURVE SMOOTH",
"19 1150 OFFCURVE",
"159 1155 OFFCURVE",
"159 1157 CURVE SMOOTH",
"159 1380 OFFCURVE",
"299 1592 OFFCURVE",
"415 1592 CURVE SMOOTH",
"592 1592 OFFCURVE",
"584 1086 OFFCURVE",
"446 698 CURVE SMOOTH",
"172 -71 LINE SMOOTH",
"172 -71 OFFCURVE",
"201 -118 OFFCURVE",
"292 -118 CURVE SMOOTH"
);
}
);
width = 2282.26;
},
{
anchors = (
{
name = bot;
position = "{1170.5, 0}";
},
{
name = top;
position = "{1170.5, 2030}";
}
);
background = {
paths = (
{
closed = 1;
nodes = (
"149 -122 CURVE SMOOTH",
"266 -122 OFFCURVE",
"277 4 OFFCURVE",
"296 65 CURVE SMOOTH",
"620 1129 OFFCURVE",
"826 1614 OFFCURVE",
"1110 1614 CURVE SMOOTH",
"1300 1614 OFFCURVE",
"1225 1325 OFFCURVE",
"1162 1079 CURVE",
"1162 1079 OFFCURVE",
"857 -48 OFFCURVE",
"857 -48 CURVE",
"857 -49 OFFCURVE",
"933 -122 OFFCURVE",
"1025 -122 CURVE SMOOTH",
"1142 -122 OFFCURVE",
"1165 4 OFFCURVE",
"1182 65 CURVE SMOOTH",
"1411 856 OFFCURVE",
"1593 1625 OFFCURVE",
"1916 1625 CURVE SMOOTH",
"1996 1625 OFFCURVE",
"2041 1565 OFFCURVE",
"2041 1498 CURVE SMOOTH",
"2041 1209 OFFCURVE",
"1828 755 OFFCURVE",
"1791 248 CURVE SMOOTH",
"1778 54 OFFCURVE",
"1913 -92 OFFCURVE",
"2182 -92 CURVE SMOOTH",
"2305 -92 OFFCURVE",
"2465 -12 OFFCURVE",
"2556 86 CURVE SMOOTH",
"2695 238 OFFCURVE",
"2534 357 OFFCURVE",
"2440 242 CURVE SMOOTH",
"2367 153 OFFCURVE",
"2253 106 OFFCURVE",
"2162 112 CURVE SMOOTH",
"2071 118 OFFCURVE",
"2003 177 OFFCURVE",
"2020 298 CURVE SMOOTH",
"2089 790 OFFCURVE",
"2286 1181 OFFCURVE",
"2286 1517 CURVE SMOOTH",
"2286 1669 OFFCURVE",
"2246 1887 OFFCURVE",
"1984 1878 CURVE SMOOTH",
"1790 1871 OFFCURVE",
"1544 1687 OFFCURVE",
"1404 1245 CURVE",
"1514 1690 OFFCURVE",
"1380 1878 OFFCURVE",
"1177 1878 CURVE SMOOTH",
"757 1878 OFFCURVE",
"583 1445 OFFCURVE",
"382 961 CURVE",
"612 1568 OFFCURVE",
"563 1906 OFFCURVE",
"193 1867 CURVE SMOOTH",
"3 1847 OFFCURVE",
"-177 1633 OFFCURVE",
"-234 1438 CURVE SMOOTH",
"-291 1244 OFFCURVE",
"-65 1213 OFFCURVE",
"-65 1213 CURVE SMOOTH",
"-18 1426 OFFCURVE",
"96 1672 OFFCURVE",
"188 1671 CURVE SMOOTH",
"384 1669 OFFCURVE",
"296 1082 OFFCURVE",
"166 621 CURVE SMOOTH",
"-23 -48 LINE",
"-23 -49 OFFCURVE",
"57 -122 OFFCURVE"
);
}
);
};
layerId = "5ACEE878-7952-4CAC-A6A7-BEDE971843B4";
name = Regular;
paths = (
{
closed = 1;
nodes = (
"238 -152 OFFCURVE",
"249 -26 OFFCURVE",
"268 35 CURVE SMOOTH",
"592 1099 OFFCURVE",
"826 1614 OFFCURVE",
"1110 1614 CURVE SMOOTH",
"1311 1614 OFFCURVE",
"1269 1282 OFFCURVE",
"1186 1006 CURVE SMOOTH",
"871 -48 LINE",
"871 -49 OFFCURVE",
"944 -122 OFFCURVE",
"1025 -122 CURVE SMOOTH",
"1129 -122 OFFCURVE",
"1152 4 OFFCURVE",
"1169 65 CURVE SMOOTH",
"1398 856 OFFCURVE",
"1662 1605 OFFCURVE",
"1935 1625 CURVE SMOOTH",
"2032 1632 OFFCURVE",
"2070 1565 OFFCURVE",
"2070 1498 CURVE SMOOTH",
"2070 1209 OFFCURVE",
"1828 755 OFFCURVE",
"1791 248 CURVE SMOOTH",
"1778 54 OFFCURVE",
"1913 -92 OFFCURVE",
"2182 -92 CURVE SMOOTH",
"2305 -92 OFFCURVE",
"2465 -12 OFFCURVE",
"2556 86 CURVE SMOOTH",
"2695 238 OFFCURVE",
"2534 357 OFFCURVE",
"2440 242 CURVE SMOOTH",
"2367 153 OFFCURVE",
"2253 106 OFFCURVE",
"2162 112 CURVE SMOOTH",
"2071 118 OFFCURVE",
"2003 177 OFFCURVE",
"2020 298 CURVE SMOOTH",
"2089 790 OFFCURVE",
"2315 1181 OFFCURVE",
"2315 1517 CURVE SMOOTH",
"2315 1669 OFFCURVE",
"2277 1896 OFFCURVE",
"1999 1873 CURVE SMOOTH",
"1803 1857 OFFCURVE",
"1544 1617 OFFCURVE",
"1404 1175 CURVE",
"1514 1620 OFFCURVE",
"1432 1888 OFFCURVE",
"1177 1878 CURVE SMOOTH",
"920 1868 OFFCURVE",
"727 1682 OFFCURVE",
"412 961 CURVE",
"572 1548 OFFCURVE",
"563 1906 OFFCURVE",
"193 1867 CURVE SMOOTH",
"3 1847 OFFCURVE",
"-274 1677 OFFCURVE",
"-274 1378 CURVE SMOOTH",
"-274 1246 OFFCURVE",
"-55 1203 OFFCURVE",
"-55 1203 CURVE SMOOTH",
"-55 1203 OFFCURVE",
"-3 1584 OFFCURVE",
"188 1633 CURVE SMOOTH",
"398 1687 OFFCURVE",
"370 1277 OFFCURVE",
"214 776 CURVE SMOOTH",
"-51 -78 LINE",
"-51 -79 OFFCURVE",
"29 -152 OFFCURVE",
"121 -152 CURVE SMOOTH"
);
}
);
width = 2341;
}
);
unicode = 004D;
userData = {
com.typemytype.robofont.layerData = {
};
};
},
{
glyphname = N;
lastChange = "2014-01-04 15:27:21 -0800";
layers = (
{
anchors = (
{
name = bot;
position = "{787.5, 0}";
},
{
name = top;
position = "{787.5, 1940}";
}
);
layerId = "DE4BB00D-BABA-4D36-9D9A-44FD0E91C3DF";
name = Light;
paths = (
{
closed = 1;
nodes = (
"199 -46 CURVE SMOOTH",
"259 -46 OFFCURVE",
"293 -21 OFFCURVE",
"309 26 CURVE SMOOTH",
"513 624 OFFCURVE",
"903 1579 OFFCURVE",
"1208 1579 CURVE SMOOTH",
"1316 1579 OFFCURVE",
"1360 1493 OFFCURVE",
"1360 1412 CURVE SMOOTH",
"1360 1198 OFFCURVE",
"1046 555 OFFCURVE",
"1046 208 CURVE SMOOTH",
"1046 27 OFFCURVE",
"1121 -92 OFFCURVE",
"1361 -92 CURVE SMOOTH",
"1473 -92 OFFCURVE",
"1631 -17 OFFCURVE",
"1726 75 CURVE SMOOTH",
"1839 185 OFFCURVE",
"1755 253 OFFCURVE",
"1683 175 CURVE SMOOTH",
"1502 -22 OFFCURVE",
"1173 -44 OFFCURVE",
"1200 261 CURVE SMOOTH",
"1232 612 OFFCURVE",
"1512 1198 OFFCURVE",
"1512 1486 CURVE SMOOTH",
"1512 1617 OFFCURVE",
"1430 1711 OFFCURVE",
"1275 1728 CURVE SMOOTH",
"935 1765 OFFCURVE",
"573 1161 OFFCURVE",
"451 807 CURVE",
"486.5 1018 OFFCURVE",
"517.5 1241 OFFCURVE",
"504.875 1411.25 CURVE SMOOTH",
"492.25 1581.5 OFFCURVE",
"436 1699 OFFCURVE",
"297 1699 CURVE SMOOTH",
"133 1695 OFFCURVE",
"48 1606 OFFCURVE",
"-26 1484 CURVE SMOOTH",
"-82 1390 OFFCURVE",
"5 1334 OFFCURVE",
"59 1408 CURVE SMOOTH",
"147 1531 OFFCURVE",
"195 1592 OFFCURVE",
"264 1581 CURVE SMOOTH",
"323 1573 OFFCURVE",
"346 1530 OFFCURVE",
"350 1482 CURVE SMOOTH",
"369 1113 OFFCURVE",
"276 495 OFFCURVE",
"123 67 CURVE SMOOTH",
"107 25 OFFCURVE",
"127 -46 OFFCURVE"
);
}
);
width = 1575;
},
{
anchors = (
{
name = bot;
position = "{787.5, 0}";
},
{
name = top;
position = "{787.5, 2030}";
}
);
layerId = "5ACEE878-7952-4CAC-A6A7-BEDE971843B4";
name = Regular;
paths = (
{
closed = 1;
nodes = (
"37 -122 CURVE SMOOTH",
"154 -122 OFFCURVE",
"173 -28 OFFCURVE",
"211 65 CURVE SMOOTH",
"522 839 OFFCURVE",
"847 1624 OFFCURVE",
"1240 1624 CURVE SMOOTH",
"1320 1624 OFFCURVE",
"1354 1564 OFFCURVE",
"1355 1497 CURVE SMOOTH",
"1358 1292 OFFCURVE",
"1086 755 OFFCURVE",
"1004 248 CURVE SMOOTH",
"974 54 OFFCURVE",
"1096 -92 OFFCURVE",
"1365 -92 CURVE SMOOTH",
"1488 -92 OFFCURVE",
"1656 -12 OFFCURVE",
"1755 86 CURVE SMOOTH",
"1908 238 OFFCURVE",
"1757 357 OFFCURVE",
"1653 242 CURVE SMOOTH",
"1491 63 OFFCURVE",
"1182 56 OFFCURVE",
"1238 298 CURVE SMOOTH",
"1350 790 OFFCURVE",
"1622 1298 OFFCURVE",
"1617 1597 CURVE SMOOTH",
"1614 1748 OFFCURVE",
"1516 1864 OFFCURVE",
"1339 1878 CURVE SMOOTH",
"849 1918 OFFCURVE",
"604 1405 OFFCURVE",
"442 971 CURVE",
"505 1222 OFFCURVE",
"557 1485 OFFCURVE",
"555 1619 CURVE SMOOTH",
"552 1782 OFFCURVE",
"418 1879 OFFCURVE",
"278 1867 CURVE SMOOTH",
"46 1847 OFFCURVE",
"-122 1670 OFFCURVE",
"-212 1478 CURVE SMOOTH",
"-279 1334 OFFCURVE",
"-63 1248 OFFCURVE",
"-51 1283 CURVE SMOOTH",
"-4 1416 OFFCURVE",
"155 1672 OFFCURVE",
"257 1671 CURVE SMOOTH",
"327 1670 OFFCURVE",
"328 1532 OFFCURVE",
"329 1504 CURVE SMOOTH",
"335 1159 OFFCURVE",
"40 359 OFFCURVE",
"-124 -48 CURVE SMOOTH",
"-124 -49 OFFCURVE",
"-55 -122 OFFCURVE"
);
}
);
width = 1575;
}
);
unicode = 004E;
userData = {
com.typemytype.robofont.layerData = {
};
};
},
{
glyphname = O;
lastChange = "2014-01-05 23:44:00 -0800";
layers = (
{
anchors = (
{
name = bot;
position = "{927, 1}";
},
{
name = ogonek;
position = "{0, 1}";
},
{
name = top;
position = "{927, 1941}";
}
);
background = {
paths = (
{
closed = 1;
nodes = (
"882 -150 CURVE",
"531 -150 OFFCURVE",
"371 265.731 OFFCURVE",
"371 536 CURVE",
"371 975.874 OFFCURVE",
"617 1720 OFFCURVE",
"1157 1720 CURVE",
"1492 1720 OFFCURVE",
"1615 1344.3 OFFCURVE",
"1615 1041 CURVE",
"1615 634.706 OFFCURVE",
"1418 -150 OFFCURVE"
);
},
{
closed = 1;
nodes = (
"863 -303 CURVE",
"1483 -303 OFFCURVE",
"1805 450.551 OFFCURVE",
"1805 991.999 CURVE",
"1805 1441.19 OFFCURVE",
"1577 1869 OFFCURVE",
"1143 1869 CURVE",
"554 1869 OFFCURVE",
"190 1169.75 OFFCURVE",
"190 543 CURVE",
"190 160.24 OFFCURVE",
"424 -303 OFFCURVE"
);
}
);
};
layerId = "DE4BB00D-BABA-4D36-9D9A-44FD0E91C3DF";
name = Light;
paths = (
{
closed = 1;
nodes = (
"1687.92 391.662 OFFCURVE",
"1252.85 -129 OFFCURVE",
"889 -129 CURVE SMOOTH",
"501.047 -129 OFFCURVE",
"353.95 141.199 OFFCURVE",
"362.003 604.243 CURVE SMOOTH",
"373.067 1321.45 OFFCURVE",
"829.339 1848 OFFCURVE",
"1212 1848 CURVE SMOOTH",
"1572.37 1848 OFFCURVE",
"1709.05 1572.56 OFFCURVE",
"1701 1099.76 CURVE SMOOTH"
);
},
{
closed = 1;
nodes = (
"208 -20 OFFCURVE",
"456.703 -258 OFFCURVE",
"901 -258 CURVE SMOOTH",
"1451.09 -258 OFFCURVE",
"1854 472.927 OFFCURVE",
"1854 1100 CURVE SMOOTH",
"1854 1731.12 OFFCURVE",
"1615.01 1973 OFFCURVE",
"1189 1973 CURVE SMOOTH",
"622.823 1973 OFFCURVE",
"208 1235.02 OFFCURVE",
"208 605 CURVE SMOOTH"
);
}
);
width = 1853;
},
{
anchors = (
{
name = bot;
position = "{971, 0}";
},
{
name = ogonek;
position = "{44, 0}";
},
{
name = top;
position = "{971, 2030}";
}
);
layerId = "5ACEE878-7952-4CAC-A6A7-BEDE971843B4";
name = Regular;
paths = (
{
closed = 1;
nodes = (
"926 -70 CURVE SMOOTH",
"605 -70 OFFCURVE",
"455 278 OFFCURVE",
"455 536 CURVE SMOOTH",
"455 965 OFFCURVE",
"693 1638 OFFCURVE",
"1201 1638 CURVE SMOOTH",
"1504 1638 OFFCURVE",
"1619 1333 OFFCURVE",
"1619 1041 CURVE SMOOTH",
"1619 644 OFFCURVE",
"1427 -70 OFFCURVE"
);
},
{
closed = 1;
nodes = (
"907 -303 CURVE SMOOTH",
"1557 -303 OFFCURVE",
"1889 438 OFFCURVE",
"1889 992 CURVE SMOOTH",
"1889 1458 OFFCURVE",
"1650 1867 OFFCURVE",
"1187 1867 CURVE SMOOTH",
"568 1867 OFFCURVE",
"194 1186 OFFCURVE",
"194 543 CURVE SMOOTH",
"194 146 OFFCURVE",
"440 -303 OFFCURVE"
);
}
);
width = 1935;
}
);
unicode = 004F;
userData = {
com.typemytype.robofont.layerData = {
};
};
},
{
glyphname = P;
lastChange = "2014-01-04 15:27:21 -0800";
layers = (
{
anchors = (
{
name = bot;
position = "{687, 0}";
},
{
name = top;
position = "{687, 1940}";
}
);
layerId = "DE4BB00D-BABA-4D36-9D9A-44FD0E91C3DF";
name = Light;
paths = (
{
closed = 1;
nodes = (
"352 -196 CURVE SMOOTH",
"133 -196 OFFCURVE",
"67 291 OFFCURVE",
"67 647 CURVE SMOOTH",
"67 1148 OFFCURVE",
"313 1829 OFFCURVE",
"836 1859 CURVE SMOOTH",
"1272 1884 OFFCURVE",
"1532 1706 OFFCURVE",
"1532 1418 CURVE SMOOTH",
"1532 1123 OFFCURVE",
"1227 927 OFFCURVE",
"786 913 CURVE",
"799 1011 OFFCURVE",
"849 1227 OFFCURVE",
"950 1399 CURVE SMOOTH",
"963 1421 OFFCURVE",
"929 1452 OFFCURVE",
"865 1452 CURVE SMOOTH",
"700 1452 OFFCURVE",
"672 1224 OFFCURVE",
"616 920 CURVE",
"535 920 OFFCURVE",
"402 991 OFFCURVE",
"372 1005 CURVE SMOOTH",
"354 1013 OFFCURVE",
"355 973 OFFCURVE",
"355 954 CURVE SMOOTH",
"355 836 OFFCURVE",
"527 796 OFFCURVE",
"602 788 CURVE",
"549 382 OFFCURVE",
"564 -196 OFFCURVE"
);
},
{
closed = 1;
nodes = (
"318 -349 CURVE SMOOTH",
"594 -349 OFFCURVE",
"672 -101 OFFCURVE",
"712 290 CURVE SMOOTH",
"747 591 OFFCURVE",
"770 779 OFFCURVE",
"775 779 CURVE SMOOTH",
"1342 796 OFFCURVE",
"1694 1050 OFFCURVE",
"1694 1437 CURVE SMOOTH",
"1694 1801 OFFCURVE",
"1386 2055 OFFCURVE",
"846 2036 CURVE SMOOTH",
"257 2015 OFFCURVE",
"-95 1419 OFFCURVE",
"-95 679 CURVE SMOOTH",
"-95 134 OFFCURVE",
"34 -349 OFFCURVE"
);
}
);
width = 1374;
},
{
anchors = (
{
name = bot;
position = "{775.5, 0}";
},
{
name = top;
position = "{775.5, 2030}";
}
);
layerId = "5ACEE878-7952-4CAC-A6A7-BEDE971843B4";
name = Regular;
paths = (
{
closed = 1;
nodes = (
"707 255 OFFCURVE",
"732 -159 OFFCURVE",
"543 -159 CURVE SMOOTH",
"345 -159 OFFCURVE",
"307 297 OFFCURVE",
"307 619 CURVE SMOOTH",
"307 1134 OFFCURVE",
"493 1819 OFFCURVE",
"1014 1850 CURVE SMOOTH",
"1416 1873 OFFCURVE",
"1648 1717 OFFCURVE",
"1648 1437 CURVE SMOOTH",
"1648 1170.11 OFFCURVE",
"1397.16 974.425 OFFCURVE",
"1016.24 936.918 CURVE",
"1013.87 1084.73 OFFCURVE",
"1150.06 1289.43 OFFCURVE",
"1188.92 1432.85 CURVE",
"1186.59 1475.17 OFFCURVE",
"1132.13 1495 OFFCURVE",
"1076 1495 CURVE SMOOTH",
"884.099 1495 OFFCURVE",
"876.463 1223.04 OFFCURVE",
"798.571 946.119 CURVE",
"739.768 948.45 OFFCURVE",
"614.933 1037 OFFCURVE",
"549 1037 CURVE SMOOTH",
"522 1037 OFFCURVE",
"522 1002 OFFCURVE",
"522 957 CURVE SMOOTH",
"522 822.491 OFFCURVE",
"650.815 799.53 OFFCURVE",
"773.265 747.884 CURVE"
);
},
{
closed = 1;
nodes = (
"75 91 OFFCURVE",
"190 -359 OFFCURVE",
"508 -359 CURVE SMOOTH",
"813 -359 OFFCURVE",
"899 -84 OFFCURVE",
"941 285 CURVE SMOOTH",
"972 548 OFFCURVE",
"983.696 759.467 OFFCURVE",
"1010.17 762.973 CURVE SMOOTH",
"1560.28 824.559 OFFCURVE",
"1900 1094.33 OFFCURVE",
"1900 1459 CURVE SMOOTH",
"1900 1824.39 OFFCURVE",
"1569.47 2105.65 OFFCURVE",
"1023.65 2086.01 CURVE SMOOTH",
"394.578 2063.44 OFFCURVE",
"75 1394 OFFCURVE",
"75 619 CURVE SMOOTH"
);
}
);
width = 1551;
}
);
unicode = 0050;
userData = {
com.typemytype.robofont.layerData = {
};
};
},
{
glyphname = Q;
lastChange = "2014-01-05 17:21:53 -0800";
layers = (
{
background = {
anchors = (
{
name = bot;
position = "{980, 111}";
},
{
name = top;
position = "{980, 2051}";
}
);
paths = (
{
closed = 1;
nodes = (
"659 -231 CURVE",
"1377 -231 OFFCURVE",
"1477 452 OFFCURVE",
"1447 1133 CURVE",
"1447 1614 OFFCURVE",
"1475 1872 OFFCURVE",
"1754 1955 CURVE",
"2551 2136 OFFCURVE",
"2574 964 OFFCURVE",
"897 1363 CURVE",
"832 1378 OFFCURVE",
"795 1258 OFFCURVE",
"842 1247 CURVE",
"2828 767 OFFCURVE",
"2713 2334 OFFCURVE",
"1715 2095 CURVE",
"1417 2029 OFFCURVE",
"1265 1815 OFFCURVE",
"1265 1309 CURVE",
"1265 1255 OFFCURVE",
"1268 1199 OFFCURVE",
"1274 1138 CURVE",
"1357 274 OFFCURVE",
"1039 -110 OFFCURVE",
"669 -110 CURVE",
"356 -110 OFFCURVE",
"311 225 OFFCURVE",
"554 226 CURVE",
"1285 226 OFFCURVE",
"2250 -1178 OFFCURVE",
"2701 -265 CURVE SMOOTH",
"2740 -187 OFFCURVE",
"2664 -119 OFFCURVE",
"2609 -212 CURVE SMOOTH",
"2225 -862 OFFCURVE",
"1267 375 OFFCURVE",
"551 375 CURVE",
"130 375 OFFCURVE",
"142 -231 OFFCURVE"
);
}
);
};
components = (
{
name = O;
transform = "{1, 0, 0, 1, 0, 0}";
}
);
layerId = "DE4BB00D-BABA-4D36-9D9A-44FD0E91C3DF";
name = Light;
paths = (
{
closed = 1;
nodes = (
"2100 -507 OFFCURVE",
"2424 -809 OFFCURVE",
"2756 -551 CURVE SMOOTH",
"2880 -453 OFFCURVE",
"2917 -368 OFFCURVE",
"2932 -334 CURVE",
"2943 -304 OFFCURVE",
"2945 -291 OFFCURVE",
"2935 -279 CURVE",
"2925 -264 OFFCURVE",
"2891 -254 OFFCURVE",
"2877 -262 CURVE SMOOTH",
"2868 -267 OFFCURVE",
"2863 -274 OFFCURVE",
"2855 -285 CURVE",
"2815 -332 OFFCURVE",
"2782 -362 OFFCURVE",
"2735 -401 CURVE SMOOTH",
"2536 -555 OFFCURVE",
"2254 -490 OFFCURVE",
"1350 103 CURVE",
"1334 122 OFFCURVE",
"1259 35 OFFCURVE",
"1284 12 CURVE"
);
}
);
width = 1853;
},
{
components = (
{
name = O;
transform = "{1, 0, 0, 1, 0, 0}";
}
);
layerId = "5ACEE878-7952-4CAC-A6A7-BEDE971843B4";
name = Regular;
paths = (
{
closed = 1;
nodes = (
"1949 -705 OFFCURVE",
"2421 -1126 OFFCURVE",
"2785 -852 CURVE SMOOTH",
"2960 -720 OFFCURVE",
"2976 -623 OFFCURVE",
"3004 -575 CURVE",
"3012 -553 OFFCURVE",
"3006 -532 OFFCURVE",
"2995 -516 CURVE SMOOTH",
"2965 -477 OFFCURVE",
"2896 -463 OFFCURVE",
"2861 -489 CURVE SMOOTH",
"2852 -496 OFFCURVE",
"2846 -504 OFFCURVE",
"2843 -514 CURVE",
"2802 -561 OFFCURVE",
"2763 -605 OFFCURVE",
"2718 -637 CURVE SMOOTH",
"2540 -771 OFFCURVE",
"2145 -632 OFFCURVE",
"1242 63 CURVE SMOOTH",
"1197 98 OFFCURVE",
"1062 -43 OFFCURVE",
"1109 -78 CURVE SMOOTH"
);
}
);
width = 1966;
}
);
unicode = 0051;
},
{
glyphname = R;
lastChange = "2014-01-06 05:35:29 -0800";
layers = (
{
anchors = (
{
name = bot;
position = "{1001, 0}";
},
{
name = top;
position = "{1001, 1940}";
}
);
background = {
anchors = (
{
name = bot;
position = "{750, 281}";
},
{
name = top;
position = "{750, 2221}";
}
);
paths = (
{
closed = 1;
nodes = (
"429 -61 CURVE",
"1147 -61 OFFCURVE",
"1247 622 OFFCURVE",
"1217 1303 CURVE",
"1217 1784 OFFCURVE",
"1245 2042 OFFCURVE",
"1524 2125 CURVE",
"2321 2306 OFFCURVE",
"2344 1134 OFFCURVE",
"667 1533 CURVE",
"602 1548 OFFCURVE",
"565 1428 OFFCURVE",
"612 1417 CURVE",
"2598 937 OFFCURVE",
"2483 2504 OFFCURVE",
"1485 2265 CURVE",
"1187 2199 OFFCURVE",
"1035 1985 OFFCURVE",
"1035 1479 CURVE",
"1035 1425 OFFCURVE",
"1038 1369 OFFCURVE",
"1044 1308 CURVE",
"1127 444 OFFCURVE",
"809 60 OFFCURVE",
"439 60 CURVE",
"126 60 OFFCURVE",
"81 395 OFFCURVE",
"324 396 CURVE",
"1055 396 OFFCURVE",
"2020 -1008 OFFCURVE",
"2471 -95 CURVE SMOOTH",
"2510 -17 OFFCURVE",
"2434 51 OFFCURVE",
"2379 -42 CURVE SMOOTH",
"1995 -692 OFFCURVE",
"1037 545 OFFCURVE",
"321 545 CURVE",
"-100 545 OFFCURVE",
"-88 -61 OFFCURVE"
);
}
);
};
layerId = "DE4BB00D-BABA-4D36-9D9A-44FD0E91C3DF";
name = Light;
paths = (
{
closed = 1;
nodes = (
"604 -348 CURVE SMOOTH",
"904 -346 OFFCURVE",
"961 -55 OFFCURVE",
"1068 1003 CURVE SMOOTH",
"1093 1255 OFFCURVE",
"1216 1358 OFFCURVE",
"1216 1409 CURVE SMOOTH",
"1216 1431 OFFCURVE",
"1176 1453 OFFCURVE",
"1128 1452 CURVE SMOOTH",
"993 1448 OFFCURVE",
"948 1291 OFFCURVE",
"902 1039 CURVE SMOOTH",
"794 445 OFFCURVE",
"835 -194 OFFCURVE",
"611 -194 CURVE SMOOTH",
"447 -194 OFFCURVE",
"333 31 OFFCURVE",
"333 658 CURVE SMOOTH",
"333 1303 OFFCURVE",
"638 1870 OFFCURVE",
"1179 1870 CURVE SMOOTH",
"1622 1870 OFFCURVE",
"1772 1686 OFFCURVE",
"1765 1453 CURVE SMOOTH",
"1765 1271 OFFCURVE",
"1617 1105 OFFCURVE",
"1044 1121 CURVE SMOOTH",
"922 1121 OFFCURVE",
"832 1137 OFFCURVE",
"775 1139 CURVE SMOOTH",
"730 1142 OFFCURVE",
"705 1136 OFFCURVE",
"698 1110 CURVE SMOOTH",
"676 1028 OFFCURVE",
"793 946 OFFCURVE",
"1228 968 CURVE",
"1410 -26 OFFCURVE",
"1729 -330 OFFCURVE",
"2023 -364 CURVE SMOOTH",
"2130 -379 OFFCURVE",
"2253 -367 OFFCURVE",
"2391 -211 CURVE SMOOTH",
"2427 -171 OFFCURVE",
"2419 -145 OFFCURVE",
"2390 -118 CURVE SMOOTH",
"2357 -88 OFFCURVE",
"2327 -109 OFFCURVE",
"2304 -132 CURVE SMOOTH",
"2246 -192 OFFCURVE",
"2160 -222 OFFCURVE",
"2087 -212 CURVE SMOOTH",
"1973 -196 OFFCURVE",
"1613 -125 OFFCURVE",
"1370 990 CURVE",
"1576 987 OFFCURVE",
"1929 1142 OFFCURVE",
"1934 1475 CURVE SMOOTH",
"1946 1809 OFFCURVE",
"1634 2035 OFFCURVE",
"1176 2038 CURVE SMOOTH",
"652 2040 OFFCURVE",
"168 1562 OFFCURVE",
"168 658 CURVE SMOOTH",
"168 -7 OFFCURVE",
"323 -349 OFFCURVE"
);
}
);
width = 2002;
},
{
anchors = (
{
name = bot;
position = "{1018, 0}";
},
{
name = top;
position = "{1018, 2030}";
}
);
background = {
paths = (
{
closed = 1;
nodes = (
"548 -295 CURVE SMOOTH",
"1021 -295 OFFCURVE",
"987 442 OFFCURVE",
"1105 1092 CURVE SMOOTH",
"1129 1225 OFFCURVE",
"1246 1314 OFFCURVE",
"1251 1398 CURVE SMOOTH",
"1253 1455 OFFCURVE",
"1207 1484 OFFCURVE",
"1142 1484 CURVE SMOOTH",
"1004 1484 OFFCURVE",
"918 1261 OFFCURVE",
"884 1121 CURVE SMOOTH",
"819 824 OFFCURVE",
"770 -59 OFFCURVE",
"596 -61 CURVE SMOOTH",
"436 -63 OFFCURVE",
"401 178 OFFCURVE",
"400 448 CURVE SMOOTH",
"394 1295 OFFCURVE",
"654 1803 OFFCURVE",
"1189 1803 CURVE SMOOTH",
"1621 1803 OFFCURVE",
"1735 1598 OFFCURVE",
"1699 1373 CURVE SMOOTH",
"1660 1129 OFFCURVE",
"1467 1077 OFFCURVE",
"1024 1077 CURVE SMOOTH",
"932 1077 OFFCURVE",
"790 1107 OFFCURVE",
"749 1107 CURVE SMOOTH",
"704 1107 OFFCURVE",
"693 1060 OFFCURVE",
"692 1023 CURVE SMOOTH",
"687 879 OFFCURVE",
"981 876 OFFCURVE",
"1220 900 CURVE",
"1294 463 OFFCURVE",
"1367 -301 OFFCURVE",
"1833 -301 CURVE SMOOTH",
"2056 -301 OFFCURVE",
"2130 -233 OFFCURVE",
"2183 -211 CURVE",
"2203 -196 OFFCURVE",
"2214 -177 OFFCURVE",
"2215 -156 CURVE SMOOTH",
"2216 -107 OFFCURVE",
"2169 -52 OFFCURVE",
"2124 -52 CURVE SMOOTH",
"2056 -52 OFFCURVE",
"1983 -86 OFFCURVE",
"1917 -86 CURVE SMOOTH",
"1690 -86 OFFCURVE",
"1533 423 OFFCURVE",
"1446 926 CURVE",
"1715 983 OFFCURVE",
"1948 1063 OFFCURVE",
"1991 1387 CURVE SMOOTH",
"2035 1715 OFFCURVE",
"1735 2061 OFFCURVE",
"1179 2061 CURVE SMOOTH",
"675 2061 OFFCURVE",
"177 1651 OFFCURVE",
"141 627 CURVE SMOOTH",
"128 260 OFFCURVE",
"190 -295 OFFCURVE"
);
},
{
closed = 1;
nodes = (
"1567 -398 OFFCURVE",
"2039 -819 OFFCURVE",
"2403 -545 CURVE SMOOTH",
"2578 -413 OFFCURVE",
"2594 -316 OFFCURVE",
"2622 -268 CURVE",
"2630 -246 OFFCURVE",
"2624 -225 OFFCURVE",
"2613 -209 CURVE SMOOTH",
"2583 -170 OFFCURVE",
"2514 -156 OFFCURVE",
"2479 -182 CURVE SMOOTH",
"2470 -189 OFFCURVE",
"2464 -197 OFFCURVE",
"2461 -207 CURVE",
"2420 -254 OFFCURVE",
"2381 -298 OFFCURVE",
"2336 -330 CURVE SMOOTH",
"2158 -464 OFFCURVE",
"1763 -325 OFFCURVE",
"860 370 CURVE SMOOTH",
"815 405 OFFCURVE",
"680 264 OFFCURVE",
"727 229 CURVE SMOOTH"
);
}
);
};
layerId = "5ACEE878-7952-4CAC-A6A7-BEDE971843B4";
name = Regular;
paths = (
{
closed = 1;
nodes = (
"548 -395 CURVE SMOOTH",
"1021 -395 OFFCURVE",
"987 342 OFFCURVE",
"1105 1092 CURVE SMOOTH",
"1126 1225 OFFCURVE",
"1246 1314 OFFCURVE",
"1251 1398 CURVE SMOOTH",
"1253 1455 OFFCURVE",
"1207 1484 OFFCURVE",
"1142 1484 CURVE SMOOTH",
"1004 1484 OFFCURVE",
"918 1261 OFFCURVE",
"884 1121 CURVE SMOOTH",
"819 824 OFFCURVE",
"770 -159 OFFCURVE",
"596 -161 CURVE SMOOTH",
"453 -163 OFFCURVE",
"372 141 OFFCURVE",
"371 599 CURVE SMOOTH",
"370 1297 OFFCURVE",
"667 1814 OFFCURVE",
"1192 1814 CURVE SMOOTH",
"1624 1814 OFFCURVE",
"1735 1598 OFFCURVE",
"1699 1373 CURVE SMOOTH",
"1660 1129 OFFCURVE",
"1467 1077 OFFCURVE",
"1024 1077 CURVE SMOOTH",
"932 1077 OFFCURVE",
"790 1107 OFFCURVE",
"749 1107 CURVE SMOOTH",
"704 1107 OFFCURVE",
"693 1060 OFFCURVE",
"692 1023 CURVE SMOOTH",
"687 879 OFFCURVE",
"981 876 OFFCURVE",
"1220 891 CURVE",
"1307 252 OFFCURVE",
"1724 -581 OFFCURVE",
"2150 -581 CURVE SMOOTH",
"2373 -581 OFFCURVE",
"2531 -410 OFFCURVE",
"2593 -312 CURVE SMOOTH",
"2634 -247 OFFCURVE",
"2518 -143 OFFCURVE",
"2463 -202 CURVE SMOOTH",
"2345 -329 OFFCURVE",
"2255 -338 OFFCURVE",
"2170 -327 CURVE SMOOTH",
"1945 -298 OFFCURVE",
"1601 202 OFFCURVE",
"1427 916 CURVE",
"1708 963 OFFCURVE",
"1948 1063 OFFCURVE",
"1991 1387 CURVE SMOOTH",
"2035 1715 OFFCURVE",
"1735 2061 OFFCURVE",
"1179 2061 CURVE SMOOTH",
"584 2061 OFFCURVE",
"139 1528 OFFCURVE",
"115 580 CURVE SMOOTH",
"93 -44 OFFCURVE",
"268 -395 OFFCURVE"
);
}
);
width = 2036;
}
);
unicode = 0052;
userData = {
com.typemytype.robofont.layerData = {
};
};
},
{
glyphname = S;
lastChange = "2014-01-05 23:22:55 -0800";
layers = (
{
anchors = (
{
name = bot;
position = "{820.5, 0}";
},
{
name = top;
position = "{1001, 1940}";
}
);
layerId = "DE4BB00D-BABA-4D36-9D9A-44FD0E91C3DF";
name = Light;
paths = (
{
closed = 1;
nodes = (
"19 -131 OFFCURVE",
"424 -333 OFFCURVE",
"787 -333 CURVE SMOOTH",
"1227 -333 OFFCURVE",
"1543 -105 OFFCURVE",
"1543 235 CURVE SMOOTH",
"1543 547 OFFCURVE",
"1305 657 OFFCURVE",
"981 849 CURVE",
"599 1099 OFFCURVE",
"476 1139 OFFCURVE",
"476 1368 CURVE SMOOTH",
"476 1568 OFFCURVE",
"790 1706 OFFCURVE",
"1025 1706 CURVE SMOOTH",
"1246 1706 OFFCURVE",
"1454 1611 OFFCURVE",
"1454 1426 CURVE SMOOTH",
"1454 1318 OFFCURVE",
"1406 1240 OFFCURVE",
"1358 1180 CURVE SMOOTH",
"1293 1103 OFFCURVE",
"1392 1008 OFFCURVE",
"1502 1133 CURVE SMOOTH",
"1558 1195 OFFCURVE",
"1609 1297 OFFCURVE",
"1607 1424 CURVE SMOOTH",
"1603 1697 OFFCURVE",
"1345 1860 OFFCURVE",
"999 1850 CURVE SMOOTH",
"659 1841 OFFCURVE",
"303 1647 OFFCURVE",
"303 1344 CURVE SMOOTH",
"303 1060 OFFCURVE",
"575 914 OFFCURVE",
"835 751 CURVE SMOOTH",
"1087 594 OFFCURVE",
"1388 497 OFFCURVE",
"1388 213 CURVE SMOOTH",
"1388 -10 OFFCURVE",
"1187 -195 OFFCURVE",
"805 -195 CURVE SMOOTH",
"477 -195 OFFCURVE",
"206 -41 OFFCURVE",
"262 251 CURVE SMOOTH",
"295 423 OFFCURVE",
"116 468 OFFCURVE",
"83 263 CURVE SMOOTH"
);
}
);
width = 1641;
},
{
anchors = (
{
name = bot;
position = "{866.5, 0}";
},
{
name = top;
position = "{866.5, 2030}";
}
);
layerId = "5ACEE878-7952-4CAC-A6A7-BEDE971843B4";
name = Regular;
paths = (
{
closed = 1;
nodes = (
"783 -333 CURVE SMOOTH",
"1271 -333 OFFCURVE",
"1631 -112 OFFCURVE",
"1631 255 CURVE SMOOTH",
"1631 592 OFFCURVE",
"1398 692 OFFCURVE",
"1056 883 CURVE SMOOTH",
"643 1113 OFFCURVE",
"541 1142 OFFCURVE",
"541 1344 CURVE SMOOTH",
"541 1514 OFFCURVE",
"806 1645 OFFCURVE",
"1038 1645 CURVE SMOOTH",
"1254 1645 OFFCURVE",
"1446 1557 OFFCURVE",
"1446 1402 CURVE SMOOTH",
"1446 1305 OFFCURVE",
"1404 1238 OFFCURVE",
"1353 1181 CURVE SMOOTH",
"1252 1066 OFFCURVE",
"1418 914 OFFCURVE",
"1577 1083 CURVE SMOOTH",
"1641 1151 OFFCURVE",
"1701 1262 OFFCURVE",
"1699 1401 CURVE SMOOTH",
"1694 1702 OFFCURVE",
"1395 1860 OFFCURVE",
"1008 1850 CURVE SMOOTH",
"632 1841 OFFCURVE",
"246 1650 OFFCURVE",
"246 1320 CURVE SMOOTH",
"246 1012 OFFCURVE",
"481 900 OFFCURVE",
"756 738 CURVE SMOOTH",
"1031 576 OFFCURVE",
"1337 491 OFFCURVE",
"1337 234 CURVE SMOOTH",
"1337 33 OFFCURVE",
"1179 -118 OFFCURVE",
"800 -118 CURVE SMOOTH",
"473 -118 OFFCURVE",
"272 7 OFFCURVE",
"272 244 CURVE SMOOTH",
"272 321 OFFCURVE",
"312 375 OFFCURVE",
"312 443 CURVE SMOOTH",
"312 493 OFFCURVE",
"277 520 OFFCURVE",
"227 520 CURVE SMOOTH",
"83 520 OFFCURVE",
"-9 384 OFFCURVE",
"-9 243 CURVE SMOOTH",
"-9 -150 OFFCURVE",
"382 -333 OFFCURVE"
);
}
);
width = 1733;
}
);
unicode = 0053;
userData = {
com.typemytype.robofont.layerData = {
};
};
},
{
glyphname = T;
lastChange = "2014-01-06 05:40:16 -0800";
layers = (
{
anchors = (
{
name = bot;
position = "{655.545, 0}";
},
{
name = top;
position = "{655.545, 1940}";
}
);
layerId = "DE4BB00D-BABA-4D36-9D9A-44FD0E91C3DF";
name = Light;
paths = (
{
closed = 1;
nodes = (
"724 -225 OFFCURVE",
"741 -264 OFFCURVE",
"800 -264 CURVE SMOOTH",
"859 -264 OFFCURVE",
"883 -228 OFFCURVE",
"896 -149 CURVE SMOOTH",
"923 30 OFFCURVE",
"1009 830 OFFCURVE",
"1285 1739 CURVE",
"1166 1739 LINE",
"801 864 OFFCURVE",
"720 -69 OFFCURVE",
"723 -169 CURVE SMOOTH"
);
},
{
closed = 1;
nodes = (
"2209 1684 OFFCURVE",
"2223 1712 OFFCURVE",
"2223 1754 CURVE SMOOTH",
"2224 1801 OFFCURVE",
"2189 1839 OFFCURVE",
"2153 1834 CURVE",
"1749 1834 OFFCURVE",
"1094 1882 OFFCURVE",
"739 1882 CURVE SMOOTH",
"129 1882 OFFCURVE",
"-126 1595 OFFCURVE",
"-126 1274 CURVE SMOOTH",
"-126 1215 OFFCURVE",
"-30 1195 OFFCURVE",
"-16 1246 CURVE SMOOTH",
"60 1531 OFFCURVE",
"154 1734 OFFCURVE",
"731 1734 CURVE SMOOTH",
"937 1734 OFFCURVE",
"1508 1684 OFFCURVE",
"2009 1684 CURVE SMOOTH"
);
}
);
width = 1392.09;
},
{
anchors = (
{
name = bot;
position = "{683, 0}";
},
{
name = top;
position = "{683, 2030}";
}
);
layerId = "5ACEE878-7952-4CAC-A6A7-BEDE971843B4";
name = Regular;
paths = (
{
closed = 1;
nodes = (
"762 -197 OFFCURVE",
"800 -254 OFFCURVE",
"889 -254 CURVE SMOOTH",
"981 -254 OFFCURVE",
"1036 -204 OFFCURVE",
"1052 -105 CURVE SMOOTH",
"1072 19 OFFCURVE",
"972 498 OFFCURVE",
"1398 1662 CURVE",
"1206 1676 LINE",
"684 624 OFFCURVE",
"719 -30 OFFCURVE",
"742 -120 CURVE SMOOTH"
);
},
{
closed = 1;
nodes = (
"2369 1585 OFFCURVE",
"2186 1568 OFFCURVE",
"2382 1612 CURVE SMOOTH",
"2407 1617 OFFCURVE",
"2498 1834 OFFCURVE",
"2348 1834 CURVE SMOOTH",
"1280 1834 OFFCURVE",
"296 2131 OFFCURVE",
"90 1309 CURVE SMOOTH",
"62 1195 OFFCURVE",
"232 1197 OFFCURVE",
"259 1258 CURVE SMOOTH",
"342 1454 OFFCURVE",
"507 1625 OFFCURVE",
"1278 1609 CURVE SMOOTH"
);
}
);
width = 1366;
}
);
unicode = 0054;
userData = {
com.typemytype.robofont.layerData = {
};
};
},
{
glyphname = U;
lastChange = "2014-01-06 06:04:05 -0800";
layers = (
{
anchors = (
{
name = bot;
position = "{861, 0}";
},
{
name = ogonek;
position = "{0, 0}";
},
{
name = top;
position = "{861, 1940}";
}
);
background = {
anchors = (
{
name = bot;
position = "{861, 0}";
},
{
name = ogonek;
position = "{0, 0}";
},
{
name = top;
position = "{861, 1940}";
}
);
paths = (
{
closed = 1;
nodes = (
"1279 64 OFFCURVE",
"568 64 CURVE SMOOTH",
"15 64 OFFCURVE",
"187 1038 OFFCURVE",
"523 1587 CURVE SMOOTH",
"607 1724 OFFCURVE",
"378 1763 OFFCURVE",
"298 1630 CURVE SMOOTH",
"-90 985 OFFCURVE",
"-243 -160 OFFCURVE",
"539 -160 CURVE SMOOTH",
"1516 -160 OFFCURVE",
"2040 2051 OFFCURVE",
"1321 2026 CURVE SMOOTH",
"573 2000 OFFCURVE",
"1032 592 OFFCURVE",
"2046 1412 CURVE",
"2123 1473 OFFCURVE",
"2048 1599 OFFCURVE",
"1961 1533 CURVE",
"1191 958 OFFCURVE",
"954 1813 OFFCURVE",
"1284 1826 CURVE SMOOTH",
"1735 1844 OFFCURVE"
);
}
);
};
layerId = "DE4BB00D-BABA-4D36-9D9A-44FD0E91C3DF";
name = Light;
paths = (
{
closed = 1;
nodes = (
"1774.6 1879.59 OFFCURVE",
"1281.23 30 OFFCURVE",
"548 30 CURVE SMOOTH",
"-34 30 OFFCURVE",
"146.765 1052.67 OFFCURVE",
"485.082 1604.29 CURVE SMOOTH",
"537.603 1691.4 OFFCURVE",
"381.511 1721.39 OFFCURVE",
"315.995 1612.47 CURVE SMOOTH",
"-69 973.203 OFFCURVE",
"-213 -126 OFFCURVE",
"539 -126 CURVE SMOOTH",
"1493.86 -126 OFFCURVE",
"2001.54 2015.66 OFFCURVE",
"1321.73 1992.02 CURVE SMOOTH",
"621.166 1967.67 OFFCURVE",
"989.76 730.976 OFFCURVE",
"2031.92 1437.99 CURVE SMOOTH",
"2098.65 1483.25 OFFCURVE",
"2034.78 1584.48 OFFCURVE",
"1956.79 1532.49 CURVE SMOOTH",
"1116.09 971.373 OFFCURVE",
"905.35 1845.09 OFFCURVE",
"1283.17 1859.97 CURVE SMOOTH"
);
},
{
closed = 1;
nodes = (
"-112 1378 OFFCURVE",
"-79 1262 OFFCURVE",
"-18 1300 CURVE SMOOTH",
"420 1572 LINE SMOOTH",
"458 1596 OFFCURVE",
"421 1696 OFFCURVE",
"382 1673 CURVE SMOOTH",
"-51 1415 LINE SMOOTH"
);
}
);
width = 1571;
},
{
anchors = (
{
name = bot;
position = "{833.002, 0}";
},
{
name = ogonek;
position = "{0, 0}";
},
{
name = top;
position = "{833.002, 2030}";
}
);
background = {
paths = (
{
closed = 1;
nodes = (
);
},
{
closed = 1;
nodes = (
"-254 1131 OFFCURVE",
"-208 970 OFFCURVE",
"-102 1037 CURVE",
"568 1453 LINE",
"633 1493 OFFCURVE",
"581 1635 OFFCURVE",
"497 1584 CURVE",
"-168 1182 LINE"
);
},
{
closed = 1;
nodes = (
"1058 361 OFFCURVE",
"891 64 OFFCURVE",
"582 64 CURVE SMOOTH",
"69 64 OFFCURVE",
"337 1038 OFFCURVE",
"633 1587 CURVE SMOOTH",
"709 1728 OFFCURVE",
"482 1767 OFFCURVE",
"408 1630 CURVE SMOOTH",
"60 985 OFFCURVE",
"-203 -160 OFFCURVE",
"539 -160 CURVE SMOOTH",
"968 -160 OFFCURVE",
"1177 93 OFFCURVE",
"1421 748 CURVE SMOOTH",
"1801 1526 OFFCURVE",
"1617 2016 OFFCURVE",
"1321 2026 CURVE",
"573 2028 OFFCURVE",
"1032 592 OFFCURVE",
"2046 1412 CURVE",
"2123 1473 OFFCURVE",
"2048 1599 OFFCURVE",
"1961 1533 CURVE",
"1191 958 OFFCURVE",
"954 1826 OFFCURVE",
"1284 1826 CURVE",
"1364 1826 OFFCURVE",
"1567 1551 OFFCURVE",
"1247 835 CURVE SMOOTH"
);
}
);
};
layerId = "5ACEE878-7952-4CAC-A6A7-BEDE971843B4";
name = Regular;
paths = (
{
closed = 1;
nodes = (
"1279 64 OFFCURVE",
"568 64 CURVE SMOOTH",
"15 64 OFFCURVE",
"187 1038 OFFCURVE",
"523 1587 CURVE SMOOTH",
"607 1724 OFFCURVE",
"378 1763 OFFCURVE",
"298 1630 CURVE SMOOTH",
"-90 985 OFFCURVE",
"-243 -160 OFFCURVE",
"539 -160 CURVE SMOOTH",
"1516 -160 OFFCURVE",
"2040 2051 OFFCURVE",
"1321 2026 CURVE SMOOTH",
"573 2000 OFFCURVE",
"1032 592 OFFCURVE",
"2046 1412 CURVE SMOOTH",
"2123 1473 OFFCURVE",
"2048 1599 OFFCURVE",
"1961 1533 CURVE SMOOTH",
"1191 958 OFFCURVE",
"954 1813 OFFCURVE",
"1284 1826 CURVE SMOOTH",
"1735 1844 OFFCURVE"
);
},
{
closed = 1;
nodes = (
"-187 1355 OFFCURVE",
"-141 1194 OFFCURVE",
"-35 1261 CURVE SMOOTH",
"431 1559 LINE SMOOTH",
"496 1599 OFFCURVE",
"444 1741 OFFCURVE",
"360 1690 CURVE SMOOTH",
"-101 1406 LINE SMOOTH"
);
}
);
width = 1559.01;
}
);
unicode = 0055;
userData = {
com.typemytype.robofont.layerData = {
};
};
},
{
glyphname = V;
lastChange = "2014-01-06 03:54:53 -0800";
layers = (
{
background = {
paths = (
{
closed = 1;
nodes = (
"1196 653 OFFCURVE",
"913 182 OFFCURVE",
"698 182 CURVE SMOOTH",
"584 182 OFFCURVE",
"543 297 OFFCURVE",
"543 459 CURVE SMOOTH",
"543 850 OFFCURVE",
"778 1516 OFFCURVE",
"778 1509 CURVE",
"778 1524 OFFCURVE",
"760 1530 OFFCURVE",
"752 1530 CURVE SMOOTH",
"688 1530 OFFCURVE",
"246 1235 OFFCURVE",
"-63 1057 CURVE",
"-63 946 LINE",
"125 1059 OFFCURVE",
"342 1196 OFFCURVE",
"385 1221 CURVE",
"500 1309 LINE SMOOTH",
"506 1313 OFFCURVE",
"508 1315 OFFCURVE",
"512 1315 CURVE SMOOTH",
"514 1315 OFFCURVE",
"514 1313 OFFCURVE",
"514 1309 CURVE SMOOTH",
"514 1286 OFFCURVE",
"455 1188 OFFCURVE",
"430 1151 CURVE SMOOTH",
"348 1028 OFFCURVE",
"260 721 OFFCURVE",
"260 451 CURVE SMOOTH",
"260 180 OFFCURVE",
"348 -57 OFFCURVE",
"621 -57 CURVE SMOOTH",
"1051 -57 OFFCURVE",
"1335 559 OFFCURVE",
"1413 918 CURVE",
"1559 942 OFFCURVE",
"1702 1018 OFFCURVE",
"1774 1065 CURVE",
"1774 1180 LINE",
"1604 1049 OFFCURVE",
"1425 1022 OFFCURVE",
"1425 1022 CURVE",
"1425 1118 OFFCURVE",
"1427 1518 OFFCURVE",
"1223 1518 CURVE SMOOTH",
"1065 1518 OFFCURVE",
"1008 1360 OFFCURVE",
"1008 1245 CURVE SMOOTH",
"1008 1032 OFFCURVE",
"1212 934 OFFCURVE",
"1286 922 CURVE"
);
},
{
closed = 1;
nodes = (
"1133 1300 OFFCURVE",
"1143 1339 OFFCURVE",
"1188 1339 CURVE SMOOTH",
"1257 1339 OFFCURVE",
"1298 1188 OFFCURVE",
"1298 1067 CURVE SMOOTH",
"1298 1055 OFFCURVE",
"1296 1040 OFFCURVE",
"1296 1028 CURVE",
"1210 1047 OFFCURVE",
"1133 1135 OFFCURVE",
"1133 1266 CURVE SMOOTH"
);
}
);
};
layerId = "DE4BB00D-BABA-4D36-9D9A-44FD0E91C3DF";
name = Light;
paths = (
{
closed = 1;
nodes = (
"1506 1778 OFFCURVE",
"1670 1508 OFFCURVE",
"1321 831 CURVE SMOOTH",
"1175 548 OFFCURVE",
"931 134 OFFCURVE",
"663 103 CURVE SMOOTH",
"524 87 OFFCURVE",
"433 191 OFFCURVE",
"433 478 CURVE SMOOTH",
"433 1014 OFFCURVE",
"731 1406 OFFCURVE",
"759 1444 CURVE SMOOTH",
"779 1471 OFFCURVE",
"679 1575 OFFCURVE",
"573 1422 CURVE SMOOTH",
"518 1343 OFFCURVE",
"274 983 OFFCURVE",
"274 498 CURVE SMOOTH",
"274 129 OFFCURVE",
"388 -57 OFFCURVE",
"621 -57 CURVE",
"940 -41 OFFCURVE",
"1187 317 OFFCURVE",
"1435 761 CURVE SMOOTH",
"1827 1463 OFFCURVE",
"1699 1932 OFFCURVE",
"1438 1942 CURVE",
"739 1942 OFFCURVE",
"1104 577 OFFCURVE",
"2113 1360 CURVE SMOOTH",
"2171 1405 OFFCURVE",
"2125 1491 OFFCURVE",
"2072 1453 CURVE SMOOTH",
"1223 842 OFFCURVE",
"1016 1778 OFFCURVE",
"1392 1778 CURVE SMOOTH"
);
},
{
closed = 1;
nodes = (
"-114 1034 OFFCURVE",
"-81 918 OFFCURVE",
"-20 956 CURVE SMOOTH",
"650 1372 LINE SMOOTH",
"689 1396 OFFCURVE",
"652 1497 OFFCURVE",
"612 1473 CURVE SMOOTH",
"-53 1071 LINE SMOOTH"
);
}
);
width = 1536;
},
{
layerId = "5ACEE878-7952-4CAC-A6A7-BEDE971843B4";
name = Regular;
paths = (
{
closed = 1;
nodes = (
"1492.01 1826 OFFCURVE",
"1650.87 1561.16 OFFCURVE",
"1292.84 845.106 CURVE SMOOTH",
"1146.47 562.368 OFFCURVE",
"871.368 114.949 OFFCURVE",
"629.261 87.0132 CURVE SMOOTH",
"516.207 73.8407 OFFCURVE",
"435 165.797 OFFCURVE",
"435 444 CURVE SMOOTH",
"435 1017.37 OFFCURVE",
"740.564 1496.69 OFFCURVE",
"765.236 1529.21 CURVE SMOOTH",
"795.643 1570.89 OFFCURVE",
"656.957 1716.03 OFFCURVE",
"527.052 1527.86 CURVE SMOOTH",
"467.465 1443.36 OFFCURVE",
"212 990.533 OFFCURVE",
"212 464 CURVE SMOOTH",
"212 88.4204 OFFCURVE",
"332.823 -110 OFFCURVE",
"591.959 -109 CURVE",
"935.262 -92 OFFCURVE",
"1215.53 314.637 OFFCURVE",
"1463.4 757.976 CURVE SMOOTH",
"1883.52 1535.77 OFFCURVE",
"1754.67 2015.5 OFFCURVE",
"1458.61 2026 CURVE SMOOTH",
"711.313 2027.96 OFFCURVE",
"1094.99 591.781 OFFCURVE",
"2152.26 1411.58 CURVE SMOOTH",
"2231.6 1472.97 OFFCURVE",
"2164.39 1598.97 OFFCURVE",
"2073.43 1533.38 CURVE SMOOTH",
"1273.21 957.713 OFFCURVE",
"1081.72 1826 OFFCURVE",
"1412 1826 CURVE SMOOTH"
);
},
{
closed = 1;
nodes = (
"-175 1131.18 OFFCURVE",
"-129 970.288 OFFCURVE",
"-23 1036.7 CURVE SMOOTH",
"647.198 1452.7 LINE SMOOTH",
"712.05 1492.89 OFFCURVE",
"660.127 1635.46 OFFCURVE",
"575.701 1584.29 CURVE SMOOTH",
"-89 1182.29 LINE SMOOTH"
);
}
);
width = 1536;
}
);
unicode = 0056;
},
{
glyphname = W;
lastChange = "2014-01-06 04:00:04 -0800";
layers = (
{
anchors = (
{
name = bot;
position = "{2086, 0}";
},
{
name = top;
position = "{2086, 1940}";
}
);
background = {
paths = (
{
closed = 1;
nodes = (
"2496 1778 OFFCURVE",
"2660 1508 OFFCURVE",
"2311 831 CURVE SMOOTH",
"2165 548 OFFCURVE",
"1921 134 OFFCURVE",
"1653 103 CURVE SMOOTH",
"1514 87 OFFCURVE",
"1423 191 OFFCURVE",
"1423 478 CURVE SMOOTH",
"1423 1014 OFFCURVE",
"1721 1406 OFFCURVE",
"1749 1444 CURVE SMOOTH",
"1769 1471 OFFCURVE",
"1669 1575 OFFCURVE",
"1563 1422 CURVE SMOOTH",
"1508 1343 OFFCURVE",
"1264 983 OFFCURVE",
"1264 498 CURVE SMOOTH",
"1264 129 OFFCURVE",
"1378 -57 OFFCURVE",
"1611 -57 CURVE",
"1930 -41 OFFCURVE",
"2177 317 OFFCURVE",
"2425 761 CURVE SMOOTH",
"2817 1463 OFFCURVE",
"2689 1932 OFFCURVE",
"2428 1942 CURVE",
"1729 1942 OFFCURVE",
"2094 577 OFFCURVE",
"3103 1360 CURVE SMOOTH",
"3161 1405 OFFCURVE",
"3115 1491 OFFCURVE",
"3062 1453 CURVE SMOOTH",
"2213 842 OFFCURVE",
"2006 1778 OFFCURVE",
"2382 1778 CURVE"
);
},
{
closed = 1;
nodes = (
"1749 1444 LINE",
"1359 1028 LINE",
"1289 831 LINE",
"1143 548 OFFCURVE",
"899 134 OFFCURVE",
"631 103 CURVE SMOOTH",
"492 87 OFFCURVE",
"401 191 OFFCURVE",
"401 478 CURVE SMOOTH",
"401 1014 OFFCURVE",
"699 1406 OFFCURVE",
"727 1444 CURVE SMOOTH",
"747 1471 OFFCURVE",
"647 1575 OFFCURVE",
"541 1422 CURVE SMOOTH",
"486 1343 OFFCURVE",
"242 983 OFFCURVE",
"242 498 CURVE SMOOTH",
"242 129 OFFCURVE",
"356 -57 OFFCURVE",
"589 -57 CURVE",
"908 -41 OFFCURVE",
"1155 317 OFFCURVE",
"1403 761 CURVE"
);
},
{
closed = 1;
nodes = (
"-146 1034 OFFCURVE",
"-113 918 OFFCURVE",
"-52 956 CURVE SMOOTH",
"618 1372 LINE SMOOTH",
"657 1396 OFFCURVE",
"620 1497 OFFCURVE",
"580 1473 CURVE SMOOTH",
"-85 1071 LINE SMOOTH"
);
}
);
};
layerId = "DE4BB00D-BABA-4D36-9D9A-44FD0E91C3DF";
name = Light;
paths = (
{
closed = 1;
nodes = (
"2496 1778 OFFCURVE",
"2660 1508 OFFCURVE",
"2311 831 CURVE SMOOTH",
"2165 548 OFFCURVE",
"1921 134 OFFCURVE",
"1653 103 CURVE SMOOTH",
"1514 87 OFFCURVE",
"1403 211 OFFCURVE",
"1403 538 CURVE SMOOTH",
"1403 604 OFFCURVE",
"1410 775 OFFCURVE",
"1424 803 CURVE SMOOTH",
"1439 833 OFFCURVE",
"1809 1424 OFFCURVE",
"1563 1422 CURVE SMOOTH",
"1447 1421 OFFCURVE",
"1285 983 OFFCURVE",
"1285 498 CURVE SMOOTH",
"1285 129 OFFCURVE",
"1378 -57 OFFCURVE",
"1611 -57 CURVE",
"1930 -41 OFFCURVE",
"2177 317 OFFCURVE",
"2425 761 CURVE SMOOTH",
"2817 1463 OFFCURVE",
"2689 1932 OFFCURVE",
"2428 1942 CURVE",
"1729 1942 OFFCURVE",
"2094 577 OFFCURVE",
"3103 1360 CURVE SMOOTH",
"3161 1405 OFFCURVE",
"3115 1491 OFFCURVE",
"3062 1453 CURVE SMOOTH",
"2213 842 OFFCURVE",
"2006 1778 OFFCURVE",
"2382 1778 CURVE SMOOTH"
);
},
{
closed = 1;
nodes = (
"1359 1028 LINE",
"1289 831 LINE",
"1143 548 OFFCURVE",
"899 134 OFFCURVE",
"631 103 CURVE SMOOTH",
"492 87 OFFCURVE",
"401 191 OFFCURVE",
"401 478 CURVE SMOOTH",
"401 1014 OFFCURVE",
"699 1406 OFFCURVE",
"727 1444 CURVE SMOOTH",
"747 1471 OFFCURVE",
"647 1575 OFFCURVE",
"541 1422 CURVE SMOOTH",
"486 1343 OFFCURVE",
"242 983 OFFCURVE",
"242 498 CURVE SMOOTH",
"242 129 OFFCURVE",
"356 -57 OFFCURVE",
"589 -57 CURVE",
"908 -41 OFFCURVE",
"1155 317 OFFCURVE",
"1403 761 CURVE"
);
},
{
closed = 1;
nodes = (
"-146 1034 OFFCURVE",
"-113 918 OFFCURVE",
"-52 956 CURVE SMOOTH",
"618 1372 LINE SMOOTH",
"657 1396 OFFCURVE",
"620 1497 OFFCURVE",
"580 1473 CURVE SMOOTH",
"-85 1071 LINE SMOOTH"
);
}
);
width = 2526.93;
},
{
anchors = (
{
name = bot;
position = "{1587, 0}";
},
{
name = top;
position = "{1587, 2030}";
}
);
background = {
paths = (
{
closed = 1;
nodes = (
"1284 845 LINE",
"1137 562 OFFCURVE",
"862 115 OFFCURVE",
"620 87 CURVE",
"507 74 OFFCURVE",
"426 166 OFFCURVE",
"426 444 CURVE",
"426 1017 OFFCURVE",
"732 1497 OFFCURVE",
"756 1529 CURVE",
"787 1571 OFFCURVE",
"648 1716 OFFCURVE",
"518 1528 CURVE",
"458 1443 OFFCURVE",
"203 991 OFFCURVE",
"203 464 CURVE",
"203 88 OFFCURVE",
"324 -110 OFFCURVE",
"583 -109 CURVE",
"926 -92 OFFCURVE",
"1207 315 OFFCURVE",
"1454 758 CURVE"
);
},
{
closed = 1;
nodes = (
"-184 1131 OFFCURVE",
"-138 970 OFFCURVE",
"-32 1037 CURVE",
"638 1453 LINE",
"703 1493 OFFCURVE",
"651 1635 OFFCURVE",
"567 1584 CURVE",
"-98 1182 LINE"
);
}
);
};
layerId = "5ACEE878-7952-4CAC-A6A7-BEDE971843B4";
name = Regular;
paths = (
{
closed = 1;
nodes = (
"2574 1826 OFFCURVE",
"2733 1561 OFFCURVE",
"2375 845 CURVE SMOOTH",
"2228 562 OFFCURVE",
"1953 115 OFFCURVE",
"1711 87 CURVE SMOOTH",
"1412 53 OFFCURVE",
"1505 1125 OFFCURVE",
"1682 1362 CURVE",
"1505 1361 LINE",
"1300 1008 OFFCURVE",
"1219 -111 OFFCURVE",
"1674 -109 CURVE",
"2017 -92 OFFCURVE",
"2298 315 OFFCURVE",
"2545 758 CURVE SMOOTH",
"2966 1536 OFFCURVE",
"2837 2016 OFFCURVE",
"2541 2026 CURVE SMOOTH",
"1793 2028 OFFCURVE",
"2177 592 OFFCURVE",
"3234 1412 CURVE SMOOTH",
"3314 1473 OFFCURVE",
"3246 1599 OFFCURVE",
"3155 1533 CURVE SMOOTH",
"2355 958 OFFCURVE",
"2164 1826 OFFCURVE",
"2494 1826 CURVE SMOOTH"
);
},
{
closed = 1;
nodes = (
"1554 900 LINE",
"1921 1561 OFFCURVE",
"1554 1474 OFFCURVE",
"1505 1361 CURVE",
"1330 865 LINE",
"1114 470 OFFCURVE",
"862 115 OFFCURVE",
"620 87 CURVE SMOOTH",
"507 74 OFFCURVE",
"426 166 OFFCURVE",
"426 444 CURVE SMOOTH",
"426 1017 OFFCURVE",
"732 1497 OFFCURVE",
"756 1529 CURVE SMOOTH",
"787 1571 OFFCURVE",
"648 1716 OFFCURVE",
"518 1528 CURVE SMOOTH",
"458 1443 OFFCURVE",
"203 991 OFFCURVE",
"203 464 CURVE SMOOTH",
"203 88 OFFCURVE",
"324 -110 OFFCURVE",
"583 -109 CURVE",
"926 -92 OFFCURVE",
"1233 338 OFFCURVE",
"1460 831 CURVE"
);
},
{
closed = 1;
nodes = (
"-184 1131 OFFCURVE",
"-138 970 OFFCURVE",
"-32 1037 CURVE SMOOTH",
"638 1453 LINE SMOOTH",
"703 1493 OFFCURVE",
"651 1635 OFFCURVE",
"567 1584 CURVE SMOOTH",
"-98 1182 LINE SMOOTH"
);
}
);
width = 2682.92;
}
);
unicode = 0057;
userData = {
com.typemytype.robofont.layerData = {
};
};
},
{
glyphname = X;
lastChange = "2014-01-05 22:55:37 -0800";
layers = (
{
background = {
paths = (
{
closed = 1;
nodes = (
"-207 -21 OFFCURVE",
"-216 -280 OFFCURVE",
"-62 -280 CURVE SMOOTH",
"148 -280 OFFCURVE",
"305 -238 OFFCURVE",
"638 173 CURVE SMOOTH",
"1000 619 OFFCURVE",
"1424 1171 OFFCURVE",
"1758.14 1509.64 CURVE SMOOTH",
"1987 1741 OFFCURVE",
"1741.17 1855.2 OFFCURVE",
"1625.17 1712.37 CURVE SMOOTH",
"1303 1258 OFFCURVE",
"859 712 OFFCURVE",
"548 338 CURVE SMOOTH",
"317 61 OFFCURVE",
"155 -21 OFFCURVE",
"-84 -21 CURVE SMOOTH"
);
},
{
closed = 1;
nodes = (
"-162 1301 OFFCURVE",
"-44 1196 OFFCURVE",
"12 1248 CURVE SMOOTH",
"381 1590 OFFCURVE",
"426 1512 OFFCURVE",
"505.308 1321.38 CURVE SMOOTH",
"1048.31 17.384 LINE SMOOTH",
"1201.01 -349 OFFCURVE",
"1399.02 -335 OFFCURVE",
"1656.5 -82 CURVE SMOOTH",
"1976.53 230.715 LINE SMOOTH",
"2030.29 283.7 OFFCURVE",
"1914 376 OFFCURVE",
"1886 349 CURVE SMOOTH",
"1564 45 LINE SMOOTH",
"1417 -93 OFFCURVE",
"1345.34 17.513 OFFCURVE",
"1279.52 181.628 CURVE SMOOTH",
"807 1431 LINE SMOOTH",
"686 1749 OFFCURVE",
"355 1834 OFFCURVE",
"-86 1379.12 CURVE SMOOTH"
);
}
);
};
layerId = "DE4BB00D-BABA-4D36-9D9A-44FD0E91C3DF";
name = Light;
paths = (
{
closed = 1;
nodes = (
"-214 -102 OFFCURVE",
"-220 -279 OFFCURVE",
"-102 -279 CURVE SMOOTH",
"105.896 -279 OFFCURVE",
"270.988 -205 OFFCURVE",
"608.255 178.697 CURVE SMOOTH",
"935.068 550.621 OFFCURVE",
"1459.97 1263.49 OFFCURVE",
"1789.99 1598.49 CURVE SMOOTH",
"1922.27 1731.83 OFFCURVE",
"1735.94 1815.96 OFFCURVE",
"1676.04 1718.62 CURVE",
"1344.86 1238.29 OFFCURVE",
"857.014 668.471 OFFCURVE",
"527.617 272.196 CURVE SMOOTH",
"284.82 -20 OFFCURVE",
"121.904 -102 OFFCURVE",
"-124 -102 CURVE SMOOTH"
);
},
{
closed = 1;
nodes = (
"-137 1360.22 OFFCURVE",
"-50 1288.99 OFFCURVE",
"-17 1318.26 CURVE SMOOTH",
"383.29 1674.5 OFFCURVE",
"455.557 1592.04 OFFCURVE",
"538.549 1395.06 CURVE SMOOTH",
"1121.54 3.06846 LINE SMOOTH",
"1246.58 -296 OFFCURVE",
"1446 -320 OFFCURVE",
"1668.89 -103 CURVE SMOOTH",
"1988.89 210.426 LINE",
"2002.53 221.863 OFFCURVE",
"1912.53 292.012 OFFCURVE",
"1904.05 283.536 CURVE SMOOTH",
"1582.19 -20 LINE SMOOTH",
"1427.17 -167 OFFCURVE",
"1328.21 -99 OFFCURVE",
"1246.51 106.841 CURVE SMOOTH",
"713.511 1456.84 LINE SMOOTH",
"604.156 1743.41 OFFCURVE",
"324.043 1835.68 OFFCURVE",
"-98 1400.48 CURVE SMOOTH"
);
}
);
width = 1786;
},
{
background = {
paths = (
{
closed = 1;
nodes = (
"-255 2 OFFCURVE",
"-214 -259 OFFCURVE",
"-62 -259 CURVE SMOOTH",
"162 -259 OFFCURVE",
"315 -213 OFFCURVE",
"645 194 CURVE SMOOTH",
"1017 653 OFFCURVE",
"1521 1193 OFFCURVE",
"1785 1509 CURVE SMOOTH",
"1999 1765 OFFCURVE",
"1732 1878 OFFCURVE",
"1598 1713 CURVE SMOOTH",
"1275 1316 OFFCURVE",
"821 722 OFFCURVE",
"521 361 CURVE SMOOTH",
"282 74 OFFCURVE",
"139 2 OFFCURVE",
"-84 2 CURVE SMOOTH"
);
},
{
closed = 1;
nodes = (
"-175 1341 OFFCURVE",
"-134 1208 OFFCURVE",
"-63 1247 CURVE SMOOTH",
"265 1426 LINE SMOOTH",
"366 1481 OFFCURVE",
"418 1453 OFFCURVE",
"473 1321 CURVE SMOOTH",
"1016 17 LINE SMOOTH",
"1170 -353 OFFCURVE",
"1425 -334 OFFCURVE",
"1681 -83 CURVE SMOOTH",
"2001 230 LINE SMOOTH",
"2064 292 OFFCURVE",
"1973 409 OFFCURVE",
"1908 348 CURVE SMOOTH",
"1586 44 LINE SMOOTH",
"1460 -75 OFFCURVE",
"1385 0 OFFCURVE",
"1312 182 CURVE SMOOTH",
"758 1559 LINE SMOOTH",
"656 1813 OFFCURVE",
"489 1705 OFFCURVE",
"301 1602 CURVE SMOOTH",
"-103 1380 LINE SMOOTH"
);
}
);
};
layerId = "5ACEE878-7952-4CAC-A6A7-BEDE971843B4";
name = Regular;
paths = (
{
closed = 1;
nodes = (
"-207 -21 OFFCURVE",
"-216 -280 OFFCURVE",
"-62 -280 CURVE SMOOTH",
"148 -280 OFFCURVE",
"305 -238 OFFCURVE",
"638 173 CURVE SMOOTH",
"1000 619 OFFCURVE",
"1424 1171 OFFCURVE",
"1758.14 1509.64 CURVE SMOOTH",
"1987 1741 OFFCURVE",
"1741.17 1855.2 OFFCURVE",
"1625.17 1712.37 CURVE SMOOTH",
"1303 1258 OFFCURVE",
"859 712 OFFCURVE",
"548 338 CURVE SMOOTH",
"317 61 OFFCURVE",
"155 -21 OFFCURVE",
"-84 -21 CURVE SMOOTH"
);
},
{
closed = 1;
nodes = (
"-162 1301 OFFCURVE",
"-44 1196 OFFCURVE",
"12 1248 CURVE SMOOTH",
"381 1590 OFFCURVE",
"426 1512 OFFCURVE",
"505.308 1321.38 CURVE SMOOTH",
"1048.31 17.3844 LINE SMOOTH",
"1201.01 -349 OFFCURVE",
"1399.02 -335 OFFCURVE",
"1656.5 -82 CURVE SMOOTH",
"1976.53 230.715 LINE SMOOTH",
"2030.29 283.7 OFFCURVE",
"1914 376 OFFCURVE",
"1886 349 CURVE SMOOTH",
"1564 45 LINE SMOOTH",
"1417 -93 OFFCURVE",
"1345.34 17.5127 OFFCURVE",
"1279.52 181.628 CURVE SMOOTH",
"807 1431 LINE SMOOTH",
"686 1749 OFFCURVE",
"355 1834 OFFCURVE",
"-86 1379.12 CURVE SMOOTH"
);
}
);
width = 1746;
}
);
unicode = 0058;
},
{
glyphname = Y;
lastChange = "2014-01-06 06:21:06 -0800";
layers = (
{
anchors = (
{
name = bot;
position = "{730.5, 0}";
},
{
name = top;
position = "{1062, 1940}";
}
);
background = {
paths = (
{
closed = 1;
nodes = (
"950 943 CURVE",
"794 943 OFFCURVE",
"603 844 OFFCURVE",
"446 669 CURVE",
"377 592 OFFCURVE",
"469 529 OFFCURVE",
"505 569 CURVE",
"607 685 OFFCURVE",
"786 817 OFFCURVE",
"901 817 CURVE",
"1088 817 OFFCURVE",
"1091 592 OFFCURVE",
"1046 288 CURVE",
"742 53 OFFCURVE",
"379 -373 OFFCURVE",
"348 -788 CURVE",
"340 -895 OFFCURVE",
"405 -980 OFFCURVE",
"515 -980 CURVE",
"909 -980 OFFCURVE",
"1180 -82 OFFCURVE",
"1219 417 CURVE",
"1243 751 OFFCURVE",
"1175 943 OFFCURVE"
);
},
{
closed = 1;
nodes = (
"1037 151 CURVE",
"999 -107 OFFCURVE",
"796 -800 OFFCURVE",
"583 -800 CURVE",
"529 -800 OFFCURVE",
"503 -766 OFFCURVE",
"503 -710 CURVE",
"503 -434 OFFCURVE",
"840 -51 OFFCURVE"
);
}
);
};
layerId = "DE4BB00D-BABA-4D36-9D9A-44FD0E91C3DF";
name = Light;
paths = (
{
closed = 1;
nodes = (
"536.018 -808 OFFCURVE",
"496 -779 OFFCURVE",
"496 -705 CURVE SMOOTH",
"496 -468 OFFCURVE",
"1119.74 204.381 OFFCURVE",
"1703.98 614.548 CURVE SMOOTH",
"1734.31 635.863 OFFCURVE",
"1695.19 731.478 OFFCURVE",
"1663.92 710.369 CURVE SMOOTH",
"1279.88 451.346 OFFCURVE",
"355 -350 OFFCURVE",
"355 -802 CURVE SMOOTH",
"355 -898 OFFCURVE",
"412.177 -972 OFFCURVE",
"515 -972 CURVE SMOOTH",
"866.461 -972 OFFCURVE",
"1029.41 -553 OFFCURVE",
"1256.22 321.009 CURVE SMOOTH",
"1533 1501 LINE SMOOTH",
"1560 1616 OFFCURVE",
"1558 1670 OFFCURVE",
"1454 1670 CURVE SMOOTH",
"1419 1670 OFFCURVE",
"1384 1636 OFFCURVE",
"1365 1551 CURVE SMOOTH",
"1153.41 606.245 LINE",
"712.951 31.1618 OFFCURVE",
"-174 -123 OFFCURVE",
"524 1655 CURVE SMOOTH",
"538 1691 OFFCURVE",
"502 1702 OFFCURVE",
"464 1702 CURVE SMOOTH",
"405 1702 OFFCURVE",
"381 1666 OFFCURVE",
"361 1626 CURVE SMOOTH",
"-273 390 OFFCURVE",
"297.464 -529 OFFCURVE",
"1133.42 469.231 CURVE",
"948.458 -347 OFFCURVE",
"697.219 -808 OFFCURVE",
"583 -808 CURVE SMOOTH"
);
}
);
width = 1461;
},
{
anchors = (
{
name = bot;
position = "{730.5, 0}";
},
{
name = top;
position = "{1018, 2030}";
}
);
layerId = "5ACEE878-7952-4CAC-A6A7-BEDE971843B4";
name = Regular;
paths = (
{
closed = 1;
nodes = (
"504 -786 OFFCURVE",
"478 -766 OFFCURVE",
"478 -705 CURVE SMOOTH",
"478 -476 OFFCURVE",
"1206 241 OFFCURVE",
"1783 647 CURVE SMOOTH",
"1837 684 OFFCURVE",
"1779 825 OFFCURVE",
"1709 778 CURVE SMOOTH",
"1321 516 OFFCURVE",
"277 -342 OFFCURVE",
"277 -802 CURVE SMOOTH",
"277 -907 OFFCURVE",
"343 -994 OFFCURVE",
"467 -994 CURVE SMOOTH",
"845 -994 OFFCURVE",
"1009 -561 OFFCURVE",
"1237 315 CURVE",
"1237 316 LINE",
"1514 1496 LINE SMOOTH",
"1543 1617 OFFCURVE",
"1541 1692 OFFCURVE",
"1406 1692 CURVE SMOOTH",
"1352 1692 OFFCURVE",
"1308 1648 OFFCURVE",
"1288 1556 CURVE SMOOTH",
"1076 613 LINE",
"643 54 OFFCURVE",
"-174 -81 OFFCURVE",
"504 1647 CURVE SMOOTH",
"527 1708 OFFCURVE",
"464 1724 OFFCURVE",
"416 1724 CURVE SMOOTH",
"339 1724 OFFCURVE",
"305 1674 OFFCURVE",
"286 1636 CURVE SMOOTH",
"-336 423 OFFCURVE",
"205 -520 OFFCURVE",
"1029 363 CURVE",
"850 -374 OFFCURVE",
"615 -786 OFFCURVE",
"535 -786 CURVE SMOOTH"
);
}
);
width = 1461;
}
);
unicode = 0059;
userData = {
com.typemytype.robofont.layerData = {
};
};
},
{
glyphname = Z;
lastChange = "2014-01-05 19:36:40 -0800";
layers = (
{
anchors = (
{
name = bot;
position = "{632.5, 0}";
},
{
name = top;
position = "{632.5, 1940}";
}
);
background = {
paths = (
{
closed = 1;
nodes = (
"817 1190 OFFCURVE",
"251 543 OFFCURVE",
"87 379 CURVE",
"-31 262 OFFCURVE",
"-182 94 OFFCURVE",
"-141 46 CURVE",
"-105 3 OFFCURVE",
"-58 -9 OFFCURVE",
"-7 -2 CURVE",
"245 149 LINE",
"670 -69 OFFCURVE",
"939 -375 OFFCURVE",
"1545 6 CURVE",
"1561 16 OFFCURVE",
"1544 107 OFFCURVE",
"1537 125 CURVE",
"1518 170 OFFCURVE",
"1509 224 OFFCURVE",
"1463 194 CURVE",
"908 -166 OFFCURVE",
"998 45 OFFCURVE",
"420 296 CURVE",
"409 319 LINE",
"644 565 OFFCURVE",
"1254 1247 OFFCURVE",
"1707 1615 CURVE",
"1594 1763 OFFCURVE",
"1575 1728 OFFCURVE",
"1379 1590 CURVE"
);
},
{
closed = 1;
nodes = (
"1892 1585 OFFCURVE",
"1716 1568 OFFCURVE",
"1904 1612 CURVE",
"1928 1617 OFFCURVE",
"2016 1834 OFFCURVE",
"1871 1834 CURVE",
"844 1834 OFFCURVE",
"-38 2131 OFFCURVE",
"-236 1309 CURVE",
"-263 1195 OFFCURVE",
"-100 1197 OFFCURVE",
"-74 1258 CURVE",
"6 1454 OFFCURVE",
"165 1625 OFFCURVE",
"906 1609 CURVE"
);
}
);
};
layerId = "DE4BB00D-BABA-4D36-9D9A-44FD0E91C3DF";
name = Light;
paths = (
{
closed = 1;
nodes = (
"1575 1728 LINE",
"575 834 OFFCURVE",
"-161 185 OFFCURVE",
"-146 68 CURVE SMOOTH",
"-138 5 OFFCURVE",
"-52 -9 OFFCURVE",
"52 116 CURVE",
"486 -125 OFFCURVE",
"932 -306 OFFCURVE",
"1543 64 CURVE",
"1594 80 OFFCURVE",
"1532 195 OFFCURVE",
"1490 173 CURVE SMOOTH",
"1125 -20 OFFCURVE",
"827 -139 OFFCURVE",
"138 233 CURVE",
"507 622 OFFCURVE",
"1232 1239 OFFCURVE",
"1748 1726 CURVE"
);
},
{
closed = 1;
nodes = (
"1927 1684 OFFCURVE",
"1941 1712 OFFCURVE",
"1941 1754 CURVE SMOOTH",
"1942 1801 OFFCURVE",
"1907 1839 OFFCURVE",
"1871 1834 CURVE",
"1467 1834 OFFCURVE",
"1024 1882 OFFCURVE",
"669 1882 CURVE SMOOTH",
"59 1882 OFFCURVE",
"-196 1595 OFFCURVE",
"-196 1274 CURVE SMOOTH",
"-196 1215 OFFCURVE",
"-100 1195 OFFCURVE",
"-86 1246 CURVE SMOOTH",
"-10 1531 OFFCURVE",
"84 1734 OFFCURVE",
"661 1734 CURVE SMOOTH",
"867 1734 OFFCURVE",
"1226 1684 OFFCURVE",
"1727 1684 CURVE SMOOTH"
);
}
);
width = 1265;
},
{
anchors = (
{
name = bot;
position = "{632.5, 0}";
},
{
name = top;
position = "{632.5, 2030}";
}
);
background = {
anchors = (
{
name = top;
position = "{632.5, 2030}";
},
{
name = bot;
position = "{632.5, 0}";
}
);
};
layerId = "5ACEE878-7952-4CAC-A6A7-BEDE971843B4";
name = Regular;
paths = (
{
closed = 1;
nodes = (
"817 1190 OFFCURVE",
"251 543 OFFCURVE",
"87 379 CURVE SMOOTH",
"-31 262 OFFCURVE",
"-182 94 OFFCURVE",
"-141 46 CURVE SMOOTH",
"-105 3 OFFCURVE",
"-58 -9 OFFCURVE",
"-7 -2 CURVE",
"245 149 LINE",
"670 -69 OFFCURVE",
"939 -375 OFFCURVE",
"1545 6 CURVE SMOOTH",
"1561 16 OFFCURVE",
"1544 107 OFFCURVE",
"1537 125 CURVE SMOOTH",
"1518 170 OFFCURVE",
"1509 224 OFFCURVE",
"1463 194 CURVE SMOOTH",
"908 -166 OFFCURVE",
"998 45 OFFCURVE",
"420 296 CURVE",
"409 319 LINE",
"644 565 OFFCURVE",
"1254 1247 OFFCURVE",
"1707 1615 CURVE",
"1594 1763 OFFCURVE",
"1575 1728 OFFCURVE",
"1379 1590 CURVE SMOOTH"
);
},
{
closed = 1;
nodes = (
"1892 1585 OFFCURVE",
"1716 1568 OFFCURVE",
"1904 1612 CURVE SMOOTH",
"1928 1617 OFFCURVE",
"2016 1834 OFFCURVE",
"1871 1834 CURVE SMOOTH",
"844 1834 OFFCURVE",
"-38 2131 OFFCURVE",
"-236 1309 CURVE SMOOTH",
"-263 1195 OFFCURVE",
"-100 1197 OFFCURVE",
"-74 1258 CURVE SMOOTH",
"6 1454 OFFCURVE",
"165 1625 OFFCURVE",
"906 1609 CURVE SMOOTH"
);
}
);
width = 1265;
}
);
unicode = 005A;
userData = {
com.typemytype.robofont.layerData = {
};
};
},
{
glyphname = bracketleft;
lastChange = "2014-01-04 15:27:21 -0800";
layers = (
{
layerId = "DE4BB00D-BABA-4D36-9D9A-44FD0E91C3DF";
name = Light;
paths = (
{
closed = 1;
nodes = (
"353 -162 CURVE",
"671 -162 LINE",
"728.906 -162 OFFCURVE",
"798 -102 OFFCURVE",
"798 -51 CURVE",
"798 -21 OFFCURVE",
"774.587 2 OFFCURVE",
"745 2 CURVE",
"423.828 2 LINE",
"461.655 238.151 OFFCURVE",
"499.536 488.441 OFFCURVE",
"536.331 734.444 CURVE",
"572.163 973.673 OFFCURVE",
"648.593 1245.74 OFFCURVE",
"641.544 1473 CURVE",
"958 1473 LINE",
"1005.24 1473 OFFCURVE",
"1058 1517.15 OFFCURVE",
"1058 1561 CURVE",
"1058 1603.53 OFFCURVE",
"1030.54 1637 OFFCURVE",
"989.999 1637 CURVE",
"672 1637 LINE",
"506.843 1637 OFFCURVE",
"443.904 1547.66 OFFCURVE",
"421.616 1410.22 CURVE",
"358.772 1021.18 OFFCURVE",
"321.762 632.07 OFFCURVE",
"257.57 252.938 CURVE",
"238.09 139.132 OFFCURVE",
"206 53.56 OFFCURVE",
"206 -53 CURVE",
"206 -134 OFFCURVE",
"257.261 -162 OFFCURVE"
);
}
);
width = 927;
},
{
layerId = "5ACEE878-7952-4CAC-A6A7-BEDE971843B4";
name = Regular;
paths = (
{
closed = 1;
nodes = (
"353 -192 CURVE SMOOTH",
"671 -192 LINE SMOOTH",
"744 -192 OFFCURVE",
"828 -120 OFFCURVE",
"828 -51 CURVE SMOOTH",
"828 -5 OFFCURVE",
"791 32 OFFCURVE",
"745 32 CURVE SMOOTH",
"459 32 LINE",
"495 258 OFFCURVE",
"531 496 OFFCURVE",
"566 730 CURVE SMOOTH",
"600 957 OFFCURVE",
"672 1218 OFFCURVE",
"672 1443 CURVE",
"958 1443 LINE SMOOTH",
"1020 1443 OFFCURVE",
"1088 1499 OFFCURVE",
"1088 1561 CURVE SMOOTH",
"1088 1618 OFFCURVE",
"1049 1667 OFFCURVE",
"989.999 1667 CURVE SMOOTH",
"672 1667 LINE SMOOTH",
"487 1667 OFFCURVE",
"416 1563 OFFCURVE",
"392 1415 CURVE SMOOTH",
"329 1025 OFFCURVE",
"292 636 OFFCURVE",
"228 258 CURVE SMOOTH",
"209 147 OFFCURVE",
"176 59 OFFCURVE",
"176 -53 CURVE SMOOTH",
"176 -156 OFFCURVE",
"246 -192 OFFCURVE"
);
}
);
width = 927;
}
);
unicode = 005B;
},
{
glyphname = backslash;
lastChange = "2014-01-04 15:27:21 -0800";
layers = (
{
layerId = "DE4BB00D-BABA-4D36-9D9A-44FD0E91C3DF";
name = Light;
paths = (
{
closed = 1;
nodes = (
"1081 -48 CURVE",
"1129 -48 OFFCURVE",
"1157 -27 OFFCURVE",
"1157 16 CURVE",
"1157 122 OFFCURVE",
"673 1113 OFFCURVE",
"448 1612 CURVE",
"398 1725 OFFCURVE",
"370 1860 OFFCURVE",
"253 1860 CURVE",
"156 1860 OFFCURVE",
"154 1757 OFFCURVE",
"199 1660 CURVE",
"428 1148 OFFCURVE",
"666 542 OFFCURVE",
"922 39 CURVE",
"946 -10 OFFCURVE",
"1005 -48 OFFCURVE"
);
}
);
width = 1248;
},
{
layerId = "5ACEE878-7952-4CAC-A6A7-BEDE971843B4";
name = Regular;
paths = (
{
closed = 1;
nodes = (
"1053 -39 CURVE SMOOTH",
"1114 -39 OFFCURVE",
"1159 -8 OFFCURVE",
"1159 55 CURVE SMOOTH",
"1159 108 OFFCURVE",
"1140 150 OFFCURVE",
"1120 197 CURVE SMOOTH",
"913 656 OFFCURVE",
"696 1138 OFFCURVE",
"489 1598 CURVE SMOOTH",
"440 1708 OFFCURVE",
"408 1864 OFFCURVE",
"267 1864 CURVE SMOOTH",
"196 1864 OFFCURVE",
"155 1815 OFFCURVE",
"155 1743 CURVE SMOOTH",
"155 1697 OFFCURVE",
"168 1659 OFFCURVE",
"185 1622 CURVE SMOOTH",
"414 1111 OFFCURVE",
"611 569 OFFCURVE",
"867 64 CURVE SMOOTH",
"896 6 OFFCURVE",
"966 -39 OFFCURVE"
);
}
);
width = 1248;
}
);
unicode = 005C;
},
{
glyphname = bracketright;
lastChange = "2014-01-04 15:27:21 -0800";
layers = (
{
layerId = "DE4BB00D-BABA-4D36-9D9A-44FD0E91C3DF";
name = Light;
paths = (
{
closed = 1;
nodes = (
"108 -162 CURVE",
"416 -162 LINE",
"581.157 -162 OFFCURVE",
"644.096 -73 OFFCURVE",
"666.384 64.7841 CURVE",
"729.215 453.737 OFFCURVE",
"764.232 843.928 OFFCURVE",
"830.43 1223.06 CURVE",
"849.92 1336.92 OFFCURVE",
"882 1421.5 OFFCURVE",
"882 1528 CURVE",
"882 1608.7 OFFCURVE",
"830.739 1637 OFFCURVE",
"735 1637 CURVE",
"389 1637 LINE",
"339.569 1637 OFFCURVE",
"294 1590.73 OFFCURVE",
"294 1544 CURVE",
"294 1507.14 OFFCURVE",
"330.707 1473 OFFCURVE",
"369 1473 CURVE",
"663.949 1473 LINE",
"551.669 740.556 LINE",
"515.837 501.327 OFFCURVE",
"439.407 229.256 OFFCURVE",
"446.456 2 CURVE",
"119 2 LINE",
"76.3638 2 OFFCURVE",
"30 -40 OFFCURVE",
"30 -80 CURVE",
"30 -124 OFFCURVE",
"64.4862 -162 OFFCURVE"
);
}
);
width = 927;
},
{
layerId = "5ACEE878-7952-4CAC-A6A7-BEDE971843B4";
name = Regular;
paths = (
{
closed = 1;
nodes = (
"108 -192 CURVE SMOOTH",
"416 -192 LINE SMOOTH",
"601 -192 OFFCURVE",
"672 -88 OFFCURVE",
"696 60 CURVE SMOOTH",
"759 450 OFFCURVE",
"794 840 OFFCURVE",
"860 1218 CURVE SMOOTH",
"879 1329 OFFCURVE",
"912 1416 OFFCURVE",
"912 1528 CURVE SMOOTH",
"912 1631 OFFCURVE",
"842 1667 OFFCURVE",
"735 1667 CURVE SMOOTH",
"389 1667 LINE SMOOTH",
"323 1667 OFFCURVE",
"264 1607 OFFCURVE",
"264 1544 CURVE SMOOTH",
"264 1490 OFFCURVE",
"315 1443 OFFCURVE",
"369 1443 CURVE SMOOTH",
"629 1443 LINE",
"593 1217 OFFCURVE",
"557 978.999 OFFCURVE",
"522 745 CURVE SMOOTH",
"488 518 OFFCURVE",
"416 257 OFFCURVE",
"416 32 CURVE",
"119 32 LINE SMOOTH",
"61 32 OFFCURVE",
"0 -22 OFFCURVE",
"0 -80 CURVE SMOOTH",
"0 -139 OFFCURVE",
"47 -192 OFFCURVE"
);
}
);
width = 927;
}
);
unicode = 005D;
},
{
glyphname = asciicircum;
lastChange = "2014-01-04 15:27:21 -0800";
layers = (
{
layerId = "DE4BB00D-BABA-4D36-9D9A-44FD0E91C3DF";
name = Light;
paths = (
{
closed = 1;
nodes = (
"933 538 CURVE",
"988.665 538 OFFCURVE",
"1004.53 620.405 OFFCURVE",
"985.146 668.858 CURVE",
"984.955 669.346 LINE",
"917.341 847.332 OFFCURVE",
"838.009 1017.89 OFFCURVE",
"758.296 1175.33 CURVE",
"717.501 1255.02 OFFCURVE",
"670.254 1314 OFFCURVE",
"567 1314 CURVE",
"466.428 1314 OFFCURVE",
"421.965 1214.81 OFFCURVE",
"370.432 1117.81 CURVE",
"319.507 1022.95 OFFCURVE",
"263.596 916.12 OFFCURVE",
"212.664 818.251 CURVE",
"177.854 750.742 OFFCURVE",
"123 690.402 OFFCURVE",
"123 621 CURVE",
"123 571.373 OFFCURVE",
"172.968 541 OFFCURVE",
"194 541 CURVE",
"237.98 541 OFFCURVE",
"273 582 OFFCURVE",
"291.435 616.953 CURVE",
"310 652 OFFCURVE",
"496 1098 OFFCURVE",
"567 1176 CURVE",
"622 1098 OFFCURVE",
"790 703 OFFCURVE",
"811 654 CURVE SMOOTH",
"833.751 602.998 OFFCURVE",
"876.583 538 OFFCURVE"
);
}
);
width = 1089;
},
{
layerId = "5ACEE878-7952-4CAC-A6A7-BEDE971843B4";
name = Regular;
paths = (
{
closed = 1;
nodes = (
"197 504 CURVE SMOOTH",
"198 504 OFFCURVE",
"198 503 OFFCURVE",
"198 504 CURVE SMOOTH",
"198 505 OFFCURVE",
"197 508 OFFCURVE",
"194 511 CURVE",
"254 511 OFFCURVE",
"291 554 OFFCURVE",
"318 603 CURVE",
"578 1124 LINE",
"784 642 LINE SMOOTH",
"808 587 OFFCURVE",
"858 508 OFFCURVE",
"933 508 CURVE SMOOTH",
"986.999 508 OFFCURVE",
"1023 566 OFFCURVE",
"1023 622 CURVE SMOOTH",
"1023 640 OFFCURVE",
"1021 660 OFFCURVE",
"1013 680 CURVE SMOOTH",
"945 859 OFFCURVE",
"865 1031 OFFCURVE",
"785 1189 CURVE SMOOTH",
"742 1273 OFFCURVE",
"687 1344 OFFCURVE",
"567 1344 CURVE SMOOTH",
"447 1344 OFFCURVE",
"395 1228 OFFCURVE",
"344 1132 CURVE SMOOTH",
"293 1037 OFFCURVE",
"237 930 OFFCURVE",
"186 832 CURVE SMOOTH",
"153 768 OFFCURVE",
"92.9999 702 OFFCURVE",
"92.9999 621 CURVE SMOOTH",
"92.9999 570 OFFCURVE",
"186 504 OFFCURVE"
);
}
);
width = 1089;
}
);
unicode = 005E;
},
{
glyphname = underscore;
lastChange = "2014-01-04 15:27:21 -0800";
layers = (
{
layerId = "DE4BB00D-BABA-4D36-9D9A-44FD0E91C3DF";
name = Light;
paths = (
{
closed = 1;
nodes = (
"98 30 CURVE",
"1044 30 LINE",
"1174 30 OFFCURVE",
"1260 57 OFFCURVE",
"1260 163 CURVE",
"1260 187 OFFCURVE",
"1247 195 OFFCURVE",
"1208 195 CURVE",
"853 195 LINE",
"737.234 195 OFFCURVE",
"609 194 OFFCURVE",
"496 194 CURVE",
"206 194 LINE",
"97 194 OFFCURVE",
"-6 187 OFFCURVE",
"-6 108 CURVE",
"-6 56 OFFCURVE",
"37 30 OFFCURVE"
);
}
);
width = 1248;
},
{
layerId = "5ACEE878-7952-4CAC-A6A7-BEDE971843B4";
name = Regular;
paths = (
{
closed = 1;
nodes = (
"128 0 CURVE SMOOTH",
"1020 0 LINE SMOOTH",
"1156 0 OFFCURVE",
"1266 33 OFFCURVE",
"1266 163 CURVE SMOOTH",
"1266 210 OFFCURVE",
"1233 225 OFFCURVE",
"1184 225 CURVE SMOOTH",
"853 225 LINE SMOOTH",
"737 225 OFFCURVE",
"609 224 OFFCURVE",
"496 224 CURVE SMOOTH",
"236 224 LINE SMOOTH",
"124 224 OFFCURVE",
"-6 218 OFFCURVE",
"-6 108 CURVE SMOOTH",
"-6 34 OFFCURVE",
"55 0 OFFCURVE"
);
}
);
width = 1248;
}
);
unicode = 005F;
},
{
glyphname = grave;
lastChange = "2014-01-04 15:27:21 -0800";
layers = (
{
anchors = (
{
name = _top;
position = "{304.5, 953}";
}
);
layerId = "DE4BB00D-BABA-4D36-9D9A-44FD0E91C3DF";
name = Light;
paths = (
{
closed = 1;
nodes = (
"405 1202 CURVE",
"433 1202 OFFCURVE",
"441 1245 OFFCURVE",
"426 1274 CURVE",
"356 1426 OFFCURVE",
"282 1582 OFFCURVE",
"215 1737 CURVE",
"203 1765 OFFCURVE",
"182 1782 OFFCURVE",
"148 1782 CURVE",
"85 1782 OFFCURVE",
"33 1737 OFFCURVE",
"33 1676 CURVE",
"33 1652 OFFCURVE",
"41 1629 OFFCURVE",
"64 1597 CURVE",
"125 1513 OFFCURVE",
"215 1405 OFFCURVE",
"282 1323 CURVE",
"319 1277 OFFCURVE",
"356 1202 OFFCURVE"
);
}
);
width = 609;
},
{
anchors = (
{
name = _top;
position = "{304.5, 953}";
}
);
layerId = "5ACEE878-7952-4CAC-A6A7-BEDE971843B4";
name = Regular;
paths = (
{
closed = 1;
nodes = (
"448 1088 CURVE SMOOTH",
"483 1088 OFFCURVE",
"506 1119 OFFCURVE",
"506 1155 CURVE SMOOTH",
"506 1173 OFFCURVE",
"503 1189 OFFCURVE",
"496 1203 CURVE",
"427 1354 OFFCURVE",
"371 1491 OFFCURVE",
"304 1646 CURVE SMOOTH",
"288 1683 OFFCURVE",
"256 1710 OFFCURVE",
"209 1710 CURVE SMOOTH",
"131 1710 OFFCURVE",
"64 1652 OFFCURVE",
"64 1574 CURVE SMOOTH",
"64 1544 OFFCURVE",
"76 1512 OFFCURVE",
"101 1477 CURVE SMOOTH",
"163 1392 OFFCURVE",
"235 1302 OFFCURVE",
"302 1220 CURVE SMOOTH",
"337 1177 OFFCURVE",
"380 1088 OFFCURVE"
);
}
);
width = 609;
}
);
unicode = 0060;
userData = {
com.typemytype.robofont.layerData = {
};
};
},
{
glyphname = a;
lastChange = "2014-01-06 05:36:00 -0800";
layers = (
{
anchors = (
{
name = bot;
position = "{494, 0}";
},
{
name = ogonek;
position = "{-19, 0}";
},
{
name = top;
position = "{714, 953}";
}
);
layerId = "DE4BB00D-BABA-4D36-9D9A-44FD0E91C3DF";
name = Light;
paths = (
{
closed = 1;
nodes = (
"47.9143 97.5022 OFFCURVE",
"130.777 -12 OFFCURVE",
"274.895 -17 CURVE SMOOTH",
"438.521 -23 OFFCURVE",
"625.585 82.1397 OFFCURVE",
"656.957 266.328 CURVE",
"651.038 267.638 LINE",
"624.746 104.827 OFFCURVE",
"701.747 -4 OFFCURVE",
"826 -4 CURVE SMOOTH",
"974.883 -4 OFFCURVE",
"1126.93 135.967 OFFCURVE",
"1196.44 232.665 CURVE",
"1196.47 232.777 OFFCURVE",
"1209.33 155.62 OFFCURVE",
"1198.99 269.362 CURVE",
"1195.9 293.088 OFFCURVE",
"1174.96 358 OFFCURVE",
"1158 358 CURVE",
"1158.27 357.982 OFFCURVE",
"1148.89 359.154 OFFCURVE",
"1136.58 342.365 CURVE SMOOTH",
"1086.83 276.701 OFFCURVE",
"1000.57 146.829 OFFCURVE",
"850.606 126.965 CURVE SMOOTH",
"770.229 116.313 OFFCURVE",
"751.101 210.999 OFFCURVE",
"766.94 289.206 CURVE SMOOTH",
"872.943 824.223 LINE SMOOTH",
"881.296 865.985 OFFCURVE",
"864.329 892 OFFCURVE",
"821 892 CURVE SMOOTH",
"759.864 892 LINE",
"766.182 926.415 OFFCURVE",
"765.957 970 OFFCURVE",
"648 970 CURVE SMOOTH",
"328.729 970 OFFCURVE",
"75.0805 604.625 OFFCURVE",
"56.0044 251.216 CURVE SMOOTH"
);
},
{
closed = 1;
nodes = (
"594.247 343.57 OFFCURVE",
"497.231 104 OFFCURVE",
"338 104 CURVE SMOOTH",
"235.983 104 OFFCURVE",
"205.034 202.652 OFFCURVE",
"207.997 269.824 CURVE SMOOTH",
"226.806 612.326 OFFCURVE",
"469.505 867.401 OFFCURVE",
"730.836 840.44 CURVE",
"620.108 438.061 LINE SMOOTH"
);
}
);
width = 974;
},
{
anchors = (
{
name = bot;
position = "{512.5, 0}";
},
{
name = ogonek;
position = "{0, 0}";
},
{
name = top;
position = "{710, 953}";
}
);
layerId = "5ACEE878-7952-4CAC-A6A7-BEDE971843B4";
name = Regular;
paths = (
{
closed = 1;
nodes = (
"326 -16 CURVE SMOOTH",
"466 -22 OFFCURVE",
"599 60 OFFCURVE",
"656 191 CURVE",
"671 74 OFFCURVE",
"749 0 OFFCURVE",
"860 0 CURVE SMOOTH",
"1023 0 OFFCURVE",
"1183 150 OFFCURVE",
"1254 250 CURVE",
"1258 258 OFFCURVE",
"1260 272 OFFCURVE",
"1260 287 CURVE SMOOTH",
"1260 342 OFFCURVE",
"1235 424 OFFCURVE",
"1192 424 CURVE SMOOTH",
"1180 424 OFFCURVE",
"1165 416 OFFCURVE",
"1150 399 CURVE",
"1101 335 OFFCURVE",
"981.999 203 OFFCURVE",
"885 203 CURVE SMOOTH",
"840 203 OFFCURVE",
"830 254 OFFCURVE",
"838 303 CURVE SMOOTH",
"921 809 LINE SMOOTH",
"931 867 OFFCURVE",
"899 902 OFFCURVE",
"840 902 CURVE SMOOTH",
"762 902 LINE",
"762 929 OFFCURVE",
"770 980 OFFCURVE",
"643 980 CURVE SMOOTH",
"366 980 OFFCURVE",
"52 656 OFFCURVE",
"52 289 CURVE SMOOTH",
"52 123 OFFCURVE",
"152 -8 OFFCURVE"
);
},
{
closed = 1;
nodes = (
"392 190 CURVE SMOOTH",
"311 190 OFFCURVE",
"293 260 OFFCURVE",
"293 324 CURVE SMOOTH",
"293 508 OFFCURVE",
"469 787 OFFCURVE",
"708 787 CURVE",
"628 474 LINE SMOOTH",
"604 380 OFFCURVE",
"531 190 OFFCURVE"
);
}
);
width = 1025;
}
);
unicode = 0061;
userData = {
com.typemytype.robofont.layerData = {
};
};
},
{
glyphname = b;
lastChange = "2014-01-05 16:14:33 -0800";
layers = (
{
anchors = (
{
name = top;
position = "{543, 953}";
}
);
layerId = "DE4BB00D-BABA-4D36-9D9A-44FD0E91C3DF";
name = Light;
paths = (
{
closed = 1;
nodes = (
"502 -16 CURVE SMOOTH",
"810.952 -16 OFFCURVE",
"953.632 283.144 OFFCURVE",
"956.115 551.14 CURVE SMOOTH",
"958.153 771.003 OFFCURVE",
"865.831 969.901 OFFCURVE",
"693.547 965.454 CURVE SMOOTH",
"648.969 964.304 OFFCURVE",
"599.036 949.539 OFFCURVE",
"544 918 CURVE",
"716 1045 OFFCURVE",
"1033 1380 OFFCURVE",
"1033 1693 CURVE SMOOTH",
"1033 1830 OFFCURVE",
"969 1920 OFFCURVE",
"799 1920 CURVE SMOOTH",
"399 1920 OFFCURVE",
"159 1070 OFFCURVE",
"130 375 CURVE SMOOTH",
"121 167 OFFCURVE",
"226 -16 OFFCURVE"
);
},
{
closed = 1;
nodes = (
"893 373 CURVE SMOOTH",
"1034 373 OFFCURVE",
"1200 460 OFFCURVE",
"1295 548 CURVE SMOOTH",
"1316 568 OFFCURVE",
"1319 576 OFFCURVE",
"1319 606 CURVE SMOOTH",
"1319 640 OFFCURVE",
"1302 656 OFFCURVE",
"1285 656 CURVE SMOOTH",
"1267 656 OFFCURVE",
"1118 503 OFFCURVE",
"957 503 CURVE SMOOTH",
"812 505 OFFCURVE",
"891 627 OFFCURVE",
"796 620 CURVE SMOOTH",
"713 614 OFFCURVE",
"692 559 OFFCURVE",
"692 507 CURVE SMOOTH",
"692 426 OFFCURVE",
"759 373 OFFCURVE"
);
},
{
closed = 1;
nodes = (
"500 115 CURVE SMOOTH",
"343 115 OFFCURVE",
"271 223 OFFCURVE",
"271 395 CURVE SMOOTH",
"271 594 OFFCURVE",
"425 837 OFFCURVE",
"630 837 CURVE SMOOTH",
"808 837 OFFCURVE",
"817 656 OFFCURVE",
"817 527 CURVE SMOOTH",
"817 345 OFFCURVE",
"679 115 OFFCURVE"
);
},
{
closed = 1;
nodes = (
"313 792 CURVE",
"357 1244 OFFCURVE",
"597 1764 OFFCURVE",
"788 1764 CURVE SMOOTH",
"848 1764 OFFCURVE",
"871 1720 OFFCURVE",
"871 1678 CURVE SMOOTH",
"871 1339 OFFCURVE",
"349 833 OFFCURVE"
);
}
);
width = 1086;
},
{
anchors = (
{
name = top;
position = "{554, 953}";
}
);
layerId = "5ACEE878-7952-4CAC-A6A7-BEDE971843B4";
name = Regular;
paths = (
{
closed = 1;
nodes = (
"537 -16 CURVE SMOOTH",
"852 -16 OFFCURVE",
"1025 277 OFFCURVE",
"1025 674 CURVE SMOOTH",
"1025 831 OFFCURVE",
"928 931 OFFCURVE",
"831 946 CURVE SMOOTH",
"738 960 OFFCURVE",
"593 865 OFFCURVE",
"593 865 CURVE",
"757 996 OFFCURVE",
"1025 1391 OFFCURVE",
"1066 1647 CURVE SMOOTH",
"1096 1840 OFFCURVE",
"1057 1980 OFFCURVE",
"863 1980 CURVE SMOOTH",
"407 1980 OFFCURVE",
"133 1048 OFFCURVE",
"112 408 CURVE SMOOTH",
"104 156 OFFCURVE",
"261 -16 OFFCURVE"
);
},
{
closed = 1;
nodes = (
"928 353 CURVE SMOOTH",
"1077 353 OFFCURVE",
"1248 427 OFFCURVE",
"1334 506 CURVE SMOOTH",
"1363 533 OFFCURVE",
"1368 548 OFFCURVE",
"1368 585 CURVE SMOOTH",
"1368 629 OFFCURVE",
"1345 660 OFFCURVE",
"1305 660 CURVE SMOOTH",
"1265 660 OFFCURVE",
"1151 541 OFFCURVE",
"993 541 CURVE SMOOTH",
"871 541 OFFCURVE",
"891 688 OFFCURVE",
"828 688 CURVE SMOOTH",
"753 688 OFFCURVE",
"668 634 OFFCURVE",
"668 537 CURVE SMOOTH",
"668 414 OFFCURVE",
"782 353 OFFCURVE"
);
},
{
closed = 1;
nodes = (
"563 176 CURVE SMOOTH",
"415 167 OFFCURVE",
"372 290 OFFCURVE",
"372 412 CURVE SMOOTH",
"372 588 OFFCURVE",
"499 774 OFFCURVE",
"671 774 CURVE SMOOTH",
"833 774 OFFCURVE",
"798 675 OFFCURVE",
"798 557 CURVE SMOOTH",
"798 386 OFFCURVE",
"702 184 OFFCURVE"
);
},
{
closed = 1;
nodes = (
"391 812 CURVE",
"404 1106 OFFCURVE",
"634 1744 OFFCURVE",
"792 1744 CURVE SMOOTH",
"828 1744 OFFCURVE",
"858 1738 OFFCURVE",
"852 1653 CURVE SMOOTH",
"833 1392 OFFCURVE",
"545 1039 OFFCURVE"
);
}
);
width = 1121.01;
}
);
unicode = 0062;
userData = {
com.typemytype.robofont.layerData = {
};
};
},
{
glyphname = c;
lastChange = "2014-01-06 04:09:51 -0800";
layers = (
{
anchors = (
{
name = bot;
position = "{444, 0}";
},
{
name = top;
position = "{404, 953}";
}
);
layerId = "DE4BB00D-BABA-4D36-9D9A-44FD0E91C3DF";
name = Light;
paths = (
{
closed = 1;
nodes = (
"415 -16 CURVE SMOOTH",
"727 -32 OFFCURVE",
"934 142 OFFCURVE",
"1041 328 CURVE SMOOTH",
"1062 365 OFFCURVE",
"1028 423 OFFCURVE",
"1002 395 CURVE SMOOTH",
"846 228 OFFCURVE",
"674 93 OFFCURVE",
"450 109 CURVE SMOOTH",
"315 119 OFFCURVE",
"242 236 OFFCURVE",
"244 395 CURVE SMOOTH",
"248 696 OFFCURVE",
"464 833 OFFCURVE",
"569 831 CURVE SMOOTH",
"638 829 OFFCURVE",
"674 784 OFFCURVE",
"675 725 CURVE SMOOTH",
"675 682 OFFCURVE",
"656 631 OFFCURVE",
"617 584 CURVE SMOOTH",
"590 551 OFFCURVE",
"646 477 OFFCURVE",
"709 532 CURVE SMOOTH",
"751 568 OFFCURVE",
"797 624 OFFCURVE",
"802 742 CURVE SMOOTH",
"809 876 OFFCURVE",
"708 966 OFFCURVE",
"564 966 CURVE SMOOTH",
"318 966 OFFCURVE",
"101 688 OFFCURVE",
"76 410 CURVE SMOOTH",
"55 184 OFFCURVE",
"194 -5 OFFCURVE"
);
}
);
width = 848.087;
},
{
anchors = (
{
name = bot;
position = "{413.5, 0}";
},
{
name = top;
position = "{413.5, 953}";
}
);
layerId = "5ACEE878-7952-4CAC-A6A7-BEDE971843B4";
name = Regular;
paths = (
{
closed = 1;
nodes = (
"473 -17 CURVE SMOOTH",
"741 -17 OFFCURVE",
"938 162 OFFCURVE",
"1034 307 CURVE SMOOTH",
"1077 372 OFFCURVE",
"1006 475 OFFCURVE",
"950 414 CURVE SMOOTH",
"830 282 OFFCURVE",
"680 153 OFFCURVE",
"504 153 CURVE SMOOTH",
"369 153 OFFCURVE",
"277 245 OFFCURVE",
"282 399 CURVE SMOOTH",
"291 673 OFFCURVE",
"445 777 OFFCURVE",
"546 777 CURVE SMOOTH",
"597 777 OFFCURVE",
"638 748 OFFCURVE",
"636 707 CURVE SMOOTH",
"632 624 OFFCURVE",
"596 617 OFFCURVE",
"596 577 CURVE SMOOTH",
"596 536 OFFCURVE",
"627 496 OFFCURVE",
"670 496 CURVE SMOOTH",
"733 496 OFFCURVE",
"832 613 OFFCURVE",
"832 735 CURVE SMOOTH",
"832 855 OFFCURVE",
"729 966 OFFCURVE",
"559 966 CURVE SMOOTH",
"249 966 OFFCURVE",
"54 631 OFFCURVE",
"64 368 CURVE SMOOTH",
"75 66 OFFCURVE",
"318 -17 OFFCURVE"
);
}
);
width = 804.998;
}
);
unicode = 0063;
userData = {
com.typemytype.robofont.layerData = {
};
};
},
{
glyphname = d;
lastChange = "2014-01-04 15:27:21 -0800";
layers = (
{
anchors = (
{
name = top;
position = "{562, 953}";
}
);
layerId = "DE4BB00D-BABA-4D36-9D9A-44FD0E91C3DF";
name = Light;
paths = (
{
closed = 1;
nodes = (
"336 -16 CURVE",
"502 -16 OFFCURVE",
"628 94 OFFCURVE",
"675 212 CURVE",
"713 35 OFFCURVE",
"819 -8 OFFCURVE",
"949 -8 CURVE SMOOTH",
"1155 -8 OFFCURVE",
"1279 123 OFFCURVE",
"1372 239 CURVE",
"1380 250 OFFCURVE",
"1392 271 OFFCURVE",
"1390 290 CURVE",
"1388 324 OFFCURVE",
"1360 346 OFFCURVE",
"1332 345 CURVE",
"1314 345 OFFCURVE",
"1308 337 OFFCURVE",
"1293 321 CURVE",
"1242 257 OFFCURVE",
"1119 135 OFFCURVE",
"978 135 CURVE SMOOTH",
"873 135 OFFCURVE",
"808 220 OFFCURVE",
"819 436 CURVE",
"1046 771 OFFCURVE",
"1450 1312 OFFCURVE",
"1419 1757 CURVE SMOOTH",
"1413 1843 OFFCURVE",
"1342 1921 OFFCURVE",
"1244 1921 CURVE SMOOTH",
"972 1921 OFFCURVE",
"788 1509 OFFCURVE",
"704 930 CURVE",
"408 1063 OFFCURVE",
"55 628 OFFCURVE",
"80 267 CURVE SMOOTH",
"91 102 OFFCURVE",
"194 -2 OFFCURVE"
);
},
{
closed = 1;
nodes = (
"386 118 CURVE SMOOTH",
"341 118 OFFCURVE",
"239 155 OFFCURVE",
"229 297 CURVE SMOOTH",
"212 542 OFFCURVE",
"437 894 OFFCURVE",
"700 820 CURVE",
"662 533 LINE SMOOTH",
"631 334 OFFCURVE",
"500 118 OFFCURVE"
);
},
{
closed = 1;
nodes = (
"812 619 CURVE",
"871 1027 OFFCURVE",
"978 1740 OFFCURVE",
"1193 1740 CURVE SMOOTH",
"1231 1740 OFFCURVE",
"1270 1717 OFFCURVE",
"1274 1649 CURVE SMOOTH",
"1294 1364 OFFCURVE",
"1080 1013 OFFCURVE"
);
}
);
width = 1156;
},
{
anchors = (
{
name = top;
position = "{564, 953}";
}
);
layerId = "5ACEE878-7952-4CAC-A6A7-BEDE971843B4";
name = Regular;
paths = (
{
closed = 1;
nodes = (
"358 -16 CURVE SMOOTH",
"510 -16 OFFCURVE",
"612 57 OFFCURVE",
"667 193 CURVE",
"725 61 OFFCURVE",
"833 -8 OFFCURVE",
"955 -8 CURVE SMOOTH",
"1171 -8 OFFCURVE",
"1313 130 OFFCURVE",
"1408 248 CURVE SMOOTH",
"1417 260 OFFCURVE",
"1433 290 OFFCURVE",
"1432 318 CURVE SMOOTH",
"1427 371 OFFCURVE",
"1380 404 OFFCURVE",
"1338 403 CURVE SMOOTH",
"1319 403 OFFCURVE",
"1306 402 OFFCURVE",
"1295 389 CURVE SMOOTH",
"1244 326 OFFCURVE",
"1109 175 OFFCURVE",
"978 175 CURVE SMOOTH",
"894 175 OFFCURVE",
"837 260 OFFCURVE",
"842 454 CURVE",
"1069 788 OFFCURVE",
"1464 1273 OFFCURVE",
"1425 1727 CURVE SMOOTH",
"1415 1828 OFFCURVE",
"1330 1921 OFFCURVE",
"1210 1921 CURVE SMOOTH",
"915 1921 OFFCURVE",
"746 1520 OFFCURVE",
"665 951 CURVE",
"346 1052 OFFCURVE",
"38 648 OFFCURVE",
"69 283 CURVE SMOOTH",
"85 102 OFFCURVE",
"206 -16 OFFCURVE"
);
},
{
closed = 1;
nodes = (
"406 190 CURVE SMOOTH",
"365 190 OFFCURVE",
"305 207 OFFCURVE",
"295 325 CURVE SMOOTH",
"278 527 OFFCURVE",
"428 773 OFFCURVE",
"654 773 CURVE",
"622 551 LINE SMOOTH",
"580 261 OFFCURVE",
"507 190 OFFCURVE"
);
},
{
closed = 1;
nodes = (
"848 739 CURVE",
"901 1141 OFFCURVE",
"977 1680 OFFCURVE",
"1167 1680 CURVE SMOOTH",
"1193 1680 OFFCURVE",
"1213 1667 OFFCURVE",
"1218 1619 CURVE SMOOTH",
"1242 1344 OFFCURVE",
"1035 1038 OFFCURVE"
);
}
);
width = 1128;
}
);
unicode = 0064;
userData = {
com.typemytype.robofont.layerData = {
};
};
},
{
glyphname = e;
lastChange = "2014-01-06 04:08:34 -0800";
layers = (
{
anchors = (
{
name = bot;
position = "{383, 0}";
},
{
name = ogonek;
position = "{610, 0}";
},
{
name = top;
position = "{493, 953}";
}
);
background = {
paths = (
{
closed = 1;
nodes = (
"443 -17 CURVE SMOOTH",
"702 -26 OFFCURVE",
"886 125 OFFCURVE",
"974 245 CURVE",
"1015 300 OFFCURVE",
"954 344 OFFCURVE",
"934 324 CURVE",
"623 16 OFFCURVE",
"283 34 OFFCURVE",
"223 315 CURVE",
"570 364 OFFCURVE",
"788 537 OFFCURVE",
"788 746 CURVE",
"788 883 OFFCURVE",
"670 967 OFFCURVE",
"531 967 CURVE",
"270 967 OFFCURVE",
"74 699 OFFCURVE",
"74 385 CURVE",
"73 148 OFFCURVE",
"235 -10 OFFCURVE"
);
},
{
closed = 1;
nodes = (
"219 412 CURVE",
"219 595 OFFCURVE",
"366 846 OFFCURVE",
"543 846 CURVE",
"602 846 OFFCURVE",
"667 802 OFFCURVE",
"657 709 CURVE",
"643 563 OFFCURVE",
"376 423 OFFCURVE"
);
}
);
};
layerId = "DE4BB00D-BABA-4D36-9D9A-44FD0E91C3DF";
name = Light;
paths = (
{
closed = 1;
nodes = (
"443 -17 CURVE SMOOTH",
"702 -26 OFFCURVE",
"946 145 OFFCURVE",
"1034 265 CURVE SMOOTH",
"1075 320 OFFCURVE",
"1010 374 OFFCURVE",
"990 354 CURVE SMOOTH",
"679 46 OFFCURVE",
"278 15 OFFCURVE",
"227 318 CURVE",
"574 367 OFFCURVE",
"788 537 OFFCURVE",
"788 746 CURVE SMOOTH",
"788 883 OFFCURVE",
"670 967 OFFCURVE",
"531 967 CURVE SMOOTH",
"270 967 OFFCURVE",
"74 699 OFFCURVE",
"74 385 CURVE SMOOTH",
"73 148 OFFCURVE",
"235 -10 OFFCURVE"
);
},
{
closed = 1;
nodes = (
"224 434 CURVE",
"226 607 OFFCURVE",
"366 846 OFFCURVE",
"543 846 CURVE SMOOTH",
"602 846 OFFCURVE",
"667 802 OFFCURVE",
"657 709 CURVE SMOOTH",
"643 563 OFFCURVE",
"381 445 OFFCURVE"
);
}
);
width = 771.086;
},
{
anchors = (
{
name = bot;
position = "{421, 0}";
},
{
name = ogonek;
position = "{0, 0}";
},
{
name = top;
position = "{421, 953}";
}
);
layerId = "5ACEE878-7952-4CAC-A6A7-BEDE971843B4";
name = Regular;
paths = (
{
closed = 1;
nodes = (
"461 -17 CURVE SMOOTH",
"710 -24 OFFCURVE",
"945 131 OFFCURVE",
"1037 257 CURVE SMOOTH",
"1102 345 OFFCURVE",
"995.999 419 OFFCURVE",
"952 376 CURVE SMOOTH",
"716 149 OFFCURVE",
"364 97.9999 OFFCURVE",
"299 300 CURVE",
"643 375 OFFCURVE",
"827 494 OFFCURVE",
"827 717 CURVE SMOOTH",
"827 873 OFFCURVE",
"706 966 OFFCURVE",
"552 966 CURVE SMOOTH",
"271 966 OFFCURVE",
"64 648 OFFCURVE",
"64 377 CURVE SMOOTH",
"64 105 OFFCURVE",
"261 -11 OFFCURVE"
);
},
{
closed = 1;
nodes = (
"283 430 CURVE",
"283 595 OFFCURVE",
"420 775 OFFCURVE",
"564 775 CURVE SMOOTH",
"612 775 OFFCURVE",
"656 751 OFFCURVE",
"649 681 CURVE SMOOTH",
"638 571 OFFCURVE",
"403 472 OFFCURVE"
);
}
);
width = 842;
}
);
unicode = 0065;
userData = {
com.typemytype.robofont.layerData = {
};
};
},
{
glyphname = f;
lastChange = "2014-01-05 17:54:34 -0800";
layers = (
{
anchors = (
{
name = top;
position = "{353, 953}";
}
);
background = {
paths = (
{
closed = 1;
nodes = (
"289 -607 CURVE SMOOTH",
"523 -607 OFFCURVE",
"622 -259 OFFCURVE",
"622 -29 CURVE SMOOTH",
"622 168 OFFCURVE",
"547 326 OFFCURVE",
"487 456 CURVE",
"667 425 OFFCURVE",
"960 464 OFFCURVE",
"979 652 CURVE SMOOTH",
"981 673 OFFCURVE",
"980 691 OFFCURVE",
"966 691 CURVE SMOOTH",
"955 691 OFFCURVE",
"927 677 OFFCURVE",
"877 648 CURVE SMOOTH",
"812 612 OFFCURVE",
"724 557 OFFCURVE",
"578 557 CURVE SMOOTH",
"530 557 OFFCURVE",
"426 570 OFFCURVE",
"391 603 CURVE",
"702 976 OFFCURVE",
"1020 1376 OFFCURVE",
"1020 1722 CURVE SMOOTH",
"1020 1846 OFFCURVE",
"956 1924 OFFCURVE",
"850 1924 CURVE SMOOTH",
"324 1924 OFFCURVE",
"83 515 OFFCURVE",
"83 -38 CURVE SMOOTH",
"83 -273 OFFCURVE",
"111 -607 OFFCURVE"
);
},
{
closed = 1;
nodes = (
"320 -479 CURVE SMOOTH",
"239 -479 OFFCURVE",
"237 -230 OFFCURVE",
"237 -76 CURVE SMOOTH",
"237 159 OFFCURVE",
"250 307 OFFCURVE",
"276 543 CURVE",
"370 403 OFFCURVE",
"476 234 OFFCURVE",
"476 -87 CURVE SMOOTH",
"476 -92 LINE SMOOTH",
"476 -207 OFFCURVE",
"475 -479 OFFCURVE"
);
},
{
closed = 1;
nodes = (
"294 664 CURVE",
"321 757 OFFCURVE",
"553 1759 OFFCURVE",
"813 1759 CURVE SMOOTH",
"880 1759 OFFCURVE",
"893 1686 OFFCURVE",
"893 1627 CURVE SMOOTH",
"893 1348 OFFCURVE",
"532 953 OFFCURVE"
);
}
);
};
layerId = "DE4BB00D-BABA-4D36-9D9A-44FD0E91C3DF";
name = Light;
paths = (
{
closed = 1;
nodes = (
"289 -607 CURVE SMOOTH",
"523 -637 OFFCURVE",
"622 -339 OFFCURVE",
"622 -29 CURVE SMOOTH",
"622 168 OFFCURVE",
"518 385 OFFCURVE",
"437 486 CURVE",
"657 423 OFFCURVE",
"960 524 OFFCURVE",
"979 692 CURVE SMOOTH",
"981 713 OFFCURVE",
"980 731 OFFCURVE",
"966 731 CURVE SMOOTH",
"955 731 OFFCURVE",
"918 729 OFFCURVE",
"877 688 CURVE SMOOTH",
"810 622 OFFCURVE",
"724 557 OFFCURVE",
"578 557 CURVE SMOOTH",
"530 557 OFFCURVE",
"426 570 OFFCURVE",
"391 603 CURVE",
"702 976 OFFCURVE",
"1020 1376 OFFCURVE",
"1020 1722 CURVE SMOOTH",
"1020 1846 OFFCURVE",
"956 1924 OFFCURVE",
"850 1924 CURVE SMOOTH",
"324 1924 OFFCURVE",
"83 515 OFFCURVE",
"83 -38 CURVE SMOOTH",
"83 -273 OFFCURVE",
"112 -584 OFFCURVE"
);
},
{
closed = 1;
nodes = (
"310 -479 CURVE SMOOTH",
"229 -470 OFFCURVE",
"227 -230 OFFCURVE",
"227 -76 CURVE SMOOTH",
"227 159 OFFCURVE",
"240 307 OFFCURVE",
"266 543 CURVE",
"360 403 OFFCURVE",
"476 204 OFFCURVE",
"476 -47 CURVE SMOOTH",
"476 -52 LINE SMOOTH",
"476 -247 OFFCURVE",
"433 -492 OFFCURVE"
);
},
{
closed = 1;
nodes = (
"272 650 CURVE",
"319 883 OFFCURVE",
"545 1795 OFFCURVE",
"805 1795 CURVE SMOOTH",
"872 1795 OFFCURVE",
"885 1722 OFFCURVE",
"885 1663 CURVE SMOOTH",
"885 1384 OFFCURVE",
"510 939 OFFCURVE"
);
}
);
width = 706;
},
{
anchors = (
{
name = top;
position = "{353, 953}";
}
);
layerId = "5ACEE878-7952-4CAC-A6A7-BEDE971843B4";
name = Regular;
paths = (
{
closed = 1;
nodes = (
"289 -704 CURVE SMOOTH",
"545 -655 OFFCURVE",
"652 -367 OFFCURVE",
"652 -129 CURVE SMOOTH",
"652 54 OFFCURVE",
"589 305 OFFCURVE",
"533 427 CURVE",
"735 434 OFFCURVE",
"1009 453 OFFCURVE",
"1009 652 CURVE SMOOTH",
"1009 691 OFFCURVE",
"996 721 OFFCURVE",
"973 721 CURVE SMOOTH",
"967 721 OFFCURVE",
"962 719 OFFCURVE",
"955 715 CURVE SMOOTH",
"817 638 OFFCURVE",
"745 587 OFFCURVE",
"578 587 CURVE SMOOTH",
"539 587 OFFCURVE",
"493 593 OFFCURVE",
"464 603 CURVE",
"661 833 OFFCURVE",
"1001 1243 OFFCURVE",
"1001 1624 CURVE SMOOTH",
"1001 1762 OFFCURVE",
"926 1856 OFFCURVE",
"801 1856 CURVE SMOOTH",
"245 1856 OFFCURVE",
"53 381 OFFCURVE",
"53 -178 CURVE SMOOTH",
"53 -416 OFFCURVE",
"81 -744 OFFCURVE"
);
},
{
closed = 1;
nodes = (
"322 -518 CURVE SMOOTH",
"274 -518 OFFCURVE",
"270 -318 OFFCURVE",
"270 -173 CURVE SMOOTH",
"270 26 OFFCURVE",
"292 323 OFFCURVE",
"302 523 CURVE",
"390 380 OFFCURVE",
"468 71 OFFCURVE",
"468 -183 CURVE SMOOTH",
"468 -188 LINE SMOOTH",
"468 -304 OFFCURVE",
"466 -518 OFFCURVE"
);
},
{
closed = 1;
nodes = (
"349 686 CURVE",
"375 775 OFFCURVE",
"535 1631 OFFCURVE",
"764 1631 CURVE SMOOTH",
"805 1631 OFFCURVE",
"814 1583 OFFCURVE",
"814 1529 CURVE SMOOTH",
"814 1243 OFFCURVE",
"421 770 OFFCURVE"
);
}
);
width = 742;
}
);
unicode = 0066;
userData = {
com.typemytype.robofont.layerData = {
};
};
},
{
glyphname = g;
lastChange = "2014-01-04 15:27:21 -0800";
layers = (
{
anchors = (
{
name = bot;
position = "{506, 0}";
}
);
layerId = "DE4BB00D-BABA-4D36-9D9A-44FD0E91C3DF";
name = Light;
paths = (
{
closed = 1;
nodes = (
"136 -940 CURVE SMOOTH",
"312 -940 OFFCURVE",
"437 -847 OFFCURVE",
"531 -691 CURVE SMOOTH",
"625 -534 OFFCURVE",
"687 -313 OFFCURVE",
"736 -57 CURVE",
"947 88 OFFCURVE",
"1044 166 OFFCURVE",
"1183 236 CURVE",
"1272 299 OFFCURVE",
"1217 374 OFFCURVE",
"1150 360 CURVE",
"1004 289 OFFCURVE",
"901 192 OFFCURVE",
"744 74 CURVE",
"914 826 LINE SMOOTH",
"924 875 OFFCURVE",
"850 903 OFFCURVE",
"798 880 CURVE",
"798 880 OFFCURVE",
"830 948 OFFCURVE",
"675 951 CURVE SMOOTH",
"373 959 OFFCURVE",
"73 628 OFFCURVE",
"73 277 CURVE SMOOTH",
"73 134 OFFCURVE",
"166 26 OFFCURVE",
"313 26 CURVE SMOOTH",
"403 26 OFFCURVE",
"568 62 OFFCURVE",
"633 192 CURVE",
"586 -7 LINE",
"468 -97 OFFCURVE",
"308 -218 OFFCURVE",
"178 -346 CURVE SMOOTH",
"48 -475 OFFCURVE",
"-52 -612 OFFCURVE",
"-52 -735 CURVE SMOOTH",
"-52 -855 OFFCURVE",
"1 -940 OFFCURVE"
);
},
{
closed = 1;
nodes = (
"387 158 CURVE SMOOTH",
"280 158 OFFCURVE",
"254 252 OFFCURVE",
"254 320 CURVE SMOOTH",
"254 526 OFFCURVE",
"452 855 OFFCURVE",
"742 826 CURVE",
"642 462 LINE SMOOTH",
"616 368 OFFCURVE",
"551 158 OFFCURVE"
);
},
{
closed = 1;
nodes = (
"147 -812 CURVE SMOOTH",
"94 -812 OFFCURVE",
"75 -762 OFFCURVE",
"75 -727 CURVE SMOOTH",
"75 -563 OFFCURVE",
"358 -321 OFFCURVE",
"563 -151 CURVE",
"504 -402 OFFCURVE",
"410 -812 OFFCURVE"
);
}
);
width = 1012;
},
{
anchors = (
{
name = bot;
position = "{526, 0}";
}
);
background = {
paths = (
{
closed = 1;
nodes = (
"175 -928 CURVE SMOOTH",
"318 -928 OFFCURVE",
"450 -867 OFFCURVE",
"556 -739 CURVE SMOOTH",
"685 -581 OFFCURVE",
"745 -349 OFFCURVE",
"791 -108 CURVE",
"996 31 OFFCURVE",
"1188 118 OFFCURVE",
"1327 214 CURVE SMOOTH",
"1448 299 OFFCURVE",
"1364 412 OFFCURVE",
"1271 392 CURVE SMOOTH",
"1175 371 OFFCURVE",
"960 229 OFFCURVE",
"820 114 CURVE",
"961 795 LINE SMOOTH",
"976 868 OFFCURVE",
"894 925 OFFCURVE",
"796 885 CURVE",
"795 885 OFFCURVE",
"805 953 OFFCURVE",
"694 956 CURVE SMOOTH",
"375 965 OFFCURVE",
"71 648 OFFCURVE",
"71 281 CURVE SMOOTH",
"71 123 OFFCURVE",
"176 0 OFFCURVE",
"341 0 CURVE SMOOTH",
"440 0 OFFCURVE",
"532 57 OFFCURVE",
"585 136 CURVE",
"555 -5 LINE",
"403 -121 OFFCURVE",
"252 -237 OFFCURVE",
"128 -378 CURVE SMOOTH",
"50 -466 OFFCURVE",
"-67 -588 OFFCURVE",
"-67 -729 CURVE SMOOTH",
"-67 -870 OFFCURVE",
"28 -928 OFFCURVE"
);
},
{
closed = 1;
nodes = (
"415 192 CURVE SMOOTH",
"331 192 OFFCURVE",
"312 260 OFFCURVE",
"312 324 CURVE SMOOTH",
"312 508 OFFCURVE",
"474 773 OFFCURVE",
"721 773 CURVE",
"641 474 LINE SMOOTH",
"615 380 OFFCURVE",
"557 192 OFFCURVE"
);
},
{
closed = 1;
nodes = (
"186 -754 CURVE SMOOTH",
"157 -754 OFFCURVE",
"144 -724 OFFCURVE",
"144 -699 CURVE SMOOTH",
"144 -550 OFFCURVE",
"334 -397 OFFCURVE",
"539 -226 CURVE",
"504 -387 OFFCURVE",
"397 -754 OFFCURVE"
);
}
);
};
layerId = "5ACEE878-7952-4CAC-A6A7-BEDE971843B4";
name = Regular;
paths = (
{
closed = 1;
nodes = (
"184 -928 CURVE SMOOTH",
"327 -928 OFFCURVE",
"440 -864 OFFCURVE",
"547 -738 CURVE SMOOTH",
"656 -609 OFFCURVE",
"726 -360 OFFCURVE",
"782 -109 CURVE",
"987 30 OFFCURVE",
"1147 102 OFFCURVE",
"1286 178 CURVE SMOOTH",
"1416 249 OFFCURVE",
"1322 380 OFFCURVE",
"1230 356 CURVE SMOOTH",
"1144 334 OFFCURVE",
"949 213 OFFCURVE",
"809 98 CURVE",
"970 795 LINE SMOOTH",
"987 868 OFFCURVE",
"903 925 OFFCURVE",
"805 885 CURVE",
"804 885 OFFCURVE",
"814 953 OFFCURVE",
"703 956 CURVE SMOOTH",
"384 965 OFFCURVE",
"80 648 OFFCURVE",
"80 281 CURVE SMOOTH",
"80 123 OFFCURVE",
"185 0 OFFCURVE",
"350 0 CURVE SMOOTH",
"449 0 OFFCURVE",
"568 57 OFFCURVE",
"621 136 CURVE",
"591 -5 LINE",
"439 -121 OFFCURVE",
"261 -237 OFFCURVE",
"137 -378 CURVE SMOOTH",
"59 -466 OFFCURVE",
"-58 -588 OFFCURVE",
"-58 -729 CURVE SMOOTH",
"-58 -870 OFFCURVE",
"37 -928 OFFCURVE"
);
},
{
closed = 1;
nodes = (
"424 192 CURVE SMOOTH",
"340 192 OFFCURVE",
"321 260 OFFCURVE",
"321 324 CURVE SMOOTH",
"321 508 OFFCURVE",
"510 773 OFFCURVE",
"757 773 CURVE",
"677 474 LINE SMOOTH",
"651 380 OFFCURVE",
"593 192 OFFCURVE"
);
},
{
closed = 1;
nodes = (
"169 -768 CURVE SMOOTH",
"138 -768 OFFCURVE",
"124 -736 OFFCURVE",
"124 -709 CURVE SMOOTH",
"124 -547 OFFCURVE",
"359 -373 OFFCURVE",
"580 -188 CURVE",
"543 -362 OFFCURVE",
"398 -768 OFFCURVE"
);
}
);
width = 1007.99;
}
);
unicode = 0067;
userData = {
com.typemytype.robofont.layerData = {
};
};
},
{
glyphname = h;
lastChange = "2014-01-05 23:40:46 -0800";
layers = (
{
layerId = "DE4BB00D-BABA-4D36-9D9A-44FD0E91C3DF";
name = Light;
paths = (
{
closed = 1;
nodes = (
"174 2 CURVE SMOOTH",
"260 -35 OFFCURVE",
"309 26 OFFCURVE",
"341 95 CURVE SMOOTH",
"449 330 OFFCURVE",
"592 514 OFFCURVE",
"697 613 CURVE SMOOTH",
"1074 968 OFFCURVE",
"736 575 OFFCURVE",
"714 203 CURVE SMOOTH",
"707 87 OFFCURVE",
"759 2 OFFCURVE",
"881 0 CURVE SMOOTH",
"1065 -3 OFFCURVE",
"1225 122 OFFCURVE",
"1332 206 CURVE SMOOTH",
"1369 235 OFFCURVE",
"1381 264 OFFCURVE",
"1377 296 CURVE SMOOTH",
"1373 338 OFFCURVE",
"1344 370 OFFCURVE",
"1327 370 CURVE SMOOTH",
"1311 370 OFFCURVE",
"1299 358 OFFCURVE",
"1277 336 CURVE SMOOTH",
"1235 293 OFFCURVE",
"1081 134 OFFCURVE",
"946 134 CURVE SMOOTH",
"913 134 OFFCURVE",
"881 150 OFFCURVE",
"877 183 CURVE SMOOTH",
"862 325 OFFCURVE",
"996 661 OFFCURVE",
"1051 780 CURVE SMOOTH",
"1083 866 OFFCURVE",
"1036 955 OFFCURVE",
"946 955 CURVE SMOOTH",
"857 955 OFFCURVE",
"527 736 OFFCURVE",
"267 210 CURVE",
"286 622 LINE",
"837 1102 OFFCURVE",
"1009 1472 OFFCURVE",
"1021 1697 CURVE",
"1020 1830 OFFCURVE",
"943 1920 OFFCURVE",
"806 1920 CURVE SMOOTH",
"321 1920 OFFCURVE",
"118 872 OFFCURVE",
"122 311 CURVE SMOOTH",
"122 218 OFFCURVE",
"109 30 OFFCURVE"
);
},
{
closed = 1;
nodes = (
"296 774 CURVE",
"338 1254 OFFCURVE",
"606 1792 OFFCURVE",
"783 1761 CURVE SMOOTH",
"839 1751 OFFCURVE",
"859 1715 OFFCURVE",
"861 1660 CURVE",
"861 1480 OFFCURVE",
"556 1020 OFFCURVE"
);
}
);
width = 1117.96;
},
{
layerId = "5ACEE878-7952-4CAC-A6A7-BEDE971843B4";
name = Regular;
paths = (
{
closed = 1;
nodes = (
"175 0 CURVE SMOOTH",
"273 -17 OFFCURVE",
"295 38 OFFCURVE",
"321 113 CURVE SMOOTH",
"392 314 OFFCURVE",
"582 544 OFFCURVE",
"711 640 CURVE SMOOTH",
"871 759 OFFCURVE",
"636 429 OFFCURVE",
"627 185 CURVE SMOOTH",
"622 34 OFFCURVE",
"728 -20 OFFCURVE",
"846 0 CURVE SMOOTH",
"1031 31 OFFCURVE",
"1189 123 OFFCURVE",
"1298 196 CURVE SMOOTH",
"1343 228 OFFCURVE",
"1359 271 OFFCURVE",
"1358 311 CURVE SMOOTH",
"1356 367 OFFCURVE",
"1321 415 OFFCURVE",
"1281 415 CURVE SMOOTH",
"1272 415 OFFCURVE",
"1263 412 OFFCURVE",
"1255 407 CURVE",
"1227 383 OFFCURVE",
"976 194 OFFCURVE",
"891 194 CURVE SMOOTH",
"874 194 OFFCURVE",
"864 200 OFFCURVE",
"864 213 CURVE SMOOTH",
"858 347 OFFCURVE",
"1000 606 OFFCURVE",
"1067 807 CURVE SMOOTH",
"1097 897 OFFCURVE",
"1022 966 OFFCURVE",
"918 966 CURVE SMOOTH",
"820 966 OFFCURVE",
"552 817 OFFCURVE",
"339 440 CURVE",
"381 731 LINE",
"920 1214 OFFCURVE",
"1058 1496 OFFCURVE",
"1082 1726 CURVE",
"1090 1874 OFFCURVE",
"1005 1982 OFFCURVE",
"856 1982 CURVE SMOOTH",
"349 1982 OFFCURVE",
"115 900 OFFCURVE",
"86 333 CURVE SMOOTH",
"80 236 OFFCURVE",
"71 18 OFFCURVE"
);
},
{
closed = 1;
nodes = (
"392 918 CURVE",
"423 1131 OFFCURVE",
"591 1781 OFFCURVE",
"809 1740 CURVE SMOOTH",
"839 1734 OFFCURVE",
"849 1714 OFFCURVE",
"848 1670 CURVE SMOOTH",
"838 1496 OFFCURVE",
"593 1131 OFFCURVE"
);
}
);
width = 1111.01;
}
);
unicode = 0068;
},
